<?xml version="1.0" encoding="utf-8"?>
<!-- Generator: Adobe Illustrator 25.0.0, SVG Export Plug-In . SVG Version: 6.00 Build 0)  -->
<svg version="1.1" id="Calque_1" xmlns="http://www.w3.org/2000/svg" xmlns:xlink="http://www.w3.org/1999/xlink" x="0px" y="0px"
	 viewBox="0 0 150 150" style="enable-background:new 0 0 150 150;" xml:space="preserve">
<style type="text/css">
	.st0{fill:#1E1E1C;}
	.st1{font-family:'CooperHewitt-Bold';}
	.st2{font-size:12.0166px;}
	.st3{font-size:12.0158px;}
	.st4{font-size:12.0161px;}
	.st5{font-size:12.0167px;}
	.st6{font-size:12.017px;}
	.st7{font-size:11.3364px;}
	.st8{font-size:11.3365px;}
	.st9{font-size:11.336px;}
	.st10{font-size:11.3369px;}
	.st11{font-size:11.3363px;}
	.st12{font-size:11.3359px;}
	.st13{font-size:11.3368px;}
	.st14{font-size:11.337px;}
	.st15{font-size:11.3361px;}
	.st16{fill:#252525;}
	.st17{fill:#010101;}
	.st18{fill:#3A3A39;}
	.st19{fill:#030404;}
	.st20{fill:#CDCBCB;}
	.st21{fill:#686868;}
	.st22{fill:#E4E5E4;}
	.st23{fill:#F1F1F1;}
	.st24{fill:#FFFFFF;}
	.st25{opacity:0;}
	.st26{clip-path:url(#SVGID_2_);}
	.st27{clip-path:url(#SVGID_4_);fill:#010101;}
	.st28{fill:#D2B4AE;}
	.st29{fill:#70433A;}
	.st30{fill:#D12042;}
	.st31{fill:#ECD814;}
	.st32{fill:#A49A43;}
	.st33{fill:#D2BF12;}
	.st34{fill:#EDD714;}
	.st35{fill:#EDDB36;}
	.st36{fill:#EFDF4F;}
	.st37{fill:#B7A60E;}
	.st38{fill:#787872;}
	.st39{fill:#200A0B;}
	.st40{fill:#5D551B;}
	.st41{fill:#7F1713;}
	.st42{fill:#3D1314;}
	.st43{fill:#9E1A18;}
	.st44{fill:#BB1B1B;}
	.st45{fill:#8B865A;}
	.st46{fill:#57131F;}
</style>
<g>
	<path class="st0" d="M75,1.29c19.69,0,38.2,7.67,52.12,21.59S148.71,55.31,148.71,75s-7.67,38.2-21.59,52.12
		S94.69,148.71,75,148.71s-38.2-7.67-52.12-21.59C8.96,113.2,1.29,94.69,1.29,75s7.67-38.2,21.59-52.12
		C36.8,8.95,55.31,1.29,75,1.29 M75,0.16c-19.99,0-38.78,7.78-52.92,21.92C7.94,36.21,0.16,55.01,0.16,75
		c0,19.99,7.78,38.78,21.92,52.92c14.13,14.14,32.93,21.92,52.92,21.92s38.78-7.79,52.92-21.92c14.14-14.13,21.92-32.93,21.92-52.92
		s-7.78-38.78-21.92-52.92C113.78,7.95,94.99,0.16,75,0.16"/>
	<g>
		<text transform="matrix(0.6618 0.7497 -0.7497 0.6618 23.7928 116.1115)" class="st0 st1 st2">L</text>
		<text transform="matrix(0.7382 0.6745 -0.6745 0.7382 28.2569 121.0701)" class="st0 st1 st3">E</text>
		<text transform="matrix(0.7879 0.6158 -0.6158 0.7879 33.7005 126.0151)" class="st0 st1 st2"> </text>
		<text transform="matrix(0.8382 0.5454 -0.5454 0.8382 35.8973 127.806)" class="st0 st1 st2">G</text>
		<text transform="matrix(0.9033 0.4289 -0.4289 0.9033 43.3212 132.5708)" class="st0 st1 st4">O</text>
		<text transform="matrix(0.9523 0.3051 -0.3051 0.9523 51.2068 136.2565)" class="st0 st1 st5">U</text>
		<text transform="matrix(0.9839 0.1789 -0.1789 0.9839 59.4268 138.8562)" class="st0 st1 st6">V</text>
		<text transform="matrix(0.9982 0.0601 -0.0601 0.9982 67.548 140.2729)" class="st0 st1 st2">E</text>
		<text transform="matrix(0.9984 -0.0562 0.0562 0.9984 75.0891 140.6255)" class="st0 st1 st2">R</text>
		<text transform="matrix(0.983 -0.1835 0.1835 0.983 83.0989 140.1901)" class="st0 st1 st2">N</text>
		<text transform="matrix(0.9523 -0.3051 0.3051 0.9523 91.7475 138.486)" class="st0 st1 st2">E</text>
		<text transform="matrix(0.8992 -0.4375 0.4375 0.8992 99.0927 136.1882)" class="st0 st1 st5">M</text>
		<text transform="matrix(0.8282 -0.5604 0.5604 0.8282 108.8734 131.2404)" class="st0 st1 st2">E</text>
		<text transform="matrix(0.7527 -0.6584 0.6584 0.7527 115.1169 127.0363)" class="st0 st1 st2">N</text>
		<text transform="matrix(0.6673 -0.7448 0.7448 0.6673 121.7301 121.1909)" class="st0 st1 st2">T</text>
		<text transform="matrix(-0.0735 -0.9973 0.9973 -0.0735 18.1346 82.7941)" class="st0 st1 st7">R</text>
		<text transform="matrix(0.0348 -0.9994 0.9994 0.0348 17.6553 76.2221)" class="st0 st1 st8">É</text>
		<text transform="matrix(0.1429 -0.9897 0.9897 0.1429 17.8599 70.1042)" class="st0 st1 st9">P</text>
		<text transform="matrix(0.2586 -0.966 0.966 0.2586 18.7525 63.7444)" class="st0 st1 st7">U</text>
		<text transform="matrix(0.3725 -0.928 0.928 0.3725 20.5432 56.9637)" class="st0 st1 st7">B</text>
		<text transform="matrix(0.4687 -0.8834 0.8834 0.4687 22.9689 50.7344)" class="st0 st1 st10">L</text>
		<text transform="matrix(0.5314 -0.8471 0.8471 0.5314 25.5928 45.8958)" class="st0 st1 st11">I</text>
		<text transform="matrix(0.6025 -0.7981 0.7981 0.6025 26.9981 43.5183)" class="st0 st1 st7">Q</text>
		<text transform="matrix(0.6962 -0.7178 0.7178 0.6962 31.3121 37.8158)" class="st0 st1 st9">U</text>
		<text transform="matrix(0.7732 -0.6342 0.6342 0.7732 36.2444 32.7868)" class="st0 st1 st8">E</text>
		<text transform="matrix(0.8162 -0.5777 0.5777 0.8162 41.0772 28.8537)" class="st0 st1 st12"> </text>
		<text transform="matrix(0.8595 -0.5112 0.5112 0.8595 42.5707 27.5806)" class="st0 st1 st13">D</text>
		<text transform="matrix(0.9125 -0.4092 0.4092 0.9125 48.6415 23.9798)" class="st0 st1 st14">É</text>
		<text transform="matrix(0.9588 -0.284 0.284 0.9588 54.088 21.4206)" class="st0 st1 st8">M</text>
		<text transform="matrix(0.9896 -0.144 0.144 0.9896 62.921 18.8981)" class="st0 st1 st7">O</text>
		<text transform="matrix(0.9997 -0.0229 0.0229 0.9997 70.0221 17.8952)" class="st0 st1 st15">C</text>
		<text transform="matrix(0.9956 0.0932 -0.0932 0.9956 76.9538 17.6828)" class="st0 st1 st9">R</text>
		<text transform="matrix(0.9784 0.2066 -0.2066 0.9784 83.4202 18.2391)" class="st0 st1 st8">A</text>
		<text transform="matrix(0.9527 0.304 -0.304 0.9527 89.4636 19.4382)" class="st0 st1 st11">T</text>
		<text transform="matrix(0.9269 0.3754 -0.3754 0.9269 95.0989 21.3125)" class="st0 st1 st13">I</text>
		<text transform="matrix(0.8907 0.4545 -0.4545 0.8907 97.6326 22.2255)" class="st0 st1 st12">Q</text>
		<text transform="matrix(0.8276 0.5614 -0.5614 0.8276 104.0308 25.5377)" class="st0 st1 st10">U</text>
		<text transform="matrix(0.7583 0.6519 -0.6519 0.7583 109.8823 29.4233)" class="st0 st1 st8">E</text>
		<text transform="matrix(0.7105 0.7037 -0.7037 0.7105 114.4736 33.5354)" class="st0 st1 st8"> </text>
		<text transform="matrix(0.6525 0.7578 -0.7578 0.6525 115.9914 34.8626)" class="st0 st1 st7">D</text>
		<text transform="matrix(0.5551 0.8318 -0.8318 0.5551 120.6027 40.1893)" class="st0 st1 st8">U</text>
		<text transform="matrix(0.4873 0.8732 -0.8732 0.4873 124.4936 46.0823)" class="st0 st1 st11"> </text>
		<text transform="matrix(0.4172 0.9088 -0.9088 0.4172 125.5364 47.845)" class="st0 st1 st7">C</text>
		<text transform="matrix(0.3022 0.9532 -0.9532 0.3022 128.4114 54.0846)" class="st0 st1 st12">O</text>
		<text transform="matrix(0.1793 0.9838 -0.9838 0.1793 130.6749 60.878)" class="st0 st1 st7">N</text>
		<text transform="matrix(0.0546 0.9985 -0.9985 0.0546 131.9441 68.0226)" class="st0 st1 st7">G</text>
		<text transform="matrix(-0.068 0.9977 -0.9977 -0.068 132.3237 75.2014)" class="st0 st1 st8">O</text>
	</g>
	<g>
		<path class="st16" d="M79.95,90.91l12.18-31.66c-5.75-8.8,4.84-15.43,7.99-18.71c0.1,7.64,3.25,15.81-6.03,19.61L82.7,91.56
			L79.95,90.91z"/>
		<path class="st17" d="M82.93,92l-3.47-0.83l12.26-31.88c-4.8-7.57,2.05-13.58,6.15-17.18c0.8-0.7,1.49-1.3,1.98-1.82l0.62-0.64
			l0.01,0.89c0.02,1.51,0.16,3.07,0.3,4.57c0.55,5.98,1.11,12.15-6.4,15.32L82.93,92z M80.44,90.65l2.02,0.48L93.8,59.87l0.15-0.06
			c7.17-2.94,6.65-8.62,6.1-14.64c-0.11-1.24-0.23-2.52-0.28-3.79c-0.41,0.39-0.89,0.81-1.42,1.27c-4.21,3.69-10.57,9.27-5.92,16.39
			l0.1,0.16L80.44,90.65z"/>
		<path class="st18" d="M99.94,42.33c-0.02-0.43-0.05-0.83-0.05-1.26l-0.12,0.1c-3.15,2.9-6.81,5.62-8.47,9.71
			c-1.11,2.6-0.68,5.67,0.88,8.02c0.45,0.5-0.28,1.16-0.35,1.71c-3.86,10.03-7.71,20.07-11.57,30.1c0.76,0.18,1.51,0.35,2.29,0.55
			c3.78-10.44,7.56-20.87,11.35-31.31c2.6-0.98,5.04-2.92,5.92-5.62C101.1,50.45,100.14,46.31,99.94,42.33"/>
		<path class="st19" d="M100.19,40.67l-0.33-0.13c0,0-4.74,12.05-6.13,17.57C96.16,52.72,100.19,40.67,100.19,40.67"/>
		<path class="st20" d="M72.03,91.04C47.22,64.97,57.96,50.3,62.1,42.89c-19.71,16.92-10.46,35.98-0.25,50.12L72.03,91.04z"/>
		<path class="st21" d="M61.85,93.37c-0.12,0-0.23-0.05-0.3-0.15c-9.63-13.35-20.08-33.11,0.31-50.61c0.14-0.11,0.33-0.12,0.47-0.01
			s0.17,0.31,0.09,0.46c-0.23,0.4-0.47,0.83-0.73,1.28c-4.42,7.68-12.66,21.99,10.61,46.44c0.09,0.1,0.12,0.24,0.08,0.36
			c-0.04,0.13-0.15,0.22-0.28,0.25l-10.19,1.97C61.89,93.37,61.87,93.37,61.85,93.37 M60.65,44.69c-3.73,3.54-6.42,7.34-8,11.31
			c-1.61,4.04-2.12,8.39-1.53,12.94c0.92,7.09,4.39,14.61,10.89,23.66l9.3-1.8C48.91,66.98,56.1,52.64,60.65,44.69"/>
		<path class="st22" d="M60.21,45.23c-4.79,4.61-8.45,10.66-9.1,17.37c-0.73,6.93,1.49,13.87,4.69,19.94
			c1.82,3.48,3.96,6.76,6.23,9.93l9.08-1.74c-6.02-6.48-11.55-13.79-14.17-22.34c-1.77-5.82-1.64-12.23,0.68-17.87
			C58.34,48.71,59.27,46.89,60.21,45.23"/>
		<path class="st23" d="M56.22,51.41c-3.25,4.87-4.94,10.87-4.18,16.69c0.86,7.97,4.82,15.2,9.25,21.73
			c0.38,0.55,0.76,1.08,1.13,1.61c2.3-0.43,4.56-0.88,6.86-1.31c-6.02-6.63-11.39-14.24-13.66-23.04
			c-1.31-5.24-1.03-10.84,0.73-15.93C56.32,51.23,56.27,51.31,56.22,51.41"/>
		<path class="st24" d="M53.5,64.74c-0.13,6.51,2.35,12.76,5.47,18.33c1.29,2.27,3.23,5.35,4.69,7.49c0.98-0.23,2.27-0.35,3.15-0.6
			c-5.98-6.98-11.77-16.03-13.31-25.24V64.74z"/>
		<g class="st25">
			<g>
				<g>
					<defs>
						<rect id="SVGID_1_" x="54.27" y="42.89" width="10.75" height="47.88"/>
					</defs>
					<clipPath id="SVGID_2_">
						<use xlink:href="#SVGID_1_"  style="overflow:visible;"/>
					</clipPath>
					<g class="st26">
						<g>
							<defs>
								<rect id="SVGID_3_" x="54.27" y="42.89" width="10.75" height="47.88"/>
							</defs>
							<clipPath id="SVGID_4_">
								<use xlink:href="#SVGID_3_"  style="overflow:visible;"/>
							</clipPath>
							<path class="st27" d="M62.07,42.89c-10.84,11.17-10.87,30.3,2.95,47.88"/>
						</g>
					</g>
				</g>
			</g>
		</g>
		<path class="st21" d="M65.02,91.13c-0.11,0-0.22-0.05-0.29-0.14c-6.68-8.49-10.41-17.67-10.8-26.55
			c-0.37-8.45,2.43-16.2,7.87-21.81c0.14-0.15,0.37-0.15,0.52-0.01c0.14,0.14,0.15,0.37,0.01,0.52c-5.3,5.46-8.03,13.02-7.67,21.27
			c0.38,8.72,4.06,17.76,10.64,26.13c0.13,0.16,0.1,0.39-0.06,0.51C65.18,91.1,65.1,91.13,65.02,91.13"/>
		<path class="st28" d="M52.17,98.42c4.08-0.4,7.99-0.25,11.97-0.33c3.25-0.13,6.51,0.48,9.76,0.73c2.95,0.2,5.92-0.15,8.87-0.23
			l7.77,0.43l5.32,0.23c0.81,0.05,0.78,0.48,0.73,0.88c-0.23,2.22-1.36,3.68-2.12,5.47c-0.96,1.26-1.94,2.24-2.95,3.15
			c-0.66,0.66-1.61,0.81-2.87,0.45c-0.58-0.35-5.65,0-8.47,0c0,0-1.06-0.25-1.81-0.23c-0.73,0-0.51,0.25-1.16,0.28
			s-0.88-0.23-1.49-0.18c-0.4,0.05-0.35,0.3-0.88,0.33c-1.51,0.03-4.82-0.48-5.17-0.28c-2.67,1.44-6.4,0.63-9.81,0.55h-3.55
			c-1.29,0-1.79-0.96-2.22-1.99c-0.38-1.08-0.96-1.59-1.44-2.37c-1.26-2.24-0.91-3.93-0.96-5.75C51.38,98.55,51.81,98.6,52.17,98.42
			"/>
		<path class="st29" d="M65.4,110.35c-1,0-2.02-0.07-3.02-0.15c-0.84-0.06-1.71-0.13-2.53-0.14H56.3c-1.64,0-2.21-1.39-2.56-2.22
			c-0.24-0.7-0.56-1.13-0.9-1.58c-0.17-0.23-0.35-0.46-0.51-0.73c-1.06-1.89-1.04-3.4-1.01-4.87c0.01-0.33,0.01-0.68,0-1.02
			c-0.27-0.95,0.02-1.29,0.54-1.49c0.05-0.02,0.09-0.04,0.14-0.06l0.06-0.03l0.07-0.01c2.92-0.29,5.78-0.29,8.55-0.3
			c1.13,0,2.3-0.01,3.45-0.03c2.21-0.09,4.46,0.17,6.63,0.41c1.04,0.12,2.11,0.24,3.16,0.32c1.94,0.13,3.94,0.02,5.88-0.09
			c0.97-0.05,1.98-0.11,2.96-0.14h0.01h0.01l7.76,0.43l5.32,0.23c0.43,0.03,0.72,0.15,0.9,0.37c0.25,0.3,0.2,0.69,0.17,0.92
			c-0.16,1.62-0.8,2.86-1.42,4.06c-0.25,0.49-0.51,0.99-0.73,1.51l-0.05,0.08c-1.08,1.42-2.17,2.46-3,3.2
			c-0.74,0.74-1.83,0.92-3.22,0.53l-0.05-0.01l-0.04-0.03c-0.38-0.18-3.02-0.09-4.95-0.02c-1.17,0.04-2.39,0.08-3.33,0.08
			l-0.08-0.01c-0.01,0-1.02-0.24-1.72-0.22c-0.3,0-0.36,0.04-0.45,0.09c-0.17,0.09-0.33,0.17-0.7,0.19
			c-0.38,0.01-0.63-0.05-0.86-0.11c-0.21-0.05-0.37-0.09-0.62-0.07c-0.08,0.01-0.1,0.03-0.18,0.08c-0.17,0.12-0.35,0.23-0.71,0.24
			c-0.72,0.01-1.77-0.09-2.79-0.18c-0.84-0.08-1.99-0.18-2.24-0.13C68.52,110.16,66.99,110.35,65.4,110.35 M52.26,98.78
			c-0.05,0.02-0.09,0.04-0.14,0.06c-0.05,0.02-0.15,0.06-0.16,0.08c0,0-0.06,0.11,0.07,0.57l0.01,0.09c0.01,0.37,0,0.74,0,1.1
			c-0.03,1.43-0.05,2.78,0.91,4.48c0.14,0.23,0.3,0.44,0.47,0.67c0.36,0.48,0.73,0.98,1,1.76c0.47,1.13,0.91,1.75,1.87,1.75h3.55
			c0.86,0.02,1.73,0.08,2.58,0.14c2.64,0.19,5.14,0.38,7.06-0.66c0.25-0.14,0.76-0.12,2.63,0.05c0.95,0.09,2.03,0.19,2.7,0.18
			c0.17-0.01,0.22-0.04,0.31-0.11c0.11-0.08,0.26-0.18,0.53-0.22c0.38-0.03,0.64,0.03,0.87,0.09c0.2,0.05,0.38,0.09,0.65,0.08
			c0.22-0.01,0.28-0.04,0.37-0.09c0.18-0.1,0.36-0.19,0.8-0.19c0.71-0.03,1.64,0.18,1.86,0.23c0.93,0,2.12-0.04,3.27-0.08
			c3.25-0.11,4.79-0.13,5.29,0.1c1.11,0.31,1.93,0.18,2.48-0.37c0.81-0.73,1.86-1.73,2.89-3.08c0.23-0.53,0.48-1.03,0.73-1.52
			c0.61-1.19,1.19-2.31,1.34-3.81c0.01-0.12,0.04-0.32-0.01-0.38c-0.03-0.04-0.15-0.09-0.38-0.1l-5.31-0.23l-7.76-0.43
			c-0.97,0.03-1.96,0.08-2.92,0.14c-1.96,0.11-3.98,0.23-5.97,0.09c-1.07-0.08-2.15-0.2-3.19-0.32c-2.14-0.24-4.36-0.49-6.52-0.41
			c-1.17,0.02-2.34,0.02-3.47,0.03C57.95,98.5,55.12,98.5,52.26,98.78"/>
		<path class="st28" d="M93.61,99.66c-4.08-0.1-8.19-0.58-12.28-0.48c-3.58,0.23-7.18,0.4-10.74-0.18
			c-1.94-0.25-3.88-0.45-5.85-0.45c-4.24,0.15-8.47-0.05-12.71,0.18c0.28,0.96,0,2.22,0.13,3.2c0.05,1.49,0.55,2.98,1.56,4.08
			c0.68,0.88,0.81,2.17,1.66,2.92c1.01,0.55,2.19,0.18,3.3,0.28c3.3-0.1,6.71,0.86,9.93-0.12c0.68-0.35,1.44-0.61,2.22-0.43
			c1.41,0.05,2.85,0.45,4.23,0.2c0.81-0.6,1.87,0.3,2.7-0.25c1.34-0.28,2.65,0.35,3.98,0.13c2.32,0,4.71-0.38,7.03,0.05
			c1.03,0.38,2.27,0.05,2.92-0.86c1.31-1.16,2.47-2.49,3.13-4.11c0.63-1.24,1.33-2.75,1.29-4.18
			C95.28,99.56,94.44,99.81,93.61,99.66"/>
		<path class="st28" d="M51.74,98.63c1.24-1.76,5.22-3.25,7.79-4.97l30.23,1.36c2.24,1.16,4.29,2.57,6.35,3.96
			c0.65,0.6,0.33,0.58,0.08,0.58C81.38,99.79,66.56,100.09,51.74,98.63"/>
		<path class="st29" d="M78.74,100.11c-8.99,0-18.06-0.24-27.04-1.12l-0.44-0.09l0.18-0.48c0.84-1.2,2.76-2.22,4.79-3.29
			c1.08-0.57,2.19-1.16,3.1-1.77l0.1-0.07l0.12,0.01l30.31,1.36l0.07,0.04c2.04,1.06,3.94,2.33,5.78,3.57l0.65,0.44
			c0.32,0.3,0.6,0.59,0.47,0.92c-0.12,0.3-0.44,0.3-0.62,0.3h-0.03l-1.8,0.03C89.22,100.03,84,100.11,78.74,100.11 M52.48,98.33
			c13.97,1.33,28.16,1.1,41.89,0.89l1.41-0.02l-0.48-0.33c-1.8-1.21-3.66-2.46-5.64-3.49l-30.03-1.35c-0.92,0.6-2.01,1.18-3.06,1.74
			C55,96.6,53.39,97.45,52.48,98.33"/>
		<path class="st28" d="M89.53,95.5c-9.96-0.45-19.94-0.93-29.9-1.34c-2.24,1.49-4.86,2.37-6.93,4.11
			c3.71,0.28,7.41,0.58,11.14,0.73c10.51,0.45,21.05,0.28,31.59,0.12C93.53,97.82,91.62,96.48,89.53,95.5"/>
		<path class="st30" d="M104.73,57.13c-0.43,5.07-1.87,8.67-3.1,12.58c-2.22,6.23-8.52,11.92-12.96,15.91
			c-0.97,0.97-1.42,2.47-1.12,3.99c-0.8,0.14-1.7,0.48-2.43,0.6c-0.83,0.25-1.49,0.25-2.6,0l-19.16-0.1
			c-0.33-0.26-1.08-0.42-1.83-0.35c0.45-1.64,0.01-3.3-1.04-4.34c-4.44-3.98-10.74-9.68-12.96-15.91c-1.24-3.91-2.67-7.51-3.1-12.58
			c-0.58-3.96-6.61-2.35-5.82,2.37l1.71,7.26c3.49,16.62,12.95,19.9,19.08,25.66c0.04,0.25,0.1,0.53,0.21,0.83
			c-0.4,3.1,1.21,4.66,4.46,4.18l25.06-0.18c0.53-0.1,0.73-1.06,0.71-1.82c-0.06-0.9-0.16-1.77-0.22-2.68
			c6.13-5.86,15.71-9.04,19.23-25.81l1.71-7.26C111.33,54.78,105.31,53.17,104.73,57.13"/>
		<path class="st31" d="M44.12,62.9l0.1,1.59h-0.2c-0.05-0.18-0.15-0.2-0.4-0.2l-1.59,0.1c-0.3,0.03-0.53,0-0.68-0.08
			s-0.28-0.23-0.38-0.43c-0.1-0.2-0.15-0.45-0.18-0.76c-0.03-0.35,0.05-0.66,0.18-0.91c0.13-0.23,0.48-0.35,0.66-0.38
			c0.1,0,0.2,0.03,0.28,0.13c0.08,0.08,0.1,0.2,0.13,0.33c0,0.13-0.02,0.25-0.08,0.33c-0.05,0.1-0.13,0.15-0.23,0.15
			c-0.05,0-0.07,0-0.13-0.03c-0.02,0-0.08-0.02-0.13-0.1c-0.1-0.18-0.28-0.13-0.33-0.08c-0.15,0.1-0.15,0.23-0.15,0.4
			c0,0.1,0.02,0.18,0.05,0.23c0.02,0.05,0.1,0.1,0.18,0.13c0.08,0.02,0.28,0.02,0.63,0l1.74-0.1c0.3,0,0.33-0.1,0.35-0.33h0.18V62.9
			z"/>
		<path class="st31" d="M44.75,65.63l0.38,1.36l-0.08,0.02c-0.02-0.12-0.05-0.18-0.1-0.23c-0.05-0.05-0.07-0.08-0.12-0.08
			s-0.18,0.02-0.35,0.08l-1.56,0.45c-0.28,0.08-0.28,0.1-0.35,0.18c-0.08,0.08-0.13,0.18-0.18,0.28c-0.02,0.13-0.02,0.25,0.02,0.4
			c0.05,0.18,0.13,0.33,0.25,0.43c0.05,0.05,0.12,0.1,0.2,0.13c0.18,0.13,1.56-0.35,2.35-0.53c0.05-0.05,0.08-0.1,0.1-0.15
			c0.02-0.08,0-0.2-0.02-0.33l0.08-0.03l0.28,1.03h-0.1c-0.1-0.23-0.3-0.25-0.58-0.18l-1.21,0.35c-0.38,0.1-0.66,0.18-0.83,0.18
			c-0.18,0-0.38-0.08-0.55-0.23c-0.2-0.15-0.33-0.4-0.43-0.76c-0.08-0.28-0.1-0.5-0.08-0.71c0.05-0.25,0.12-0.43,0.25-0.56
			s0.33-0.25,0.61-0.33l1.56-0.45c0.3-0.08,0.4-0.18,0.4-0.4L44.75,65.63z"/>
		<path class="st31" d="M47.12,71.93l-0.96,0.56l-0.05-0.1c0.23-0.18,0.35-0.4,0.4-0.71c0.05-0.28,0.03-0.53-0.1-0.78
			c-0.1-0.18-0.2-0.3-0.33-0.38c-0.13-0.08-0.25-0.08-0.35-0.02c-0.08,0.02-0.1,0.08-0.15,0.15c-0.05,0.08-0.08,0.2-0.08,0.35
			c0,0.1,0,0.35,0.03,0.71c0.05,0.5,0.02,0.88-0.05,1.11c-0.08,0.23-0.2,0.38-0.4,0.5c-0.25,0.13-0.5,0.13-0.81-0.02
			c-0.28-0.15-0.53-0.4-0.71-0.76c-0.05-0.1-0.1-0.23-0.13-0.33c-0.02-0.1-0.05-0.25-0.07-0.43c-0.03-0.1-0.03-0.18-0.05-0.23
			c-0.02-0.05-0.05-0.08-0.13-0.13c-0.05-0.03-0.13-0.05-0.2-0.05l-0.05-0.1l1.08-0.58l0.05,0.1c-0.28,0.25-0.43,0.53-0.48,0.83
			c-0.05,0.3-0.02,0.58,0.1,0.86c0.1,0.2,0.23,0.33,0.35,0.4c0.15,0.08,0.28,0.08,0.38,0.02c0.08-0.02,0.13-0.1,0.18-0.18
			s0.08-0.18,0.08-0.3c0-0.13,0-0.33-0.02-0.61c-0.03-0.4-0.03-0.68-0.03-0.88c0.03-0.2,0.07-0.35,0.15-0.5
			c0.08-0.13,0.18-0.25,0.3-0.33c0.23-0.13,0.48-0.13,0.73,0c0.28,0.12,0.48,0.35,0.63,0.65c0.05,0.13,0.1,0.23,0.13,0.35
			c0.02,0.1,0.05,0.2,0.05,0.35s0.03,0.25,0.05,0.28c0.02,0.05,0.05,0.08,0.08,0.1s0.1,0,0.2-0.02L47.12,71.93z"/>
		<path class="st31" d="M49.24,75.66l-0.71,0.51l-0.05-0.08c0.13-0.15,0.23-0.3,0.25-0.4c0.03-0.1,0.05-0.23,0.03-0.33
			c0-0.08-0.05-0.18-0.15-0.3l-0.13-0.2l-2.02,1.46c-0.12,0.1-0.2,0.18-0.23,0.2c-0.02,0.03-0.02,0.1-0.02,0.15
			c0,0.08,0.02,0.13,0.07,0.2l0.05,0.1l-0.08,0.05l-0.96-1.44l0.08-0.05l0.05,0.1c0.05,0.08,0.1,0.13,0.18,0.15
			c0.05,0.03,0.1,0.03,0.15,0.03s0.13-0.05,0.25-0.15l2.02-1.46L47.89,74c-0.13-0.18-0.25-0.28-0.38-0.33
			c-0.18-0.05-0.38,0-0.58,0.1l-0.05-0.08l0.71-0.5L49.24,75.66z"/>
		<path class="st31" d="M49.04,80.27l-0.08,0.05l-1.56-1.69l0.08-0.05l0.1,0.1c0.08,0.1,0.18,0.15,0.25,0.2
			c0.05,0.02,0.13,0.02,0.18,0.02s0.12-0.05,0.25-0.18l1.61-1.36c0.13-0.1,0.2-0.18,0.2-0.23c0.03-0.05,0-0.1-0.02-0.18
			s-0.07-0.15-0.18-0.25l-0.1-0.1l0.08-0.05l1.56,1.69l-0.08,0.05l-0.1-0.1c-0.08-0.1-0.18-0.15-0.25-0.2
			c-0.05-0.02-0.13-0.02-0.18-0.02s-0.12,0.05-0.25,0.18l-1.61,1.36c-0.13,0.1-0.2,0.18-0.2,0.23c-0.03,0.05,0,0.1,0.02,0.18
			s0.08,0.15,0.18,0.25L49.04,80.27z"/>
		<path class="st31" d="M54.28,80.63l-0.65,0.98l-0.08-0.05c0.1-0.3,0.13-0.58,0.05-0.83c-0.08-0.25-0.23-0.45-0.43-0.58
			c-0.18-0.13-0.38-0.18-0.58-0.18c-0.23,0-0.4,0.08-0.61,0.18c-0.23,0.15-0.43,0.35-0.6,0.63c-0.18,0.25-0.3,0.5-0.38,0.76
			c-0.08,0.25-0.08,0.48-0.02,0.68c0.08,0.2,0.2,0.38,0.43,0.53c0.18,0.13,0.38,0.2,0.58,0.2c0.2,0.02,0.45,0,0.73-0.1l-0.18,0.25
			c-0.28,0.05-0.53,0.08-0.73,0.03c-0.23-0.05-0.45-0.15-0.68-0.3c-0.3-0.2-0.53-0.45-0.68-0.73s-0.23-0.58-0.2-0.88
			c0.02-0.3,0.12-0.6,0.3-0.86c0.18-0.28,0.43-0.48,0.73-0.63c0.3-0.15,0.63-0.2,0.96-0.18s0.63,0.13,0.91,0.3
			c0.2,0.13,0.38,0.33,0.56,0.55c0.1,0.13,0.15,0.23,0.2,0.25c0.05,0.03,0.1,0.05,0.15,0.03c0.05,0,0.1-0.05,0.18-0.13L54.28,80.63z
			"/>
		<path class="st31" d="M56.07,82.97l-0.88,1.01l0.05,0.05c0.18,0.15,0.38,0.23,0.53,0.2c0.18-0.02,0.35-0.13,0.55-0.3l0.08,0.08
			l-1.14,1.31l-0.08-0.08c0.1-0.15,0.18-0.3,0.2-0.45c0.03-0.15,0-0.25-0.02-0.35c-0.05-0.1-0.15-0.2-0.28-0.33l-0.61,0.71
			c-0.12,0.13-0.18,0.23-0.2,0.28c-0.02,0.05,0,0.1,0,0.15c0.03,0.05,0.08,0.13,0.15,0.18l0.18,0.15c0.28,0.25,0.55,0.38,0.81,0.4
			c0.25,0.03,0.53-0.02,0.78-0.18l0.07,0.08l-0.83,0.68l-2.57-2.22l0.05-0.08l0.1,0.08c0.08,0.08,0.18,0.13,0.25,0.15
			c0.05,0.03,0.1,0,0.18-0.03c0.05-0.03,0.13-0.08,0.23-0.2l1.44-1.64c0.1-0.1,0.15-0.18,0.18-0.23c0.03-0.05,0.03-0.1,0-0.18
			c-0.02-0.08-0.07-0.18-0.18-0.25l-0.1-0.08l0.05-0.08l2.49,2.14l-0.63,0.73l-0.07-0.08c0.13-0.23,0.18-0.4,0.15-0.55
			c0-0.15-0.08-0.3-0.18-0.45c-0.05-0.1-0.2-0.23-0.43-0.43L56.07,82.97z"/>
		<path class="st31" d="M93.36,83.5l0.58,0.66l-0.07,0.05c-0.18-0.13-0.3-0.2-0.43-0.23c-0.1-0.02-0.23-0.02-0.33,0
			c-0.08,0.03-0.15,0.08-0.28,0.18l-0.2,0.15l1.64,1.89c0.1,0.13,0.18,0.2,0.23,0.23c0.05,0.02,0.1,0.02,0.15,0.02
			s0.13-0.05,0.2-0.1l0.08-0.07l0.05,0.07l-1.34,1.06l-0.05-0.08l0.07-0.08c0.08-0.05,0.13-0.13,0.15-0.18s0.02-0.1,0-0.15
			c0-0.05-0.08-0.13-0.18-0.25l-1.64-1.89l-0.18,0.15c-0.18,0.13-0.28,0.28-0.28,0.4c-0.03,0.18,0.02,0.38,0.15,0.58l-0.08,0.05
			l-0.58-0.65L93.36,83.5z"/>
		<path class="st31" d="M105.28,70.79l-0.48,1.13l0.25,0.28c0.08,0.08,0.15,0.15,0.23,0.18c0.1,0.03,0.18,0.03,0.25-0.02
			c0.05-0.03,0.1-0.13,0.18-0.3l0.08,0.02l-0.53,1.29l-0.08-0.02c0-0.13,0.05-0.2-0.02-0.35c-0.08-0.15-0.18-0.28-0.38-0.48
			l-1.84-1.99l0.23-0.53l2.77-0.03c0.3,0,0.5-0.03,0.58-0.08c0.08-0.02,0.13-0.1,0.18-0.2l0.08,0.02l-0.66,1.56l-0.08-0.02
			l0.02-0.08c0.05-0.13,0.08-0.23,0.05-0.28c0-0.05-0.05-0.08-0.08-0.1c-0.02,0-0.05-0.03-0.1-0.03h-0.2L105.28,70.79z
			 M105.08,70.82l-1.31,0.03l0.91,0.96L105.08,70.82z"/>
		<path class="st31" d="M100.85,79.09l-0.81,0.96l0.18,0.33c0.05,0.1,0.1,0.18,0.18,0.23c0.08,0.07,0.15,0.07,0.25,0.05
			c0.05-0.02,0.15-0.1,0.28-0.23l0.08,0.05l-0.91,1.06l-0.07-0.05c0.02-0.12,0.1-0.18,0.07-0.33c-0.02-0.18-0.07-0.3-0.2-0.58
			l-1.16-2.45l0.35-0.43l2.65,0.81c0.28,0.08,0.48,0.13,0.58,0.1c0.08,0,0.15-0.05,0.23-0.13l0.08,0.05l-1.08,1.29l-0.08-0.05
			l0.05-0.05c0.08-0.1,0.13-0.2,0.15-0.25c0-0.05-0.03-0.08-0.05-0.13c-0.02-0.03-0.05-0.03-0.07-0.05c-0.03,0-0.08-0.02-0.2-0.08
			L100.85,79.09z M100.64,79.01l-1.26-0.38l0.58,1.18L100.64,79.01z"/>
		<path class="st31" d="M104.15,67.92l-0.08-0.02l0.68-2.22l0.08,0.03l-0.05,0.15c-0.02,0.13-0.05,0.23-0.05,0.3
			c0,0.05,0.03,0.12,0.08,0.15c0.03,0.03,0.13,0.08,0.28,0.13l1.99,0.71c0.15,0.05,0.25,0.08,0.3,0.08s0.1-0.05,0.15-0.1
			c0.05-0.05,0.1-0.15,0.13-0.28l0.05-0.15l0.07,0.03l-0.68,2.22l-0.08-0.03l0.05-0.15c0.03-0.13,0.05-0.23,0.05-0.3
			c0-0.05-0.02-0.13-0.08-0.18c-0.02-0.03-0.12-0.08-0.28-0.13l-1.99-0.71c-0.15-0.05-0.25-0.08-0.3-0.08s-0.1,0.05-0.15,0.1
			c-0.05,0.05-0.1,0.15-0.13,0.28L104.15,67.92z"/>
		<path class="st31" d="M96.64,82.84l0.63,0.7c0.13,0.13,0.2,0.23,0.25,0.23c0.05,0.02,0.1,0.02,0.15,0
			c0.05-0.03,0.15-0.08,0.25-0.18l0.05,0.08l-1.29,1.13l-0.05-0.08c0.13-0.1,0.18-0.18,0.2-0.25c0.02-0.05,0.02-0.1,0.02-0.15
			s-0.07-0.15-0.2-0.28l-1.44-1.64c-0.13-0.13-0.2-0.23-0.25-0.23c-0.05-0.02-0.1-0.02-0.15,0c-0.05,0.03-0.15,0.08-0.25,0.18
			l-0.05-0.07l1.16-1.03c0.3-0.28,0.56-0.45,0.73-0.53c0.18-0.07,0.35-0.1,0.55-0.07c0.18,0.02,0.35,0.13,0.48,0.28
			c0.15,0.18,0.23,0.4,0.2,0.63c-0.02,0.15-0.07,0.3-0.2,0.48l1.36,0.33c0.18,0.05,0.3,0.05,0.35,0.05c0.08,0,0.15-0.02,0.23-0.1
			l0.05,0.08l-0.78,0.71l-1.82-0.43L96.64,82.84z M95.55,81.61l0.96,1.11l0.1-0.1c0.18-0.15,0.28-0.28,0.35-0.38
			c0.05-0.1,0.08-0.23,0.05-0.35c-0.02-0.12-0.1-0.25-0.2-0.38c-0.18-0.2-0.33-0.3-0.51-0.3c-0.18-0.03-0.35,0.08-0.55,0.25
			L95.55,81.61z"/>
		<path class="st31" d="M102.26,72.76l0.08,0.05c-0.05,0.13-0.05,0.25,0,0.4c0.05,0.1,0.15,0.3,0.38,0.61l1.56,2.17l-0.18,0.33
			l-2.77-0.35c-0.38-0.05-0.61-0.08-0.68-0.05c-0.08,0.02-0.15,0.08-0.25,0.18l-0.07-0.05l0.88-1.49l0.08,0.05l-0.03,0.05
			c-0.08,0.13-0.13,0.23-0.1,0.3c0,0.05,0.02,0.08,0.08,0.1c0.02,0.03,0.08,0.03,0.1,0.05c0.05,0,0.18,0.03,0.38,0.05l1.92,0.25
			L102.63,74c-0.13-0.18-0.2-0.28-0.25-0.33s-0.1-0.08-0.13-0.1c-0.05-0.02-0.1-0.05-0.15-0.02c-0.05,0-0.1,0.02-0.15,0.05
			c-0.08,0.05-0.13,0.13-0.2,0.23l-0.07-0.05L102.26,72.76z"/>
		<path class="st31" d="M107.8,62.4l1.06,0.4l-0.68,2.85l-0.08-0.02l0.03-0.1c0.02-0.1,0.02-0.18,0-0.23c0-0.05-0.05-0.08-0.08-0.12
			c-0.03-0.03-0.13-0.05-0.28-0.1l-2.02-0.53c-0.15-0.05-0.25-0.05-0.3-0.05s-0.08,0.02-0.12,0.08c-0.05,0.05-0.08,0.1-0.1,0.2
			l-0.03,0.1l-0.13-0.02l0.4-1.71l0.08,0.02l-0.03,0.15c-0.02,0.1-0.02,0.18,0,0.23c0,0.05,0.05,0.1,0.08,0.13s0.13,0.05,0.28,0.1
			l1.97,0.51c0.15,0.05,0.25,0.05,0.3,0.05s0.1-0.02,0.13-0.08c0.03-0.03,0.05-0.13,0.1-0.28l0.08-0.28
			c0.05-0.18,0.05-0.33,0.02-0.45c-0.02-0.13-0.1-0.25-0.2-0.38s-0.28-0.25-0.5-0.38L107.8,62.4z"/>
		<path class="st31" d="M65.78,94.42c0.05,0.35,0.02,0.35,0.4,0.4v0.2h-1.69v-0.23c0.4,0.02,0.4-0.02,0.43-0.38v-2.07
			c0-0.18,0-0.28-0.03-0.33c-0.08-0.08-0.2-0.05-0.3-0.05v-0.18h1.46c0.53,0,0.93,0.08,1.16,0.25c0.23,0.15,0.35,0.38,0.35,0.61
			c0,0.2-0.08,0.38-0.23,0.53s-0.35,0.25-0.63,0.3c-0.18,0.03-0.48,0.05-0.91,0.05L65.78,94.42z M65.78,91.97v1.36
			c0.15,0.02,0.28,0,0.4-0.02c0.1-0.03,0.18-0.08,0.25-0.13c0.13-0.13,0.18-0.28,0.18-0.53c0-0.23-0.05-0.4-0.18-0.53
			c-0.12-0.1-0.3-0.18-0.55-0.18L65.78,91.97z"/>
		<path class="st31" d="M71.7,93.96h-1.24l-0.15,0.35c-0.05,0.12-0.08,0.2-0.08,0.28c0,0.1,0.05,0.18,0.12,0.23
			c0.05,0.03,0.15,0.05,0.35,0.05v0.1h-1.39v-0.1c0.13-0.05,0.2-0.02,0.3-0.15c0.13-0.13,0.18-0.25,0.3-0.53l1.13-2.47h0.56
			l1.08,2.55c0.13,0.28,0.23,0.45,0.3,0.5c0.05,0.05,0.15,0.08,0.25,0.1v0.1h-1.69v-0.1h0.08c0.13,0,0.23-0.02,0.28-0.05
			c0.05-0.02,0.05-0.08,0.05-0.12c0-0.02,0-0.05-0.03-0.1c0-0.02-0.03-0.08-0.08-0.2L71.7,93.96z M71.63,93.79l-0.53-1.21
			l-0.53,1.21H71.63z"/>
		<path class="st31" d="M81.23,93.1l0.86,1.26c0.15,0.23,0.25,0.35,0.33,0.4s0.15,0.08,0.23,0.08v0.1h-1.61v-0.1
			c0.12,0,0.2-0.02,0.25-0.05c0.02-0.03,0.05-0.08,0.05-0.1c0-0.03,0-0.05-0.03-0.08c-0.02-0.05-0.08-0.15-0.18-0.28L80.7,93.7
			l-0.78,0.91c-0.02,0.05-0.02,0.1,0.05,0.15c0.05,0.03,0.1,0.05,0.18,0.08c0.03,0,0.1,0.02,0.2,0.02v0.1h-1.29v-0.1
			c0.15-0.02,0.25-0.05,0.35-0.12c0.1-0.08,0.25-0.23,0.45-0.48l0.65-0.81l-0.86-1.24c-0.15-0.2-0.23-0.33-0.23-0.35
			c-0.05-0.05-0.08-0.1-0.13-0.12c-0.05-0.02-0.1-0.05-0.18-0.05v-0.1h1.64v0.1h-0.08c-0.1,0-0.15,0.03-0.2,0.05
			c-0.03,0.02-0.05,0.08-0.05,0.12c0,0.03,0,0.08,0.03,0.1l0.18,0.25l0.4,0.63l0.35-0.43c0.18-0.23,0.28-0.38,0.28-0.45
			c0-0.05-0.03-0.08-0.05-0.13c-0.03-0.02-0.05-0.08-0.1-0.1c-0.05-0.02-0.12-0.02-0.23-0.02v-0.1h1.24v0.1c-0.1,0-0.18,0-0.3,0.08
			L81.23,93.1z"/>
		<path class="st31" d="M77.1,94.89v0.08l-2.32,0.02v-0.08h0.15c0.13,0,0.23-0.03,0.3-0.05c0.05-0.03,0.1-0.05,0.13-0.13
			c0.02-0.05,0.05-0.12,0.05-0.3l0.1-2.12c0-0.15,0-0.28-0.02-0.3c-0.02-0.05-0.08-0.07-0.15-0.1c-0.08-0.03-0.18-0.05-0.3-0.05
			h-0.15v-0.08l2.32-0.02v0.07h-0.15c-0.13,0-0.23,0.03-0.3,0.05c-0.05,0.03-0.1,0.05-0.13,0.13c-0.03,0.05-0.05,0.13-0.05,0.3
			l-0.1,2.12c0,0.15,0,0.28,0.02,0.3c0.03,0.05,0.07,0.08,0.15,0.1c0.08,0.03,0.18,0.05,0.3,0.05L77.1,94.89L77.1,94.89z"/>
		<path class="st32" d="M82.59,56.55c0.81-1.01,1.84-1.84,3.05-2.65c2.07-1.18,3.6-0.55,2.87,3.83c-0.48,1.31-1.21,2.19-1.99,2.87
			l0.1,0.28l-0.73,0.71c-0.7,0.78-0.18,1.36,0.15,1.94c1.26,2.62,0,4.29-1.21,5.5l-2.27,1.82c-0.4,0.58-0.55,1.21-0.66,1.84
			c-0.15,0.76-1.06,1.66-1.66,2.77c-0.38,0.88-0.25,1.69-0.43,2.77c-0.98,3.18-3.98,2.75-5.47,2.8c-1.46-0.05-4.49,0.38-5.47-2.8
			c-0.18-1.08-0.05-1.89-0.43-2.77c-0.61-1.11-1.51-2.04-1.66-2.77c-0.1-0.63-0.25-1.26-0.65-1.84l-2.27-1.82
			c-1.18-1.21-2.47-2.88-1.21-5.5c0.33-0.58,0.83-1.16,0.15-1.94l-0.73-0.71l0.1-0.28c-0.78-0.68-1.51-1.54-1.99-2.87
			c-0.73-4.39,0.78-5.02,2.87-3.83c1.21,0.78,2.24,1.61,3.05,2.65l-1.06-1.18c1.44-1.11,3.81-1.59,5.57-2.12
			c2.95-2.6,4.74-2.55,7.66,0.07c1.84,0.53,3.98,1.11,5.37,2.09L82.59,56.55z"/>
		<path class="st33" d="M74.38,51.81h-0.13c-1.44,0.08-2.47,1.21-3.6,1.92c-1.66,0.51-3.38,0.83-4.89,1.74
			c0.53,0.48,1.01,1.08,0.96,1.84c-1.31-0.35-3.55-1.94-4.36-1.08c-0.78,0.81-0.2,2.62,0.03,3.15c0.15,0.38,0.25,1.03,0.35,1.14
			c-0.3,0.6,0.73,0.76,0.81,1.34c0.48,1.11-0.71,1.99-0.81,3.05c-0.43,1.87,0.93,3.53,2.37,4.54c0.91,0.65,1.96,1.41,2.07,2.62
			c0.1,0.88,0.63,1.61,1.16,2.27c0.68,0.91,1.03,2.04,0.93,3.18c0.07,1.49,1.26,2.85,2.77,2.98c1.59,0.23,3.2,0.12,4.82,0
			c1.46-0.25,2.67-1.56,2.6-3.1c0.03-1.14,0.28-2.32,1.06-3.18c0.55-0.71,1.06-1.51,1.11-2.45c0.23-1.06,1.11-1.77,1.96-2.3
			c1.39-1.01,2.77-2.6,2.45-4.44c-0.1-1.01-1.06-1.82-0.96-2.85c0.08-0.63,0.68-1.03,0.98-1.49c0.02-0.2,0.3-0.86,0.35-1.31
			c0.13-1.03,0.83-2.5-0.08-3.15c-1.44-1.06-2.95,0.81-4.31,1.03c-0.1-0.73,0.4-1.26,0.88-1.74c-1.51-0.91-3.3-1.24-4.94-1.84
			C76.95,52.79,75.79,51.81,74.38,51.81"/>
		<path class="st34" d="M76.34,78.31c-0.65,0-1.21-0.35-1.76-0.63c-0.91,0.08-1.69,0.98-2.65,0.58c-1.41-0.4-1.79-2.09-1.89-3.35
			c-0.1-1.44-0.25-3.2-1.64-4.03c-0.53-0.4-0.61-1.49,0.2-1.61c1.34-0.18,2.62,0.61,3.96,0.28c0.7-0.08,1.26-0.55,1.86-0.81
			c0.71,0.25,1.31,0.83,2.12,0.83c1.29,0.18,2.52-0.45,3.81-0.33c0.73,0.23,0.68,1.31,0.08,1.64c-0.86,0.63-1.34,1.61-1.41,2.65
			c-0.08,0.58-0.13,1.24-0.33,2.4C78.26,77.45,77.48,78.43,76.34,78.31 M81.76,57.96c-0.61-0.18-0.48-1.01-0.35-1.49
			c0.05-0.28,0.33-0.6,0.33-0.81c-1.69-0.81-3.81-0.86-5.19-2.27c-0.65-0.5-1.41-0.93-2.27-0.91c-1.76,0.18-2.8,2.07-4.59,2.22
			c-0.91,0.28-2.02,0.5-2.77,0.96c0.5,0.71,0.66,1.61,0.4,2.45c-1.66-0.03-4.18-2.72-4.66-1.41c-0.43,1.11,0.48,2.45,1.01,3.63
			c-0.53,0.3,0.08,0.48,0.28,0.71c0.83,1.03,0.23,2.42-0.35,3.43c-0.73,1.49,0.33,3.18,1.51,4.08c1.31,0.83,2.75,2.02,2.8,3.71
			c0.53,1.46,1.99,2.52,1.99,4.16c0.05,1.11,0.1,2.52,1.29,3.03c1.49,0.71,3.18,0.38,4.74,0.4c1.23,0,2.57-0.71,2.77-2.02
			c0.08-0.45,0.15-0.88,0.5-2.32c0.35-1.46,1.59-2.37,1.74-3.83c0.18-1.06,0.91-1.89,1.77-2.47c1.26-0.91,2.77-2.07,2.65-3.81
			c0.03-1.16-1.13-1.99-0.96-3.18c0-0.76,0.83-1.16,0.98-1.84c0.35-1.54,0.93-2.98,0.35-3.43C84.81,56.22,83.33,57.96,81.76,57.96"
			/>
		<path class="st35" d="M74.35,53.42c-1.67,0.35-2.72,2.09-4.46,2.22c-0.55,0.2-1.16,0.25-1.71,0.51c0.3,0.93,0.23,1.99-0.18,2.87
			c-1.89,0.33-2.82-0.18-3.61-0.96c-0.81-0.78-0.78-0.68-1.18-0.88c-0.28,0.33,0,1.76,1.31,2.7c0.18,0.35,0.13,0.76,0.43,1.03
			c0.71,1.34,0.1,2.88-0.58,4.08c-0.38,1.34,0.78,2.52,1.84,3.18c0.45,0.33,0.88,0.71,1.29,1.11c0.38-0.93,1.51-1.13,2.39-0.93
			c1.26,0.15,2.77,0.73,3.86-0.2c0.68-0.43,1.64-0.38,2.22,0.2c1.71,0.96,3.68-0.71,5.39,0.25c0.23,0.18,0.38,0.35,0.58,0.02
			c1.01-0.81,2.52-1.64,2.52-3.13c-0.18-1.28-1.39-2.44-0.91-3.81c0.48-2.14,2.22-2.98,1.54-3.91c-0.63-0.86-1.21,1.01-3.12,1.11
			c-1.01,0.02-1.74-1.03-1.54-1.99c-0.05-0.3,0.4-0.83-0.18-0.81c-1.74-0.48-3.48-1.13-4.84-2.37
			C75.06,53.55,74.7,53.42,74.35,53.42 M79.97,59.2c0.88,0.03,2.14,0,2.49,1.03c0.18,0.96-0.88,1.36-1.56,1.71
			c-0.91,0.76-2.04,1.76-3.33,1.39c-1.34-0.23-2.12-2.09-1.06-3.05C77.35,59.3,78.79,59.25,79.97,59.2 M68.8,59.22
			c1.39-0.03,3.15,0.25,3.76,1.69c0.58,1.39-1.01,2.8-2.37,2.52c-1.41-0.2-2.19-1.61-3.51-2.02c-0.71-0.48-0.6-1.74,0.28-1.94
			C67.57,59.22,68.2,59.27,68.8,59.22 M74.65,78.68c-0.25,0.08-0.48,0.2-0.71,0.3c0.4-0.02,1.06,0,1.29-0.07
			C75.03,78.86,74.85,78.71,74.65,78.68"/>
		<path class="st36" d="M74.3,55.47c-1.18,0.65-2.37,1.64-3.65,1.99c1.59,0.3,3.13,1.31,3.71,2.87c0.53-1.66,2.19-2.7,3.86-2.87
			C76.82,57.03,75.59,56.12,74.3,55.47 M74.35,62.68c-0.78,2.19-3.71,3.43-5.75,2.14c-0.61-0.28-1.16-0.83-1.69-1.08
			c-0.2,0.7-0.71,1.36-0.61,2.12c0.33,0.38,0.78,0.91,1.26,0.91c1.49-0.65,3.13-0.08,4.64,0.02c1.14-0.48,2.47-1.21,3.68-0.53
			c0.76,0.35,1.61,0.78,2.47,0.4c1.04-0.2,2.12-0.28,3.13-0.05c0.5-0.3,1.33-0.86,0.81-1.51c-0.2-0.45-0.38-0.91-0.53-1.39
			c-1.23,0.98-2.75,1.89-4.39,1.54C76.04,65.02,74.8,63.99,74.35,62.68"/>
		<path class="st17" d="M73.24,60.71c0.43,0,0.86,1.29,0.08,1.44C73.22,62.12,73.19,60.86,73.24,60.71"/>
		<path class="st17" d="M73.31,62.27l-0.03-0.01c-0.03-0.01-0.07-0.02-0.1-0.08c-0.11-0.2-0.12-1.35-0.07-1.52l0.03-0.08h0.09
			c0.32,0,0.59,0.46,0.63,0.87c0.04,0.43-0.16,0.74-0.53,0.81L73.31,62.27z M73.34,60.87c-0.02,0.28,0,0.9,0.05,1.12
			c0.24-0.1,0.25-0.36,0.24-0.52C73.6,61.21,73.47,60.97,73.34,60.87"/>
		<path class="st17" d="M71.3,68.37c-0.13,0.1-0.1,0.23,0,0.35c0.1,0.13,0.28,0.15,0.4,0.05c0.13-0.1,0.13-0.2,0.03-0.35
			C71.63,68.27,71.43,68.25,71.3,68.37"/>
		<path class="st17" d="M71.53,68.92c-0.02,0-0.03,0-0.05,0c-0.1-0.01-0.18-0.06-0.25-0.14c-0.06-0.08-0.1-0.16-0.1-0.23
			c0-0.06,0.01-0.15,0.11-0.23c0.08-0.07,0.18-0.11,0.28-0.1c0.11,0.01,0.21,0.07,0.27,0.17c0.08,0.12,0.16,0.3-0.04,0.46
			C71.69,68.89,71.61,68.92,71.53,68.92 M71.49,68.37c-0.05,0-0.1,0.02-0.14,0.06l-0.01,0.01c-0.05,0.04-0.06,0.08-0.06,0.1
			c0,0.04,0.03,0.09,0.07,0.14c0.04,0.05,0.09,0.07,0.14,0.08c0.05,0.01,0.11-0.01,0.15-0.04c0.08-0.06,0.1-0.11,0.01-0.25
			c-0.04-0.05-0.09-0.09-0.15-0.09L71.49,68.37z"/>
		<path class="st17" d="M70.8,66.15c-0.13,0.1-0.1,0.23,0,0.35c0.1,0.13,0.28,0.15,0.4,0.05c0.13-0.1,0.13-0.2,0.03-0.35
			C71.12,66.1,70.92,66.05,70.8,66.15"/>
		<path class="st17" d="M71.02,66.7c-0.11,0-0.21-0.05-0.29-0.14c-0.2-0.25-0.06-0.41,0.01-0.46l0,0c0.16-0.13,0.4-0.07,0.53,0.06
			c0.09,0.13,0.17,0.31-0.03,0.47C71.18,66.67,71.1,66.7,71.02,66.7 M70.85,66.22c-0.05,0.04-0.06,0.08-0.06,0.1
			c0,0.04,0.02,0.09,0.07,0.14c0.07,0.09,0.2,0.11,0.29,0.04c0.08-0.06,0.1-0.11,0.01-0.25C71.09,66.18,70.93,66.15,70.85,66.22"/>
		<path class="st17" d="M71.98,66.96c0.18-0.18,0.65,0.51,0.5,0.61C72.31,67.54,72.11,67.42,71.98,66.96"/>
		<path class="st17" d="M72.5,67.63h-0.02c-0.26-0.04-0.44-0.26-0.55-0.65l-0.01-0.03l0.02-0.03c0.05-0.05,0.11-0.06,0.18-0.03
			c0.19,0.06,0.43,0.4,0.45,0.58c0.01,0.09-0.02,0.13-0.05,0.15L72.5,67.63z M72.05,66.99c0.09,0.3,0.22,0.47,0.4,0.51
			c0-0.07-0.11-0.3-0.27-0.44C72.16,67.04,72.1,66.99,72.05,66.99L72.05,66.99z"/>
		<path class="st17" d="M70.67,65.17c0.18-0.18,0.71,0.28,0.55,0.38C71.05,65.52,70.8,65.63,70.67,65.17"/>
		<path class="st17" d="M71.24,65.61h-0.02c-0.03,0-0.06-0.01-0.1-0.01c-0.17,0-0.39,0-0.51-0.42l-0.01-0.03l0.03-0.02
			c0.04-0.04,0.12-0.08,0.27-0.04c0.17,0.06,0.39,0.24,0.41,0.39c0.01,0.05-0.01,0.09-0.05,0.12L71.24,65.61z M70.74,65.2
			c0.09,0.29,0.23,0.29,0.38,0.29c0.02,0,0.05,0,0.07,0c-0.01-0.04-0.09-0.15-0.24-0.24C70.88,65.21,70.79,65.18,70.74,65.2"/>
		<path class="st17" d="M71.91,67.54c-0.08-0.2-0.4-0.35-0.53-0.18c-0.12,0.18,0.05,0.63,0.23,0.63
			C71.78,68,71.98,67.74,71.91,67.54"/>
		<path class="st17" d="M71.6,68.08c-0.1,0-0.2-0.08-0.27-0.22c-0.08-0.16-0.13-0.4-0.03-0.54c0.06-0.08,0.16-0.13,0.28-0.11
			c0.17,0.02,0.34,0.15,0.4,0.31c0.04,0.12,0.02,0.25-0.06,0.38C71.84,68.01,71.72,68.08,71.6,68.08 M71.54,67.37
			c-0.04,0-0.07,0.01-0.09,0.04c-0.05,0.07-0.03,0.23,0.04,0.37c0.05,0.09,0.1,0.13,0.12,0.13c0.06,0,0.13-0.05,0.18-0.12
			s0.07-0.16,0.04-0.22c-0.04-0.1-0.15-0.18-0.26-0.2C71.56,67.37,71.55,67.37,71.54,67.37"/>
		<path class="st17" d="M72.64,68.27c-0.05-0.15-0.33-0.28-0.43-0.13s0.03,0.5,0.18,0.53C72.53,68.68,72.69,68.42,72.64,68.27"/>
		<path class="st17" d="M72.38,68.74c-0.1-0.02-0.18-0.09-0.23-0.22c-0.05-0.12-0.08-0.3,0-0.42c0.05-0.07,0.14-0.11,0.24-0.1
			c0.14,0.02,0.28,0.12,0.32,0.24c0.03,0.1,0,0.24-0.08,0.35C72.56,68.69,72.47,68.74,72.38,68.74 M72.34,68.15
			c-0.04,0-0.06,0.01-0.08,0.04c-0.04,0.06-0.03,0.18,0.02,0.29c0.04,0.09,0.09,0.13,0.12,0.14c0.03,0,0.08-0.04,0.12-0.09
			c0.05-0.07,0.08-0.17,0.06-0.22c-0.02-0.07-0.12-0.14-0.2-0.15C72.36,68.15,72.35,68.15,72.34,68.15"/>
		<path class="st17" d="M70.27,65.6c-0.05-0.13-0.28-0.23-0.35-0.13c-0.08,0.13,0.02,0.43,0.15,0.43
			C70.19,65.93,70.32,65.73,70.27,65.6"/>
		<path class="st17" d="M70.09,65.96c-0.01,0-0.02,0-0.03,0l0,0c-0.05,0-0.11-0.04-0.15-0.12c-0.06-0.11-0.1-0.28-0.03-0.39
			c0.04-0.05,0.1-0.08,0.18-0.07c0.1,0.01,0.23,0.09,0.28,0.2c0.04,0.1,0,0.22-0.06,0.29C70.21,65.93,70.15,65.96,70.09,65.96
			 M70.01,65.49c-0.02,0-0.04,0-0.05,0.02c-0.03,0.05-0.01,0.18,0.04,0.27c0.03,0.05,0.05,0.07,0.07,0.07
			c0.04,0.01,0.07-0.01,0.1-0.05c0.04-0.05,0.07-0.13,0.05-0.18c-0.02-0.06-0.11-0.12-0.19-0.13
			C70.02,65.49,70.01,65.49,70.01,65.49"/>
		<path class="st17" d="M70.09,66.38c-0.13,0.15-0.08,0.48,0.13,0.48s0.45-0.33,0.38-0.48C70.52,66.23,70.22,66.23,70.09,66.38"/>
		<path class="st17" d="M70.22,66.94c-0.1,0-0.18-0.06-0.23-0.16c-0.07-0.14-0.05-0.33,0.05-0.45c0.08-0.1,0.23-0.15,0.38-0.14
			c0.12,0.01,0.21,0.07,0.25,0.15s0.02,0.2-0.05,0.32C70.53,66.8,70.37,66.94,70.22,66.94 M70.36,66.34c-0.08,0-0.17,0.03-0.21,0.09
			c-0.06,0.07-0.07,0.2-0.03,0.28c0.07,0.14,0.25,0.04,0.36-0.13c0.05-0.08,0.06-0.14,0.04-0.17c-0.02-0.04-0.07-0.06-0.13-0.07
			C70.38,66.35,70.37,66.34,70.36,66.34"/>
		<path class="st17" d="M70.69,67.16c0.2-0.13,0.6,0.48,0.4,0.53C70.95,67.62,70.69,67.64,70.69,67.16"/>
		<path class="st17" d="M71.09,67.76l-0.02-0.01c-0.02-0.01-0.05-0.02-0.08-0.03c-0.15-0.05-0.35-0.12-0.35-0.55v-0.03l0.03-0.02
			c0.04-0.02,0.13-0.05,0.25,0.03c0.15,0.1,0.32,0.36,0.3,0.5c-0.01,0.05-0.05,0.09-0.1,0.11H71.09z M70.76,67.21
			c0.01,0.31,0.14,0.35,0.27,0.4c0.02,0.01,0.04,0.01,0.06,0.02c0.01-0.1-0.11-0.29-0.24-0.38C70.83,67.23,70.79,67.21,70.76,67.21
			L70.76,67.21z"/>
		<path class="st17" d="M71.48,64.14c0.3-0.35,1.61,0.61,1.51,0.96C72.79,65.3,71.38,64.49,71.48,64.14"/>
		<path class="st17" d="M72.88,65.25c-0.25,0-0.62-0.2-0.79-0.3c-0.25-0.15-0.82-0.53-0.73-0.85l0.02-0.04
			c0.15-0.18,0.45-0.16,0.84,0.05c0.41,0.22,0.97,0.7,0.88,1.02l-0.01,0.03l-0.02,0.02C73.03,65.23,72.96,65.25,72.88,65.25
			 M71.6,64.2c0.01,0.04,0.06,0.12,0.18,0.23c0.35,0.32,0.9,0.56,1.08,0.58c-0.06-0.14-0.34-0.46-0.75-0.68
			C71.85,64.19,71.67,64.16,71.6,64.2"/>
		<path class="st17" d="M72.31,63.18c0.4-0.25,1.18,0.93,1.21,1.31C73.09,64.34,72.11,63.48,72.31,63.18"/>
		<path class="st17" d="M73.65,64.67l-0.17-0.06c-0.37-0.13-1.15-0.77-1.29-1.19c-0.05-0.15-0.01-0.25,0.02-0.3l0.04-0.04
			c0.08-0.05,0.22-0.09,0.42,0.01c0.45,0.23,0.95,1.06,0.98,1.4V64.67z M72.4,63.27c0,0.02,0,0.04,0.01,0.07
			c0.08,0.26,0.55,0.69,0.9,0.92c-0.15-0.33-0.49-0.81-0.76-0.95C72.48,63.26,72.43,63.26,72.4,63.27"/>
		<path class="st17" d="M73.57,62.73c0.3,0.03,0.33,0.96,0.08,1.08C73.37,63.79,73.24,62.85,73.57,62.73"/>
		<path class="st17" d="M73.67,63.94h-0.04c-0.22-0.02-0.33-0.3-0.37-0.56c-0.04-0.29,0-0.66,0.26-0.76l0.03-0.01h0.03
			c0.17,0.01,0.29,0.17,0.33,0.43c0.06,0.29,0.03,0.77-0.21,0.89L73.67,63.94z M73.58,62.86c-0.07,0.07-0.11,0.27-0.08,0.48
			c0.02,0.18,0.08,0.28,0.12,0.33c0.06-0.1,0.1-0.34,0.05-0.58C73.65,62.96,73.61,62.89,73.58,62.86"/>
		<path class="st17" d="M68.4,56.5c-0.28-0.1-0.86,0.53-0.76,0.81c0.1,0.28,0.96,0.55,1.13,0.35C68.98,57.46,68.68,56.57,68.4,56.5"
			/>
		<path class="st17" d="M68.56,57.85c-0.07,0-0.15-0.01-0.21-0.02c-0.26-0.05-0.72-0.22-0.82-0.48c-0.08-0.22,0.11-0.52,0.3-0.71
			c0.22-0.22,0.44-0.31,0.61-0.26c0.25,0.07,0.42,0.48,0.48,0.72c0.05,0.17,0.1,0.49-0.05,0.64C68.8,57.82,68.68,57.85,68.56,57.85
			 M68.34,56.61c-0.06,0-0.19,0.06-0.34,0.2c-0.18,0.18-0.27,0.38-0.24,0.45c0.04,0.1,0.32,0.27,0.63,0.33
			c0.19,0.03,0.28,0.01,0.3-0.01c0.04-0.04,0.06-0.17-0.01-0.41c-0.08-0.31-0.24-0.53-0.31-0.55h-0.01
			C68.35,56.61,68.35,56.61,68.34,56.61"/>
		<path class="st17" d="M66.74,58.39c-0.28-0.1-0.86,0.33-0.76,0.63c0.1,0.3,0.96,0.56,1.13,0.35
			C67.32,59.17,67.04,58.49,66.74,58.39"/>
		<path class="st17" d="M66.88,59.57c-0.09,0-0.18-0.01-0.24-0.03c-0.32-0.06-0.69-0.24-0.77-0.48c-0.05-0.16,0.02-0.36,0.19-0.53
			c0.19-0.19,0.5-0.33,0.72-0.26c0.24,0.08,0.44,0.41,0.5,0.69c0.05,0.22,0.02,0.39-0.08,0.49C67.13,59.54,67,59.57,66.88,59.57
			 M66.65,58.5c-0.11,0-0.28,0.07-0.42,0.21c-0.1,0.1-0.16,0.21-0.13,0.28c0.03,0.1,0.29,0.26,0.59,0.32
			c0.21,0.04,0.32,0.01,0.34-0.01c0.03-0.04,0.05-0.12,0.02-0.27c-0.05-0.23-0.21-0.47-0.35-0.51l0,0
			C66.68,58.5,66.66,58.5,66.65,58.5"/>
		<path class="st17" d="M72.41,54.71c-0.28-0.1-1.14,0.4-1.06,0.68c0.1,0.3,1.06,0.43,1.24,0.23
			C72.79,55.42,72.69,54.79,72.41,54.71"/>
		<path class="st17" d="M72.21,55.84c-0.14,0-0.27-0.02-0.37-0.04c-0.2-0.04-0.54-0.14-0.61-0.37c-0.04-0.14,0.03-0.28,0.2-0.44
			c0.25-0.23,0.75-0.49,1.01-0.4c0.15,0.04,0.27,0.2,0.33,0.42c0.06,0.23,0.05,0.53-0.11,0.69C72.58,55.81,72.4,55.84,72.21,55.84
			 M72.32,54.82c-0.16,0-0.51,0.15-0.72,0.35c-0.12,0.11-0.13,0.18-0.13,0.19c0.02,0.06,0.17,0.15,0.43,0.2
			c0.32,0.07,0.56,0.02,0.6-0.02c0.08-0.08,0.1-0.28,0.05-0.46c-0.04-0.13-0.1-0.23-0.17-0.25h-0.01
			C72.36,54.82,72.34,54.82,72.32,54.82"/>
		<path class="st17" d="M68.55,54.68c-0.18,0.18-0.25,0.58-0.1,0.78s0.55,0.18,0.76,0c0.18-0.18,0.15-0.48,0-0.68
			C69.03,54.58,68.73,54.53,68.55,54.68"/>
		<path class="st17" d="M68.79,55.73c-0.02,0-0.05,0-0.08,0c-0.16-0.02-0.29-0.08-0.37-0.19c-0.2-0.26-0.1-0.73,0.11-0.94l0.01-0.01
			c0.23-0.19,0.6-0.14,0.83,0.11c0.21,0.28,0.2,0.64-0.01,0.85C69.16,55.66,68.98,55.73,68.79,55.73 M68.63,54.77
			c-0.13,0.14-0.2,0.47-0.09,0.62c0.04,0.05,0.11,0.08,0.2,0.09c0.14,0.02,0.29-0.03,0.38-0.11c0.13-0.13,0.1-0.37-0.02-0.52
			C68.98,54.71,68.76,54.67,68.63,54.77"/>
		<path class="st17" d="M66.81,55.16c-0.18,0.18-0.15,0.35,0,0.56c0.15,0.2,0.43,0.23,0.63,0.07c0.18-0.18,0.2-0.33,0.03-0.53
			C67.29,55.06,67.01,54.99,66.81,55.16"/>
		<path class="st17" d="M67.16,56.01c-0.02,0-0.04,0-0.06,0c-0.15-0.02-0.29-0.09-0.38-0.22c-0.2-0.27-0.2-0.51,0.01-0.71l0.01-0.01
			c0.12-0.11,0.28-0.15,0.44-0.12c0.14,0.03,0.28,0.11,0.39,0.23c0.21,0.24,0.2,0.46-0.03,0.7C67.41,55.97,67.28,56.01,67.16,56.01
			 M66.9,55.25c-0.1,0.1-0.13,0.2,0.01,0.39c0.05,0.07,0.13,0.11,0.21,0.12s0.17-0.02,0.25-0.07c0.13-0.13,0.13-0.21,0.01-0.35
			c-0.07-0.08-0.16-0.14-0.25-0.15C67.04,55.17,66.96,55.2,66.9,55.25"/>
		<path class="st17" d="M71.73,59.2c-0.28,0.25-1.97-1.69-1.56-1.79C70.29,57.38,71.93,59.02,71.73,59.2"/>
		<path class="st17" d="M71.67,59.34c-0.06,0-0.13-0.02-0.2-0.06c-0.46-0.24-1.52-1.42-1.48-1.82c0.01-0.09,0.07-0.15,0.15-0.18
			c0.26-0.05,1.52,1.36,1.68,1.69c0.07,0.14,0.07,0.24-0.01,0.31C71.77,59.32,71.72,59.34,71.67,59.34 M70.26,57.6
			c0.08,0.19,0.33,0.55,0.71,0.94c0.31,0.33,0.53,0.48,0.64,0.53C71.44,58.76,70.6,57.88,70.26,57.6"/>
		<path class="st17" d="M73.06,58.79c-0.23,0.3-1.94-1.66-1.56-1.79C71.85,56.85,73.27,58.54,73.06,58.79"/>
		<path class="st17" d="M72.99,58.95c-0.03,0-0.07-0.01-0.1-0.02c-0.43-0.14-1.56-1.41-1.56-1.84c0-0.1,0.05-0.17,0.14-0.2
			c0.4-0.17,1.29,0.98,1.32,1.03c0.55,0.72,0.42,0.89,0.37,0.95C73.14,58.9,73.09,58.95,72.99,58.95 M71.57,57.12
			c0.02,0.13,0.24,0.49,0.65,0.94c0.39,0.43,0.64,0.6,0.74,0.64c-0.03-0.18-0.4-0.74-0.88-1.21C71.8,57.21,71.63,57.13,71.57,57.12"
			/>
		<path class="st17" d="M71.63,52.99c-0.28-0.1-0.76,0.15-0.66,0.45c0.1,0.3,0.76,0.5,0.96,0.3C72.13,53.55,71.9,53.1,71.63,52.99"
			/>
		<path class="st17" d="M71.68,53.95c-0.07,0-0.14-0.01-0.22-0.03c-0.23-0.05-0.52-0.2-0.6-0.44c-0.05-0.15-0.01-0.31,0.12-0.43
			c0.18-0.18,0.48-0.25,0.69-0.18c0.21,0.08,0.39,0.3,0.45,0.54c0.04,0.17,0,0.32-0.1,0.42C71.94,53.91,71.82,53.95,71.68,53.95
			 M71.49,53.09c-0.11,0-0.26,0.05-0.34,0.14c-0.06,0.06-0.08,0.12-0.06,0.18c0.04,0.11,0.22,0.23,0.43,0.28
			c0.17,0.04,0.29,0.02,0.33-0.02c0.05-0.05,0.04-0.14,0.03-0.19c-0.04-0.16-0.16-0.32-0.29-0.36
			C71.56,53.1,71.53,53.09,71.49,53.09"/>
		<path class="st17" d="M66.23,61.26c0.15-0.08,1.56,1.49,1.24,1.61C66.94,62.88,66.21,62.3,66.23,61.26"/>
		<path class="st17" d="M67.49,63h-0.02c-0.29,0-0.62-0.15-0.87-0.41c-0.33-0.34-0.5-0.81-0.49-1.33v-0.07l0.07-0.03
			c0.08-0.04,0.17,0.01,0.25,0.06c0.3,0.21,1.26,1.25,1.21,1.61c-0.01,0.08-0.05,0.14-0.13,0.16L67.49,63z M66.36,61.47
			c0.03,0.37,0.17,0.71,0.41,0.95c0.18,0.19,0.41,0.31,0.62,0.33C67.32,62.5,66.68,61.73,66.36,61.47"/>
		<path class="st17" d="M65.1,63.03c0.4-0.3,1.13,1.26,0.78,1.41C65.55,64.31,65.2,63.99,65.1,63.03"/>
		<path class="st17" d="M65.88,64.57l-0.05-0.02c-0.49-0.19-0.77-0.68-0.86-1.51l-0.01-0.07l0.06-0.04c0.1-0.08,0.23-0.08,0.36-0.02
			c0.36,0.19,0.72,0.95,0.71,1.34c-0.01,0.19-0.1,0.26-0.17,0.3L65.88,64.57z M65.23,63.11c0.08,0.62,0.28,1.01,0.61,1.18
			c0.01-0.02,0.01-0.06,0-0.11c-0.03-0.37-0.36-0.96-0.59-1.06C65.25,63.12,65.24,63.12,65.23,63.11"/>
		<path class="st17" d="M68.45,62.6c0.55,0.38,1.51,1.36,1.24,1.79C69.33,64.52,68.58,63.25,68.45,62.6"/>
		<path class="st17" d="M69.63,64.52c-0.06,0-0.13-0.02-0.2-0.06c-0.43-0.24-0.99-1.26-1.1-1.84l-0.06-0.29l0.25,0.17
			c0.45,0.31,1.64,1.39,1.27,1.96l-0.02,0.03l-0.04,0.01C69.7,64.52,69.67,64.52,69.63,64.52 M68.68,62.93
			c0.2,0.53,0.61,1.17,0.88,1.32c0.02,0.01,0.04,0.02,0.05,0.02C69.69,63.98,69.18,63.36,68.68,62.93"/>
		<path class="st17" d="M68.05,66.23c-0.43,0.58,1.29,1.92,1.81,1.34C69.11,67.36,68.58,66.79,68.05,66.23"/>
		<path class="st17" d="M69.5,67.83c-0.34,0-0.74-0.2-1.06-0.47c-0.52-0.43-0.72-0.9-0.49-1.21l0.09-0.12l0.16,0.17
			c0.49,0.52,1,1.05,1.7,1.24l0.19,0.05l-0.13,0.15C69.84,67.78,69.68,67.83,69.5,67.83 M68.1,66.46c0.01,0.21,0.23,0.5,0.49,0.71
			c0.3,0.25,0.68,0.42,0.94,0.41C68.97,67.35,68.52,66.91,68.1,66.46"/>
		<path class="st17" d="M66.84,67.11c0.02-0.02,1.76,1.06,1.59,1.26C68.2,68.6,66.79,67.16,66.84,67.11"/>
		<path class="st17" d="M68.36,68.52c-0.16,0-0.35-0.13-0.52-0.25c-0.21-0.16-0.48-0.39-0.73-0.64c-0.11-0.11-0.21-0.22-0.28-0.3
			c-0.08-0.1-0.18-0.21-0.08-0.3c0.17-0.17,1.57,0.96,1.59,0.97c0.1,0.09,0.32,0.3,0.18,0.45C68.47,68.5,68.42,68.52,68.36,68.52
			 M67.51,67.67c0.26,0.24,0.56,0.48,0.73,0.57C68.1,68.09,67.8,67.87,67.51,67.67"/>
		<path class="st17" d="M67.44,71.68c0.13-0.38,0.96,1.64,0.86,1.84C68.17,73.79,67.42,71.75,67.44,71.68"/>
		<path class="st17" d="M68.27,73.66c-0.02,0-0.04,0-0.06-0.01c-0.25-0.1-0.94-1.85-0.88-2.02c0.03-0.1,0.1-0.12,0.14-0.13
			c0.11-0.02,0.19,0.08,0.25,0.16c0.25,0.35,0.81,1.66,0.69,1.9C68.38,73.63,68.33,73.66,68.27,73.66 M67.72,72.17
			c0.11,0.29,0.25,0.65,0.37,0.91C68.01,72.8,67.86,72.44,67.72,72.17"/>
		<path class="st17" d="M63.99,64.84c-0.58,1.59,0.23,3.45,1.26,3.68c0.15-0.23-0.73-0.56-0.98-1.71
			C64.09,65.88,64.14,64.79,63.99,64.84"/>
		<path class="st17" d="M65.31,68.66l-0.08-0.02c-0.43-0.1-0.83-0.44-1.13-0.98c-0.47-0.85-0.55-1.95-0.22-2.86l0.02-0.06l0.05-0.02
			c0.04-0.01,0.09-0.01,0.13,0.02c0.11,0.07,0.12,0.25,0.17,0.81c0.03,0.36,0.06,0.82,0.14,1.23c0.15,0.66,0.51,1.04,0.75,1.29
			c0.18,0.18,0.33,0.34,0.22,0.51L65.31,68.66z M63.98,65.3c-0.18,0.87,0.03,1.71,0.32,2.24c0.2,0.35,0.44,0.62,0.71,0.76
			c-0.02-0.02-0.04-0.04-0.06-0.06c-0.24-0.25-0.65-0.68-0.81-1.41c-0.08-0.43-0.12-0.89-0.14-1.26C64,65.48,63.99,65.39,63.98,65.3
			"/>
		<path class="st17" d="M69.06,74.05c0.1-0.15,0.68,1.08,0.81,1.66c0.1,0.48-0.53,0.63-0.55,0.43
			C69.23,75.63,68.98,74.17,69.06,74.05"/>
		<path class="st17" d="M69.45,76.35c-0.04,0-0.09-0.01-0.12-0.02c-0.08-0.03-0.13-0.09-0.14-0.17c-0.01-0.08-0.03-0.2-0.05-0.33
			c-0.23-1.46-0.24-1.74-0.18-1.84v-0.01c0.03-0.05,0.09-0.08,0.15-0.06c0.28,0.05,0.79,1.37,0.88,1.77
			c0.04,0.21-0.02,0.39-0.17,0.53C69.71,76.3,69.57,76.35,69.45,76.35 M69.43,76.1c0.04,0.01,0.13-0.01,0.21-0.07
			c0.07-0.05,0.14-0.14,0.11-0.3c-0.09-0.4-0.38-1.07-0.57-1.4c0.03,0.38,0.15,1.09,0.2,1.45C69.4,75.91,69.41,76.02,69.43,76.1"/>
		<path class="st17" d="M73.47,65.95c0.68,0.78,1.26,0.4,1.56-0.02c0.96-1.01,1.87,0.02,1.21,0.73l-1.01,1.01
			c-0.38,0.38-1.46,0.43-1.79,0.05l-1.13-1.13C71.78,65.83,72.59,65.12,73.47,65.95"/>
		<path class="st17" d="M74.25,68.1c-0.03,0-0.05,0-0.08,0c-0.22-0.01-0.61-0.06-0.82-0.3l-1.13-1.13
			c-0.32-0.45-0.22-0.85,0.01-1.05c0.27-0.24,0.79-0.25,1.32,0.25l0.01,0.01c0.25,0.29,0.5,0.42,0.73,0.41
			c0.31-0.02,0.53-0.27,0.64-0.43c0.56-0.59,1.11-0.56,1.42-0.27c0.27,0.26,0.36,0.75-0.02,1.16l-1.01,1.01
			C75.11,67.97,74.69,68.1,74.25,68.1 M72.69,65.7c-0.12,0-0.22,0.04-0.29,0.1c-0.15,0.13-0.2,0.4,0.02,0.71l1.12,1.12
			c0.11,0.13,0.36,0.21,0.65,0.22c0.39,0.01,0.79-0.1,0.96-0.27l1.01-1.01c0.27-0.29,0.22-0.63,0.03-0.81
			c-0.22-0.21-0.63-0.21-1.06,0.25c-0.12,0.17-0.41,0.49-0.82,0.51c-0.32,0.01-0.63-0.15-0.92-0.49
			C73.12,65.8,72.88,65.7,72.69,65.7"/>
		<path class="st17" d="M80.33,56.47c0.28-0.1,0.86,0.53,0.76,0.81c-0.1,0.3-0.96,0.55-1.13,0.35
			C79.77,57.43,80.05,56.57,80.33,56.47"/>
		<path class="st17" d="M80.19,57.83c-0.12,0-0.25-0.02-0.33-0.11c-0.13-0.15-0.08-0.46-0.04-0.62c0.06-0.23,0.22-0.64,0.47-0.73
			c0.17-0.06,0.39,0.04,0.61,0.26c0.19,0.19,0.38,0.49,0.3,0.71c-0.08,0.24-0.46,0.42-0.77,0.48
			C80.36,57.81,80.27,57.83,80.19,57.83 M80.39,56.58c-0.01,0-0.02,0-0.02,0c-0.09,0.03-0.24,0.27-0.32,0.56
			c-0.06,0.23-0.04,0.37-0.01,0.4c0.02,0.02,0.12,0.05,0.34,0.01c0.31-0.06,0.56-0.22,0.59-0.32c0.03-0.08-0.06-0.28-0.24-0.46
			C80.58,56.64,80.45,56.58,80.39,56.58"/>
		<path class="st17" d="M81.96,58.36c0.28-0.1,0.86,0.33,0.76,0.63c-0.1,0.3-0.96,0.56-1.13,0.35
			C81.38,59.15,81.69,58.47,81.96,58.36"/>
		<path class="st17" d="M81.82,59.54c-0.12,0-0.25-0.02-0.33-0.11c-0.09-0.09-0.12-0.25-0.07-0.46c0.06-0.29,0.27-0.64,0.5-0.72
			c0.22-0.08,0.53,0.07,0.72,0.26c0.18,0.17,0.25,0.37,0.2,0.53c-0.08,0.24-0.46,0.42-0.77,0.48C82,59.53,81.91,59.54,81.82,59.54
			 M82.06,58.47c-0.02,0-0.04,0-0.05,0.01c-0.11,0.04-0.29,0.29-0.35,0.54c-0.03,0.14-0.01,0.21,0.02,0.24
			c0.02,0.03,0.13,0.06,0.34,0.02c0.31-0.06,0.56-0.22,0.59-0.32c0.02-0.07-0.03-0.17-0.13-0.28
			C82.33,58.55,82.16,58.47,82.06,58.47"/>
		<path class="st17" d="M76.32,54.68c0.28-0.1,1.13,0.4,1.06,0.68c-0.08,0.28-1.06,0.43-1.24,0.23
			C75.96,55.39,76.04,54.76,76.32,54.68"/>
		<path class="st17" d="M76.5,55.81c-0.18,0-0.36-0.03-0.45-0.14c-0.15-0.17-0.15-0.49-0.08-0.73c0.06-0.2,0.17-0.33,0.31-0.37
			c0.26-0.09,0.76,0.17,1.01,0.4c0.17,0.15,0.24,0.3,0.2,0.43c-0.06,0.21-0.38,0.32-0.56,0.36C76.81,55.78,76.65,55.81,76.5,55.81
			 M76.41,54.79c-0.02,0-0.04,0-0.05,0.01h-0.01c-0.06,0.02-0.11,0.1-0.15,0.21c-0.06,0.2-0.03,0.43,0.03,0.5
			c0.04,0.05,0.32,0.08,0.64,0.01c0.27-0.06,0.37-0.15,0.38-0.18c0-0.01-0.01-0.08-0.13-0.19C76.91,54.95,76.56,54.79,76.41,54.79"
			/>
		<path class="st17" d="M80.17,54.68c0.18,0.18,0.25,0.58,0.1,0.78s-0.55,0.18-0.76,0c-0.18-0.18-0.15-0.48,0-0.68
			C79.67,54.58,79.97,54.51,80.17,54.68"/>
		<path class="st17" d="M79.93,55.73c-0.18,0-0.37-0.06-0.49-0.17c-0.21-0.21-0.22-0.58-0.02-0.85c0.1-0.14,0.26-0.23,0.43-0.25
			c0.15-0.01,0.29,0.03,0.4,0.13l0.01,0.01c0.21,0.21,0.31,0.68,0.11,0.94c-0.08,0.1-0.21,0.17-0.37,0.19
			C79.98,55.73,79.96,55.73,79.93,55.73 M79.91,54.71c-0.01,0-0.02,0-0.03,0c-0.1,0.01-0.2,0.07-0.26,0.15
			c-0.11,0.15-0.15,0.39-0.01,0.52c0.08,0.07,0.24,0.12,0.38,0.1c0.09-0.01,0.16-0.04,0.2-0.09c0.11-0.15,0.04-0.48-0.09-0.62
			C80.03,54.72,79.96,54.71,79.91,54.71"/>
		<path class="st17" d="M81.91,55.14c0.18,0.18,0.15,0.35,0,0.56c-0.15,0.2-0.43,0.23-0.63,0.07c-0.18-0.18-0.2-0.33-0.02-0.53
			C81.43,55.04,81.71,54.99,81.91,55.14"/>
		<path class="st17" d="M81.57,55.99c-0.12,0-0.25-0.04-0.36-0.12c-0.25-0.24-0.26-0.47-0.04-0.71c0.22-0.25,0.58-0.3,0.82-0.12
			L82,55.05c0.21,0.21,0.21,0.45,0.01,0.71C81.9,55.91,81.74,55.99,81.57,55.99 M81.65,55.17c-0.11,0-0.21,0.05-0.3,0.15
			c-0.12,0.14-0.12,0.22,0.02,0.36c0.14,0.1,0.34,0.08,0.45-0.06c0.14-0.19,0.12-0.29,0.02-0.39
			C81.78,55.19,81.72,55.17,81.65,55.17"/>
		<path class="st17" d="M77,59.2c0.28,0.25,1.97-1.69,1.56-1.79C78.43,57.36,76.8,59,77,59.2"/>
		<path class="st17" d="M77.06,59.34c-0.06,0-0.11-0.02-0.15-0.05l0,0c-0.13-0.13,0.02-0.37,0.09-0.47
			c0.21-0.31,1.36-1.62,1.61-1.52c0.07,0.02,0.13,0.08,0.14,0.17c0.05,0.4-1.02,1.58-1.48,1.82C77.19,59.32,77.12,59.34,77.06,59.34
			 M78.48,57.58c-0.35,0.26-1.22,1.18-1.36,1.5c0.1-0.04,0.31-0.18,0.64-0.53C78.15,58.14,78.41,57.77,78.48,57.58"/>
		<path class="st17" d="M75.66,58.77c0.23,0.3,1.94-1.66,1.56-1.79C76.87,56.83,75.46,58.52,75.66,58.77"/>
		<path class="st17" d="M75.73,58.92c-0.09,0-0.14-0.05-0.17-0.08c-0.04-0.06-0.17-0.23,0.37-0.95c0.04-0.05,0.92-1.2,1.33-1.03
			c0.08,0.02,0.13,0.1,0.13,0.2c0,0.43-1.14,1.7-1.56,1.84C75.8,58.92,75.76,58.92,75.73,58.92 M77.15,57.1
			c-0.07,0.01-0.23,0.1-0.51,0.37c-0.47,0.46-0.85,1.03-0.88,1.21c0.1-0.04,0.35-0.21,0.74-0.64C76.91,57.59,77.13,57.23,77.15,57.1
			"/>
		<path class="st17" d="M77.1,52.97c0.28-0.1,0.76,0.15,0.65,0.45c-0.1,0.3-0.76,0.5-0.96,0.3C76.59,53.52,76.82,53.07,77.1,52.97"
			/>
		<path class="st17" d="M77.05,53.93c-0.14,0-0.26-0.04-0.34-0.12c-0.1-0.1-0.14-0.25-0.1-0.42c0.05-0.24,0.24-0.47,0.45-0.54
			c0.21-0.08,0.51,0,0.69,0.17c0.13,0.12,0.17,0.28,0.12,0.43c-0.08,0.24-0.37,0.39-0.6,0.44C77.19,53.92,77.12,53.93,77.05,53.93
			 M77.14,53.08c-0.13,0.05-0.26,0.21-0.29,0.37c-0.01,0.05-0.02,0.14,0.03,0.19c0.04,0.04,0.16,0.07,0.33,0.02
			c0.2-0.05,0.39-0.17,0.42-0.28c0.02-0.06,0-0.12-0.06-0.18C77.47,53.1,77.26,53.04,77.14,53.08"/>
		<path class="st17" d="M82.49,61.26c-0.15-0.08-1.56,1.49-1.24,1.61C81.79,62.85,82.52,62.27,82.49,61.26"/>
		<path class="st17" d="M81.24,63l-0.02-0.01c-0.07-0.03-0.12-0.09-0.13-0.16c-0.05-0.37,0.91-1.4,1.21-1.61
			c0.08-0.05,0.16-0.1,0.25-0.06l0.07,0.03v0.07c0.03,1.09-0.77,1.71-1.35,1.74H81.24z M82.37,61.47c-0.32,0.26-0.95,1.02-1.03,1.28
			C81.76,62.67,82.3,62.22,82.37,61.47"/>
		<path class="st17" d="M83.63,63c-0.4-0.3-1.14,1.26-0.78,1.41C83.17,64.29,83.53,63.96,83.63,63"/>
		<path class="st17" d="M82.84,64.55l-0.05-0.02c-0.07-0.03-0.16-0.11-0.17-0.3c-0.02-0.39,0.35-1.15,0.71-1.34
			c0.13-0.07,0.26-0.06,0.36,0.02l0.06,0.04l-0.01,0.07c-0.09,0.83-0.37,1.32-0.86,1.51L82.84,64.55z M83.49,63.09
			c-0.01,0-0.02,0.01-0.03,0.01c-0.23,0.1-0.55,0.68-0.59,1.05c-0.01,0.05,0,0.09,0,0.11C83.21,64.1,83.41,63.71,83.49,63.09"/>
		<path class="st17" d="M80.27,62.6c-0.55,0.38-1.51,1.36-1.24,1.79C79.37,64.52,80.12,63.25,80.27,62.6"/>
		<path class="st17" d="M79.09,64.52c-0.03,0-0.06-0.01-0.09-0.02l-0.04-0.01l-0.02-0.03c-0.35-0.54,0.75-1.6,1.27-1.96l0.26-0.18
			l-0.07,0.3c-0.14,0.59-0.73,1.63-1.13,1.85C79.2,64.5,79.14,64.52,79.09,64.52 M80.04,62.94c-0.5,0.43-0.99,1.04-0.92,1.33
			c0.01,0,0.02-0.01,0.03-0.01C79.4,64.12,79.81,63.48,80.04,62.94"/>
		<path class="st17" d="M80.68,66.23c0.43,0.58-1.29,1.92-1.82,1.34C79.62,67.36,80.15,66.79,80.68,66.23"/>
		<path class="st17" d="M79.22,67.83c-0.17,0-0.33-0.05-0.45-0.18l-0.14-0.15l0.19-0.05c0.69-0.18,1.2-0.72,1.7-1.24l0.16-0.17
			l0.09,0.12c0.23,0.3,0.03,0.78-0.49,1.21C79.96,67.63,79.56,67.83,79.22,67.83 M79.19,67.58c0.27,0.02,0.64-0.16,0.94-0.41
			c0.26-0.22,0.48-0.5,0.49-0.71C80.2,66.91,79.76,67.35,79.19,67.58"/>
		<path class="st17" d="M81.89,67.09c-0.02-0.02-1.76,1.06-1.59,1.26C80.53,68.57,81.94,67.16,81.89,67.09"/>
		<path class="st17" d="M80.37,68.5c-0.06,0-0.11-0.02-0.15-0.06c-0.14-0.16,0.08-0.37,0.17-0.46c0.01-0.01,1.42-1.15,1.59-0.98
			L82,67.02c0.13,0.2-0.74,0.93-0.91,1.08C80.75,68.37,80.52,68.5,80.37,68.5 M81.27,67.61c-0.31,0.21-0.64,0.46-0.79,0.61
			C80.67,68.13,80.99,67.86,81.27,67.61"/>
		<path class="st17" d="M81.28,71.65c-0.13-0.38-0.96,1.64-0.86,1.84C80.55,73.79,81.31,71.73,81.28,71.65"/>
		<path class="st17" d="M80.46,73.64c-0.06,0-0.12-0.04-0.15-0.11c-0.12-0.23,0.44-1.55,0.69-1.89c0.06-0.08,0.14-0.18,0.25-0.16
			c0.04,0.01,0.1,0.03,0.14,0.13c0.04,0.11-0.59,1.91-0.88,2.02C80.5,73.64,80.48,73.64,80.46,73.64 M81.01,72.13
			c-0.14,0.28-0.29,0.65-0.38,0.94C80.75,72.8,80.9,72.43,81.01,72.13"/>
		<path class="st17" d="M84.74,64.84c0.58,1.59-0.23,3.45-1.26,3.68c-0.15-0.23,0.73-0.56,0.98-1.71
			C84.64,65.85,84.58,64.77,84.74,64.84"/>
		<path class="st17" d="M83.42,68.66l-0.05-0.07c-0.11-0.17,0.04-0.33,0.22-0.51c0.24-0.25,0.6-0.63,0.75-1.29
			c0.08-0.42,0.11-0.88,0.14-1.24c0.04-0.57,0.06-0.74,0.17-0.81c0.04-0.02,0.1-0.03,0.14,0l0.04,0.02l0.02,0.05
			c0.33,0.91,0.25,2.01-0.22,2.86c-0.29,0.54-0.7,0.89-1.13,0.98L83.42,68.66z M84.74,65.3c-0.01,0.08-0.01,0.18-0.02,0.26
			c-0.03,0.37-0.06,0.83-0.14,1.27c-0.16,0.74-0.57,1.16-0.81,1.42c-0.02,0.02-0.04,0.04-0.06,0.06c0.27-0.14,0.51-0.41,0.71-0.76
			C84.71,67.01,84.93,66.17,84.74,65.3"/>
		<path class="st17" d="M79.67,74.05c-0.1-0.15-0.68,1.08-0.81,1.66c-0.1,0.48,0.53,0.63,0.55,0.43
			C79.47,75.61,79.75,74.15,79.67,74.05"/>
		<path class="st17" d="M79.28,76.35c-0.12,0-0.26-0.05-0.36-0.14c-0.15-0.13-0.22-0.32-0.17-0.52c0.09-0.4,0.6-1.72,0.88-1.77
			c0.06-0.01,0.12,0.01,0.15,0.06c0.06,0.09,0.05,0.3-0.11,1.33c-0.05,0.33-0.1,0.65-0.12,0.84c-0.01,0.08-0.06,0.15-0.14,0.18
			C79.36,76.34,79.32,76.35,79.28,76.35 M79.55,74.35c-0.19,0.33-0.48,0.99-0.56,1.39c-0.03,0.16,0.04,0.25,0.11,0.3
			c0.08,0.06,0.17,0.07,0.21,0.07c0.02-0.2,0.07-0.51,0.12-0.83C79.46,74.98,79.52,74.6,79.55,74.35"/>
		<path class="st17" d="M77.4,68.35c0.13,0.1,0.1,0.23,0,0.35c-0.1,0.13-0.28,0.15-0.4,0.05c-0.13-0.1-0.13-0.2-0.03-0.35
			C77.1,68.3,77.3,68.25,77.4,68.35"/>
		<path class="st17" d="M77.17,68.89c-0.08,0-0.16-0.03-0.22-0.08c-0.2-0.16-0.12-0.34-0.04-0.46l0.01-0.02
			c0.16-0.12,0.4-0.18,0.53-0.05c0.07,0.05,0.1,0.12,0.11,0.19c0.01,0.09-0.02,0.18-0.1,0.27c-0.06,0.08-0.15,0.13-0.24,0.14
			C77.2,68.89,77.19,68.89,77.17,68.89 M77.03,68.45c-0.08,0.13-0.06,0.17,0.02,0.24c0.04,0.04,0.1,0.05,0.15,0.04
			c0.05-0.01,0.1-0.04,0.14-0.08c0.05-0.06,0.07-0.12,0.07-0.16c0-0.03-0.02-0.06-0.06-0.08l-0.01-0.01
			C77.28,68.34,77.13,68.38,77.03,68.45"/>
		<path class="st17" d="M77.93,66.15c0.13,0.1,0.1,0.23,0,0.35c-0.1,0.13-0.28,0.15-0.4,0.05c-0.13-0.1-0.13-0.2-0.03-0.35
			S77.8,66.03,77.93,66.15"/>
		<path class="st17" d="M77.7,66.7c-0.08,0-0.16-0.03-0.23-0.08c-0.2-0.16-0.12-0.34-0.04-0.46c0.06-0.1,0.16-0.15,0.27-0.17
			c0.1-0.01,0.2,0.03,0.28,0.1c0.07,0.06,0.21,0.22,0.01,0.46C77.92,66.65,77.81,66.7,77.7,66.7 M77.74,66.15c0,0-0.01,0-0.02,0
			c-0.06,0.01-0.12,0.04-0.15,0.09c-0.09,0.14-0.07,0.18,0.01,0.25c0.09,0.07,0.22,0.05,0.29-0.04c0.12-0.15,0.05-0.21,0.01-0.24
			l-0.01-0.01C77.84,66.17,77.79,66.15,77.74,66.15"/>
		<path class="st17" d="M76.75,66.96c-0.18-0.18-0.66,0.51-0.51,0.61C76.42,67.54,76.62,67.42,76.75,66.96"/>
		<path class="st17" d="M76.23,67.63l-0.02-0.01c-0.03-0.02-0.07-0.06-0.05-0.15c0.02-0.19,0.26-0.52,0.45-0.58
			c0.07-0.02,0.13-0.01,0.18,0.03l0.02,0.03l-0.01,0.03c-0.11,0.4-0.29,0.61-0.55,0.65H76.23z M76.67,66.99
			c-0.05,0-0.11,0.05-0.13,0.07c-0.16,0.14-0.28,0.37-0.27,0.44C76.45,67.46,76.58,67.29,76.67,66.99L76.67,66.99z"/>
		<path class="st17" d="M78.06,65.17c-0.18-0.18-0.71,0.28-0.55,0.38C77.68,65.52,77.9,65.63,78.06,65.17"/>
		<path class="st17" d="M77.49,65.61l-0.02-0.01c-0.04-0.03-0.06-0.07-0.05-0.12c0.02-0.14,0.24-0.33,0.41-0.39
			c0.14-0.05,0.23-0.01,0.27,0.04l0.03,0.02l-0.01,0.04c-0.14,0.41-0.35,0.41-0.51,0.41c-0.03,0-0.06,0-0.09,0.01H77.49z
			 M77.95,65.19c-0.05,0-0.12,0.03-0.18,0.06c-0.14,0.08-0.22,0.19-0.24,0.24c0.02,0,0.05,0,0.07,0c0.14,0,0.27,0,0.38-0.29
			C77.97,65.19,77.96,65.19,77.95,65.19"/>
		<path class="st17" d="M76.82,67.54c0.08-0.2,0.4-0.35,0.53-0.18c0.12,0.18-0.05,0.63-0.23,0.63
			C76.92,68.02,76.75,67.72,76.82,67.54"/>
		<path class="st17" d="M77.09,68.08c-0.1,0-0.19-0.06-0.27-0.16c-0.08-0.11-0.14-0.28-0.08-0.41c0.06-0.15,0.23-0.28,0.4-0.3
			c0.12-0.01,0.22,0.03,0.28,0.11c0.1,0.14,0.06,0.38-0.03,0.54c-0.07,0.14-0.17,0.22-0.27,0.22C77.11,68.08,77.1,68.08,77.09,68.08
			 M77.19,67.37c-0.01,0-0.02,0-0.03,0c-0.11,0.01-0.23,0.1-0.26,0.2l0,0c-0.03,0.06,0,0.17,0.06,0.25c0.05,0.06,0.11,0.1,0.16,0.09
			c0.03,0,0.08-0.04,0.13-0.13c0.07-0.14,0.09-0.3,0.04-0.37C77.26,67.38,77.23,67.37,77.19,67.37"/>
		<path class="st17" d="M76.09,68.25c0.05-0.15,0.33-0.28,0.43-0.13s-0.03,0.5-0.18,0.53C76.19,68.65,76.04,68.4,76.09,68.25"/>
		<path class="st17" d="M76.35,68.72c-0.1,0-0.18-0.05-0.25-0.15c-0.08-0.11-0.11-0.25-0.08-0.35c0.04-0.11,0.18-0.22,0.31-0.24
			c0.1-0.01,0.19,0.02,0.24,0.1c0.08,0.12,0.05,0.3-0.01,0.42C76.52,68.63,76.44,68.7,76.35,68.72L76.35,68.72z M76.38,68.12
			c-0.01,0-0.02,0-0.02,0c-0.09,0.01-0.18,0.08-0.2,0.15c-0.02,0.06,0.01,0.15,0.06,0.22c0.04,0.06,0.09,0.09,0.13,0.09
			c0.02,0,0.07-0.05,0.1-0.13c0.05-0.11,0.05-0.23,0.02-0.29C76.44,68.13,76.42,68.12,76.38,68.12"/>
		<path class="st17" d="M78.46,65.57c0.05-0.13,0.28-0.23,0.35-0.13c0.08,0.1-0.02,0.43-0.15,0.43
			C78.54,65.88,78.41,65.73,78.46,65.57"/>
		<path class="st17" d="M78.66,65.93c-0.08,0-0.16-0.04-0.21-0.12c-0.06-0.08-0.07-0.17-0.04-0.26l0,0c0.04-0.11,0.17-0.19,0.28-0.2
			c0.08-0.01,0.14,0.01,0.17,0.06c0.07,0.09,0.04,0.26-0.02,0.38C78.79,65.88,78.73,65.93,78.66,65.93 M78.51,65.59
			c-0.02,0.05-0.01,0.11,0.03,0.16c0.03,0.04,0.08,0.07,0.12,0.07c0.02,0,0.05-0.03,0.07-0.08c0.05-0.1,0.06-0.22,0.03-0.26
			c-0.02-0.02-0.05-0.02-0.07-0.02C78.62,65.48,78.54,65.54,78.51,65.59"/>
		<path class="st17" d="M78.61,66.36c0.13,0.15,0.08,0.48-0.13,0.48s-0.45-0.33-0.38-0.48C78.18,66.2,78.51,66.2,78.61,66.36"/>
		<path class="st17" d="M78.49,66.91c-0.16,0-0.31-0.14-0.4-0.27c-0.07-0.12-0.09-0.23-0.05-0.32s0.15-0.15,0.28-0.15
			c0.15-0.01,0.29,0.05,0.35,0.14c0.09,0.11,0.11,0.3,0.05,0.44C78.67,66.85,78.59,66.91,78.49,66.91 M78.35,66.32h-0.02
			c-0.07,0.01-0.13,0.03-0.15,0.07c-0.01,0.03-0.01,0.09,0.04,0.17c0.11,0.17,0.29,0.27,0.36,0.13c0.04-0.09,0.03-0.22-0.03-0.28
			V66.4C78.52,66.35,78.44,66.32,78.35,66.32"/>
		<path class="st17" d="M78.03,67.16c-0.2-0.13-0.61,0.48-0.4,0.53C77.75,67.59,78.03,67.62,78.03,67.16"/>
		<path class="st17" d="M77.64,67.76l-0.03-0.01c-0.05-0.01-0.09-0.05-0.1-0.11c-0.02-0.15,0.14-0.4,0.3-0.5
			c0.12-0.08,0.21-0.05,0.25-0.03l0.03,0.02v0.03c0,0.38-0.19,0.46-0.33,0.52c-0.04,0.02-0.07,0.03-0.1,0.05L77.64,67.76z
			 M77.97,67.21c-0.03,0-0.07,0.02-0.09,0.04c-0.13,0.09-0.25,0.29-0.24,0.38c0.03-0.01,0.05-0.03,0.08-0.04
			C77.84,67.53,77.96,67.47,77.97,67.21L77.97,67.21z"/>
		<path class="st17" d="M77.22,64.14c-0.3-0.35-1.61,0.61-1.51,0.96C75.91,65.3,77.35,64.49,77.22,64.14"/>
		<path class="st17" d="M75.82,65.25c-0.08,0-0.15-0.02-0.19-0.07l-0.02-0.02l-0.01-0.03c-0.09-0.32,0.47-0.8,0.88-1.02
			c0.39-0.21,0.69-0.23,0.84-0.05l0.02,0.04c0.1,0.28-0.34,0.61-0.61,0.79C76.66,64.93,76.14,65.25,75.82,65.25 M77.03,64.18
			c-0.1,0-0.24,0.04-0.43,0.14c-0.42,0.23-0.71,0.55-0.76,0.69c0.18-0.01,0.78-0.28,1.13-0.61c0.1-0.1,0.14-0.17,0.15-0.2
			C77.09,64.19,77.06,64.18,77.03,64.18"/>
		<path class="st17" d="M76.42,63.15c-0.4-0.25-1.19,0.93-1.21,1.31C75.64,64.31,76.62,63.46,76.42,63.15"/>
		<path class="st17" d="M75.07,64.64l0.01-0.18c0.02-0.33,0.52-1.16,0.98-1.4c0.2-0.1,0.34-0.06,0.42-0.01l0.04,0.04
			c0.04,0.06,0.07,0.15,0.02,0.3c-0.14,0.42-0.92,1.06-1.29,1.19L75.07,64.64z M76.29,63.24c-0.03,0-0.07,0.01-0.12,0.04
			c-0.27,0.14-0.61,0.62-0.76,0.95c0.36-0.23,0.82-0.66,0.9-0.91c0.01-0.03,0.01-0.05,0.01-0.07C76.31,63.24,76.3,63.24,76.29,63.24
			"/>
		<path class="st17" d="M75.13,62.7c-0.3,0.03-0.33,0.96-0.08,1.08C75.36,63.76,75.48,62.83,75.13,62.7"/>
		<path class="st17" d="M75.03,63.91L75,63.89c-0.24-0.12-0.27-0.6-0.21-0.88c0.05-0.26,0.17-0.42,0.33-0.43h0.03l0.02,0.01
			c0.27,0.1,0.32,0.46,0.29,0.75c-0.03,0.25-0.15,0.55-0.39,0.57L75.03,63.91z M75.12,62.83c-0.03,0.03-0.07,0.1-0.1,0.22
			c-0.05,0.24,0,0.5,0.05,0.59c0.05-0.04,0.11-0.17,0.13-0.35C75.24,63.09,75.2,62.9,75.12,62.83"/>
		<path class="st17" d="M75.46,60.71c-0.43,0-0.86,1.29-0.08,1.44C75.51,62.09,75.51,60.83,75.46,60.71"/>
		<path class="st17" d="M75.4,62.27l-0.04-0.01c-0.37-0.07-0.57-0.38-0.53-0.81c0.04-0.41,0.31-0.87,0.63-0.87h0.08l0.03,0.08
			c0.06,0.15,0.06,1.24-0.05,1.49c-0.01,0.02-0.04,0.08-0.1,0.1L75.4,62.27z M75.36,60.87c-0.12,0.1-0.26,0.34-0.29,0.61
			c-0.01,0.16,0,0.43,0.24,0.52C75.37,61.78,75.38,61.15,75.36,60.87"/>
		<path class="st37" d="M66.96,60.81c0-0.25,2.98-0.58,4.16,0.28c1.29,1.26-0.53,2.07-1.36,1.71c-0.28-0.13-0.63-0.43-1.16-0.86
			C67.87,61.31,66.76,60.96,66.96,60.81"/>
		<path class="st17" d="M67.17,60.43c0-0.25,2.97-0.58,4.16,0.28c1.29,1.26-0.53,2.07-1.36,1.71c-0.28-0.13-0.63-0.43-1.16-0.86
			C68.05,60.94,66.96,60.61,67.17,60.43"/>
		<path class="st17" d="M70.43,62.63c-0.18,0-0.36-0.03-0.51-0.1c-0.26-0.12-0.56-0.37-0.99-0.71l-0.2-0.16
			c-0.35-0.29-0.76-0.51-1.1-0.69c-0.39-0.21-0.59-0.32-0.61-0.47c-0.01-0.05,0.01-0.09,0.04-0.13c0.02-0.05,0.06-0.09,0.12-0.12
			c0.52-0.27,3.12-0.44,4.22,0.36c0.68,0.67,0.51,1.17,0.35,1.41C71.5,62.39,70.94,62.63,70.43,62.63 M67.29,60.49
			c0.08,0.07,0.29,0.18,0.46,0.27c0.34,0.18,0.77,0.41,1.14,0.72l0.2,0.16c0.41,0.33,0.71,0.57,0.93,0.68
			c0.47,0.2,1.26-0.02,1.53-0.43c0.26-0.39-0.02-0.81-0.31-1.08C70.18,60.04,67.61,60.29,67.29,60.49L67.29,60.49z"/>
		<path class="st17" d="M70.32,60.58c0.49,0,0.88,0.38,0.88,0.86c0,0.47-0.4,0.86-0.88,0.86c-0.49,0-0.88-0.38-0.88-0.86
			C69.43,60.97,69.83,60.58,70.32,60.58"/>
		<path class="st38" d="M70.32,62.48c-0.59,0-1.07-0.47-1.07-1.04s0.48-1.04,1.07-1.04s1.06,0.47,1.06,1.04S70.9,62.48,70.32,62.48
			 M70.32,60.77c-0.39,0-0.7,0.3-0.7,0.67s0.31,0.67,0.7,0.67s0.7-0.3,0.7-0.67S70.7,60.77,70.32,60.77"/>
		<path class="st37" d="M81.69,60.76c0-0.25-2.98-0.58-4.16,0.28c-1.29,1.26,0.53,2.07,1.36,1.71c0.28-0.13,0.63-0.43,1.16-0.86
			C80.8,61.26,81.89,60.94,81.69,60.76"/>
		<path class="st17" d="M81.56,60.41c0-0.25-2.98-0.58-4.16,0.28c-1.29,1.26,0.53,2.07,1.36,1.71c0.28-0.13,0.63-0.43,1.16-0.86
			C80.68,60.91,81.76,60.58,81.56,60.41"/>
		<path class="st17" d="M78.3,62.61c-0.51,0-1.07-0.24-1.32-0.61c-0.16-0.24-0.33-0.74,0.34-1.39c1.11-0.81,3.71-0.63,4.23-0.37
			c0.06,0.03,0.11,0.07,0.12,0.12c0.03,0.04,0.04,0.08,0.04,0.13c-0.02,0.15-0.21,0.26-0.61,0.47c-0.33,0.18-0.75,0.4-1.1,0.69
			l-0.2,0.16c-0.42,0.35-0.73,0.59-0.98,0.71C78.66,62.57,78.48,62.61,78.3,62.61 M79.86,60.25c-0.85,0-1.82,0.13-2.39,0.54
			c-0.27,0.27-0.55,0.68-0.29,1.07c0.27,0.41,1.06,0.63,1.54,0.43c0.22-0.1,0.52-0.34,0.93-0.68l0.2-0.16
			c0.36-0.3,0.79-0.53,1.14-0.72c0.17-0.09,0.38-0.2,0.46-0.27v-0.01C81.28,60.35,80.63,60.25,79.86,60.25"/>
		<path class="st17" d="M78.41,60.58c0.49,0,0.88,0.38,0.88,0.86c0,0.47-0.39,0.86-0.88,0.86s-0.88-0.38-0.88-0.86
			C77.53,60.97,77.92,60.58,78.41,60.58"/>
		<path class="st38" d="M78.41,62.48c-0.59,0-1.07-0.47-1.07-1.04s0.48-1.04,1.07-1.04s1.07,0.47,1.07,1.04S79,62.48,78.41,62.48
			 M78.41,60.77c-0.39,0-0.7,0.3-0.7,0.67s0.31,0.67,0.7,0.67s0.7-0.3,0.7-0.67S78.8,60.77,78.41,60.77"/>
		<path class="st39" d="M74.65,76.94c0.38,0.05,0.65,0.2,1.01,0.43c2.14,1.03,2.6-1.24,2.77-4.06c0.35-2.6,2.02-2.9,1.89-3.38
			c-0.1-0.15-1.31,0.1-1.92,0.2c-2.24,0.38-3.03-0.18-3.83-0.68c-0.81,0.53-1.59,1.08-3.83,0.71c-0.61-0.1-1.82-0.35-1.92-0.2
			c-0.13,0.48,1.54,0.78,1.89,3.38c0.18,2.82,0.66,5.07,2.77,4.06C73.9,77.12,74.22,76.97,74.65,76.94"/>
		<path class="st40" d="M72.56,77.83c-0.25,0-0.48-0.06-0.68-0.18c-0.98-0.58-1.22-2.4-1.34-4.29c-0.22-1.64-1-2.33-1.47-2.73
			c-0.27-0.24-0.49-0.43-0.42-0.7l0.03-0.05c0.12-0.18,0.43-0.17,1.74,0.06c0.13,0.02,0.25,0.05,0.36,0.06
			c2.12,0.36,2.86-0.13,3.65-0.64l0.15-0.1l0.18,0.11c0.75,0.47,1.52,0.96,3.62,0.6c0.11-0.02,0.23-0.04,0.36-0.06
			c1.31-0.23,1.62-0.25,1.74-0.06l0.02,0.05c0.07,0.27-0.14,0.46-0.42,0.7c-0.47,0.41-1.24,1.09-1.47,2.75
			c-0.12,1.89-0.36,3.73-1.33,4.29c-0.45,0.26-1.03,0.23-1.7-0.09c-0.37-0.24-0.61-0.36-0.93-0.41c-0.35,0.02-0.64,0.14-1.05,0.42
			l-0.03,0.02C73.2,77.74,72.87,77.83,72.56,77.83 M69.05,70.1c0.06,0.07,0.17,0.17,0.26,0.25c0.5,0.44,1.34,1.18,1.59,2.97
			c0.1,1.62,0.32,3.52,1.16,4.02c0.34,0.2,0.78,0.17,1.34-0.09c0.39-0.27,0.75-0.45,1.24-0.48h0.02h0.02
			c0.43,0.06,0.75,0.24,1.08,0.45c0.55,0.26,0.99,0.3,1.34,0.1c0.82-0.48,1.04-2.3,1.15-4.01c0.24-1.8,1.09-2.54,1.59-2.98
			c0.09-0.08,0.2-0.17,0.26-0.25c-0.29,0-0.95,0.12-1.3,0.18c-0.13,0.02-0.26,0.05-0.36,0.06c-2.22,0.37-3.06-0.14-3.86-0.64
			c-0.79,0.52-1.64,1.04-3.86,0.67c-0.1-0.02-0.23-0.04-0.36-0.06C70.01,70.22,69.35,70.1,69.05,70.1"/>
		<path class="st41" d="M74.78,75.51c0.18,0.03,0.28,0.08,0.43,0.18c0.93,0.45,1.29-0.53,1.36-1.76c-0.03-1.56,0.7-2.85,0.63-3.05
			c-0.05-0.08-0.61,0.05-0.86,0.1c-0.98,0.18-1.31-0.08-1.66-0.3c-0.35,0.23-0.71,0.48-1.69,0.3c-0.25-0.05-0.93-0.13-0.98-0.08
			c-0.05,0.13,0.86,1.08,0.86,3.13c0.08,1.24,0.43,2.12,1.36,1.66C74.45,75.58,74.6,75.53,74.78,75.51"/>
		<path class="st42" d="M73.77,75.86c-0.12,0-0.23-0.03-0.33-0.09c-0.36-0.21-0.57-0.8-0.63-1.75c0-1.53-0.52-2.46-0.74-2.86
			c-0.1-0.17-0.13-0.24-0.11-0.29l0.01-0.02c0.09-0.09,0.96,0.05,1.03,0.06c0.93,0.17,1.28-0.06,1.62-0.27l0.06-0.04l0.08,0.05
			c0.32,0.21,0.66,0.43,1.58,0.26l0.1-0.02c0.59-0.12,0.76-0.13,0.81-0.06c0.04,0.09-0.01,0.25-0.13,0.59
			c-0.19,0.55-0.51,1.46-0.49,2.49c-0.06,1.01-0.28,1.62-0.66,1.84c-0.22,0.13-0.48,0.12-0.78-0.03c-0.15-0.1-0.24-0.15-0.41-0.17
			c-0.16,0.02-0.31,0.07-0.53,0.17C74.07,75.82,73.92,75.86,73.77,75.86 M72.06,70.93c0.02,0.04,0.06,0.11,0.1,0.18
			c0.23,0.4,0.76,1.35,0.76,2.9c0.06,0.91,0.25,1.47,0.58,1.66c0.19,0.11,0.42,0.1,0.71-0.04c0.24-0.11,0.39-0.16,0.57-0.18h0.01
			h0.01c0.19,0.03,0.3,0.08,0.45,0.18c0.26,0.13,0.49,0.14,0.67,0.03c0.34-0.2,0.55-0.8,0.61-1.75c-0.02-1.04,0.3-1.97,0.49-2.52
			c0.07-0.22,0.14-0.42,0.14-0.49c-0.09-0.03-0.51,0.06-0.7,0.1l-0.1,0.02c-0.96,0.17-1.31-0.06-1.65-0.28l-0.02-0.01l0,0
			c-0.35,0.23-0.72,0.46-1.7,0.29C72.73,70.97,72.2,70.92,72.06,70.93"/>
		<path class="st43" d="M74.73,70.94c-0.66,0.51-1.61,0.23-2.27,0.2c0.68,1.11,0.65,2.42,0.81,3.66c0.02,0.53,0.55,1.03,1.03,0.6
			c0.48-0.35,0.93,0.1,1.41,0.15c0.71-0.38,0.61-1.39,0.68-2.09c0.03-0.81,0.35-1.66,0.55-2.37C76.19,71.27,75.38,71.4,74.73,70.94"
			/>
		<path class="st44" d="M75.06,71.63c-0.03,0.98-0.05,2.14-0.08,3.23c0.08,0.03,0.18,0.05,0.25,0.1c0.25,0.18,0.58,0.18,0.55-0.2
			c0.23-1.01,0.05-2.09,0.53-3.05C75.89,71.78,75.46,71.73,75.06,71.63 M74.4,71.65c-0.4,0.1-0.83,0.05-1.16,0.1
			c0.43,1.06,0.25,2.32,0.63,3.35c0.2-0.13,0.4-0.23,0.63-0.25C74.45,73.79,74.45,72.71,74.4,71.65"/>
		<path class="st24" d="M73.37,70.69c-0.1-0.18,0.35-0.38,0.45-0.2c0.12,0.23,0.1,0.81,0.1,0.81S73.47,70.9,73.37,70.69"/>
		<path class="st39" d="M74.01,71.51l-0.15-0.14c-0.05-0.04-0.47-0.42-0.58-0.63c-0.04-0.07-0.04-0.14,0.01-0.21
			c0.04-0.06,0.1-0.11,0.14-0.13c0.16-0.09,0.39-0.11,0.48,0.05c0.14,0.24,0.12,0.8,0.11,0.86L74.01,71.51z M73.68,70.52
			L73.68,70.52c-0.05,0-0.1,0.02-0.15,0.04c-0.03,0.02-0.06,0.04-0.07,0.06l0,0v0.02c0.05,0.1,0.23,0.29,0.37,0.42
			c-0.01-0.19-0.03-0.42-0.09-0.54C73.73,70.52,73.69,70.52,73.68,70.52"/>
		<path class="st24" d="M75.48,70.62c0.1-0.18-0.35-0.38-0.45-0.2c-0.12,0.23-0.1,0.81-0.1,0.81S75.41,70.8,75.48,70.62"/>
		<path class="st39" d="M74.84,71.44l-0.01-0.21c0-0.06-0.02-0.61,0.11-0.86c0.04-0.08,0.12-0.12,0.23-0.12l0,0
			c0.15,0,0.32,0.09,0.39,0.2c0.04,0.07,0.04,0.14,0.01,0.21c-0.09,0.19-0.53,0.59-0.58,0.63L74.84,71.44z M75.17,70.45
			c-0.01,0-0.05,0-0.06,0.02c-0.06,0.11-0.08,0.35-0.09,0.53c0.16-0.15,0.33-0.34,0.37-0.42l0.01-0.01c0,0,0-0.01,0-0.02
			C75.37,70.51,75.26,70.45,75.17,70.45"/>
		<path class="st22" d="M77.35,70.95c0.13-0.63,0.58-0.45,0.91-0.58c0.38,0.43-0.4,2.17-0.83,2.12L77.35,70.95z"/>
		<path class="st39" d="M77.44,72.58c-0.01,0-0.02,0-0.03,0l-0.08-0.01l-0.08-1.63v-0.01c0.1-0.53,0.44-0.57,0.7-0.6
			c0.1-0.01,0.19-0.02,0.26-0.05l0.06-0.02l0.05,0.05c0.29,0.32,0.02,1.14-0.23,1.61C77.97,72.17,77.72,72.58,77.44,72.58
			 M77.45,70.95l0.07,1.41c0.11-0.06,0.26-0.24,0.42-0.54c0.28-0.54,0.4-1.11,0.29-1.34c-0.08,0.02-0.16,0.03-0.23,0.04
			C77.73,70.55,77.53,70.58,77.45,70.95"/>
		<path class="st24" d="M78.08,70.64c-0.63-0.02-0.51,0.63-0.45,1.39C77.85,71.65,78.18,71.02,78.08,70.64"/>
		<path class="st22" d="M71.25,70.85c-0.13-0.63-0.58-0.45-0.91-0.58c-0.38,0.43,0.4,2.17,0.83,2.12L71.25,70.85z"/>
		<path class="st39" d="M71.15,72.48c-0.27,0-0.53-0.41-0.66-0.67c-0.25-0.47-0.51-1.29-0.22-1.61l0.05-0.05l0.06,0.02
			c0.08,0.03,0.17,0.04,0.26,0.05c0.27,0.03,0.6,0.07,0.7,0.6v0.01l-0.08,1.63l-0.08,0.01C71.17,72.48,71.16,72.48,71.15,72.48
			 M70.38,70.38c-0.11,0.23,0,0.81,0.29,1.34c0.15,0.3,0.31,0.48,0.42,0.54l0.07-1.41c-0.08-0.38-0.28-0.4-0.53-0.43
			C70.54,70.41,70.46,70.4,70.38,70.38"/>
		<path class="st24" d="M70.49,70.57c0,0.51,0.23,0.98,0.48,1.39c-0.02-0.45,0.33-1.46-0.45-1.41H70.5v0.02H70.49z"/>
		<path class="st22" d="M72.03,76.49c0,0.81,1.44,0.58,1.51,0.03c0.05-0.86-0.5-1.51-0.38-2.35C72.66,74.73,72.06,75.31,72.03,76.49
			"/>
		<path class="st39" d="M72.68,77.12c-0.03,0-0.05,0-0.08,0c-0.41-0.03-0.67-0.27-0.67-0.62l0,0c0.02-1.15,0.58-1.75,1.06-2.28
			l0.32-0.35l-0.05,0.32c-0.06,0.41,0.05,0.78,0.17,1.17c0.11,0.36,0.23,0.74,0.2,1.16C73.59,76.89,73.11,77.12,72.68,77.12
			 M72.13,76.49c0,0.34,0.3,0.41,0.48,0.43c0.39,0.02,0.8-0.18,0.84-0.41c0.02-0.38-0.09-0.74-0.2-1.09c-0.1-0.31-0.2-0.63-0.2-0.97
			C72.59,74.95,72.15,75.49,72.13,76.49"/>
		<path class="st24" d="M72.86,74.85c-0.38,0.48-0.76,1.21-0.53,1.82c0.4,0.28,1.21-0.02,0.93-0.6c-0.08-0.45-0.25-0.86-0.33-1.31
			L72.86,74.85z"/>
		<path class="st22" d="M77.02,76.37c0,0.81-1.44,0.58-1.51,0.03c-0.05-0.86,0.5-1.51,0.38-2.35
			C76.39,74.63,76.97,75.18,77.02,76.37"/>
		<path class="st39" d="M76.37,76.99c-0.43,0-0.91-0.23-0.96-0.59c-0.03-0.43,0.09-0.81,0.2-1.17c0.12-0.39,0.24-0.76,0.18-1.17
			l-0.05-0.33l0.35,0.4c0.48,0.55,0.98,1.11,1.03,2.23v0.01c0,0.35-0.26,0.59-0.67,0.62C76.43,76.99,76.4,76.99,76.37,76.99
			 M76,74.33c-0.01,0.34-0.1,0.66-0.2,0.97c-0.11,0.35-0.22,0.7-0.2,1.09c0.03,0.23,0.44,0.43,0.83,0.41
			c0.18-0.01,0.48-0.08,0.48-0.42C76.88,75.37,76.45,74.83,76,74.33"/>
		<path class="st24" d="M76.09,74.68c-0.08,0.58-0.48,1.21-0.3,1.79c0.33,0.35,1.23,0.28,0.96-0.38
			C76.72,75.56,76.44,75.01,76.09,74.68"/>
		<path class="st45" d="M61.49,53.4c-1.16,0-1.82,1.21-1.29,4.36c0.23,0.66,0.53,1.18,0.86,1.66c0.18-1.44-0.33-3.6,0.55-4.49
			c0.76-0.76,2.27,0.68,3.35,0.45c-0.58-0.53-1.21-1.01-1.92-1.46C62.48,53.6,61.95,53.4,61.49,53.4"/>
		<path class="st45" d="M87.23,53.4c-0.45,0-1.01,0.2-1.59,0.53c-0.7,0.45-1.36,0.93-1.94,1.46c1.09,0.2,2.6-1.21,3.35-0.48
			c0.91,0.88,0.38,3.08,0.58,4.54c0.35-0.48,0.66-1.01,0.88-1.69C89.05,54.61,88.42,53.37,87.23,53.4"/>
		<path class="st40" d="M74.36,81.21c-0.18-0.01-0.37-0.01-0.57-0.01c-1.56,0.01-4.17,0.01-5.08-2.92c0-0.01-0.01-0.02-0.01-0.02
			c-0.07-0.4-0.09-0.76-0.11-1.1c-0.04-0.59-0.08-1.09-0.3-1.63c-0.24-0.43-0.52-0.84-0.8-1.24c-0.42-0.59-0.77-1.1-0.87-1.57
			c-0.09-0.58-0.23-1.2-0.61-1.75l-2.25-1.8c-1.34-1.37-2.52-3.1-1.26-5.72c0.05-0.08,0.09-0.15,0.13-0.22
			c0.3-0.5,0.56-0.93,0.05-1.52l-0.72-0.69c-0.05-0.05-0.07-0.13-0.05-0.19l0.06-0.16c-0.94-0.84-1.54-1.73-1.95-2.87
			c0-0.01-0.01-0.02-0.01-0.03c-0.38-2.31-0.18-3.77,0.62-4.32c0.59-0.41,1.44-0.31,2.53,0.3c0.73,0.47,1.35,0.93,1.88,1.41
			c1.18-0.87,2.91-1.35,4.44-1.77c0.37-0.1,0.72-0.2,1.06-0.3c2.96-2.6,4.88-2.58,7.85,0.08l0.27,0.08c1.72,0.49,3.67,1.05,5,1.95
			c0.53-0.47,1.15-0.94,1.9-1.44c1.07-0.61,1.94-0.72,2.53-0.31c0.8,0.56,1.02,2.01,0.63,4.32c0,0.01-0.01,0.02-0.01,0.03
			c-0.41,1.13-1.04,2.05-1.95,2.87l0.06,0.16c0.02,0.07,0.01,0.14-0.05,0.19l-0.73,0.71c-0.51,0.57-0.27,0.97,0.05,1.49
			c0.05,0.08,0.09,0.15,0.14,0.23c1.28,2.67,0.09,4.38-1.24,5.71l-2.26,1.81c-0.38,0.56-0.52,1.17-0.61,1.74
			c-0.1,0.49-0.46,1-0.88,1.59c-0.28,0.39-0.57,0.8-0.81,1.24c-0.22,0.52-0.25,1.02-0.3,1.61c-0.02,0.35-0.05,0.7-0.11,1.1
			c0,0.01,0,0.02-0.01,0.02c-0.91,2.94-3.51,2.93-5.07,2.92C74.72,81.21,74.53,81.21,74.36,81.21 M73.97,80.84
			c0.14,0,0.27,0,0.39,0.01c0.16-0.01,0.36-0.01,0.57,0c1.55,0,3.88,0.01,4.72-2.65c0.06-0.38,0.08-0.72,0.11-1.06
			c0.04-0.59,0.08-1.16,0.33-1.75c0.26-0.48,0.57-0.91,0.84-1.29c0.39-0.55,0.73-1.04,0.82-1.45c0.1-0.62,0.25-1.29,0.68-1.91
			c0.01-0.02,0.02-0.03,0.04-0.04l2.27-1.82c1.29-1.29,2.33-2.83,1.16-5.27c-0.04-0.06-0.08-0.14-0.13-0.21
			c-0.31-0.51-0.7-1.15,0-1.93l0.65-0.63l-0.06-0.17c-0.03-0.07-0.01-0.15,0.05-0.2c0.91-0.8,1.53-1.68,1.93-2.78
			c0.44-2.68-0.02-3.62-0.48-3.95c-0.59-0.41-1.48-0.05-2.13,0.32c-0.82,0.55-1.48,1.05-2.03,1.57l-0.98,1.05
			c-0.07,0.07-0.18,0.08-0.25,0.01c-0.08-0.06-0.08-0.18-0.02-0.25c0.27-0.34,0.57-0.67,0.92-0.99c-1.28-0.84-3.16-1.38-4.83-1.85
			l-0.31-0.09c-0.03-0.01-0.05-0.02-0.07-0.04c-2.88-2.59-4.55-2.6-7.42-0.08c-0.02,0.02-0.04,0.03-0.07,0.04
			c-0.35,0.1-0.72,0.21-1.1,0.31c-1.47,0.4-3.12,0.86-4.25,1.66l0.14,0.15c0.29,0.29,0.56,0.59,0.8,0.89
			c0.06,0.08,0.05,0.19-0.03,0.25s-0.19,0.05-0.25-0.02L65.2,55.8c-0.6-0.59-1.33-1.16-2.23-1.74c-0.64-0.36-1.55-0.72-2.13-0.32
			c-0.46,0.32-0.91,1.27-0.47,3.95c0.4,1.11,1,1.96,1.93,2.78c0.06,0.05,0.08,0.13,0.05,0.2l-0.06,0.17l0.65,0.62
			c0.7,0.8,0.31,1.44,0,1.96c-0.04,0.07-0.08,0.14-0.12,0.2c-1.15,2.4-0.11,3.96,1.18,5.28l2.25,1.8c0.01,0.01,0.03,0.02,0.04,0.04
			c0.43,0.62,0.58,1.29,0.68,1.92c0.08,0.39,0.42,0.87,0.81,1.42c0.27,0.39,0.58,0.83,0.84,1.29c0.26,0.61,0.3,1.17,0.34,1.76
			c0.02,0.33,0.05,0.68,0.11,1.06c0.83,2.66,3.17,2.66,4.72,2.65C73.85,80.84,73.91,80.84,73.97,80.84"/>
		<path class="st46" d="M109.37,55.53c-0.96-0.77-2.22-1.02-3.21-0.64c-0.88,0.34-1.45,1.13-1.61,2.22
			c-0.35,4.19-1.42,7.44-2.46,10.58c-0.21,0.65-0.43,1.3-0.63,1.95c-2.22,6.24-8.65,12.01-12.92,15.84c-1.01,1.01-1.42,2.5-1.2,3.97
			c0.12-0.02,0.24-0.05,0.36-0.06c-0.21-1.35,0.17-2.72,1.09-3.64c4.28-3.84,10.75-9.65,13.01-15.99c0.21-0.66,0.42-1.3,0.63-1.95
			c1.04-3.16,2.12-6.43,2.47-10.66c0.14-0.95,0.63-1.63,1.38-1.92c0.27-0.11,0.57-0.16,0.87-0.16c0.67,0,1.39,0.26,1.98,0.74
			c1.03,0.84,1.48,2.17,1.24,3.64l-1.72,7.26c-2.71,12.91-9.02,17.72-14.6,21.95c-1.52,1.16-2.98,2.27-4.3,3.49
			c0.01,0.16,0.02,0.32,0.03,0.47c1.36-1.29,2.88-2.45,4.49-3.67c5.62-4.28,12-9.12,14.73-22.17l1.72-7.27
			C111,57.91,110.5,56.45,109.37,55.53"/>
		<path class="st46" d="M55.09,88.47c-5.57-4.24-11.89-9.04-14.6-21.96l-1.71-7.25c-0.25-1.49,0.2-2.82,1.24-3.66
			c0.59-0.48,1.31-0.74,1.98-0.74c0.3,0,0.6,0.05,0.87,0.16c0.75,0.29,1.24,0.98,1.38,1.91c0.36,4.24,1.43,7.51,2.47,10.67
			c0.21,0.65,0.43,1.3,0.64,1.96c2.26,6.33,8.73,12.14,13,15.98c1.02,1.02,1.37,2.57,1.02,4.04c0.13-0.02,0.25-0.03,0.38-0.03
			c0.34-1.56-0.06-3.19-1.15-4.28c-4.26-3.82-10.68-9.59-12.91-15.83c-0.21-0.66-0.42-1.31-0.64-1.96
			c-1.03-3.14-2.1-6.39-2.46-10.59c-0.16-1.08-0.73-1.87-1.61-2.21c-1-0.39-2.26-0.14-3.21,0.63c-1.14,0.92-1.63,2.38-1.36,4.01
			l1.71,7.26c2.74,13.05,9.11,17.89,14.73,22.17c1.55,1.18,3.03,2.31,4.35,3.55c-0.03-0.19-0.04-0.37-0.04-0.54
			C57.92,90.63,56.54,89.57,55.09,88.47"/>
		<path class="st46" d="M90.01,95.24c-0.03-0.49-0.08-0.97-0.12-1.44c-0.04-0.38-0.07-0.77-0.1-1.16c-0.01-0.16-0.02-0.31-0.03-0.47
			c-0.03-0.54-0.05-1.1-0.03-1.68v-0.03l-0.01-0.03c-0.34-1-1.13-1.15-2.02-1.03c-0.12,0.02-0.24,0.04-0.36,0.06
			c-0.35,0.07-0.72,0.18-1.07,0.28c-0.42,0.12-0.82,0.23-1.19,0.29l-0.02,0.01c-0.8,0.24-1.43,0.24-2.5,0h-0.02l-19.12-0.1
			c-0.35-0.24-0.99-0.39-1.66-0.37c-0.12,0.01-0.25,0.01-0.38,0.03c-0.48,0.06-0.96,0.22-1.35,0.5c-0.42,0.3-0.83,0.82-0.85,1.69
			c0,0.17,0.01,0.35,0.04,0.54c0.04,0.23,0.1,0.48,0.19,0.76c-0.19,1.54,0.11,2.76,0.88,3.51c0.62,0.61,1.54,0.92,2.69,0.92
			c0.35,0,0.71-0.03,1.09-0.08l25.05-0.18h0.03C89.88,97.11,90.03,95.92,90.01,95.24 M89.1,96.88l-25.04,0.18h-0.03
			c-1.56,0.23-2.76-0.02-3.48-0.73c-0.69-0.68-0.96-1.8-0.77-3.24l0.01-0.04l-0.01-0.04c-0.03-0.07-0.04-0.14-0.06-0.21
			c-0.07-0.23-0.12-0.44-0.14-0.65c-0.09-0.77,0.13-1.37,0.67-1.75c0.3-0.21,0.66-0.34,1.02-0.41c0.13-0.02,0.26-0.04,0.4-0.05
			c0.07,0,0.15-0.01,0.22-0.01c0.59,0,1.13,0.14,1.36,0.33l0.05,0.04l19.2,0.1c1.13,0.25,1.8,0.25,2.66,0
			c0.38-0.06,0.79-0.18,1.22-0.3c0.38-0.11,0.72-0.2,1.04-0.26c0.13-0.03,0.25-0.05,0.36-0.06c0.79-0.11,1.34,0.04,1.6,0.75
			c-0.02,0.69,0.01,1.35,0.05,1.98c0.01,0.16,0.02,0.32,0.04,0.48c0.02,0.29,0.05,0.58,0.08,0.86c0.04,0.47,0.09,0.95,0.12,1.42
			C89.67,95.99,89.47,96.79,89.1,96.88"/>
	</g>
	<g>
		<polygon class="st0" points="14.11,97.97 22.69,97.97 15.75,103.16 18.4,94.8 21.07,103.16 		"/>
		<polygon class="st0" points="127.43,97.97 136,97.97 129.06,103.16 131.71,94.8 134.38,103.16 		"/>
	</g>
</g>
</svg>
