<?xml version="1.0" encoding="utf-8"?>
<!-- Generator: Adobe Illustrator 25.0.0, SVG Export Plug-In . SVG Version: 6.00 Build 0)  -->
<svg version="1.1" id="Calque_1" xmlns="http://www.w3.org/2000/svg" xmlns:xlink="http://www.w3.org/1999/xlink" x="0px" y="0px"
	 viewBox="0 0 150 150" style="enable-background:new 0 0 150 150;" xml:space="preserve">
<style type="text/css">
	.st0{fill:#FFFFFF;}
</style>
<g>
	<path class="st0" d="M75,1.28c19.69,0,38.2,7.67,52.12,21.59S148.71,55.31,148.71,75c0,19.69-7.67,38.2-21.59,52.12
		C113.2,141.05,94.69,148.72,75,148.72c-19.69,0-38.2-7.67-52.13-21.59C8.95,113.2,1.29,94.69,1.29,75
		c0-19.69,7.67-38.2,21.59-52.13C36.8,8.95,55.31,1.28,75,1.28 M75,0.16c-19.99,0-38.78,7.78-52.92,21.92
		C7.94,36.22,0.16,55.01,0.16,75c0,19.99,7.79,38.78,21.92,52.92c14.14,14.14,32.93,21.92,52.92,21.92
		c19.99,0,38.78-7.79,52.92-21.92c14.14-14.13,21.92-32.93,21.92-52.92c0-19.99-7.79-38.79-21.92-52.92
		C113.79,7.94,94.99,0.16,75,0.16"/>
	<polygon class="st0" points="24.31,116.61 31.34,110.41 32.4,111.61 26.43,116.88 28.82,119.59 27.77,120.52 	"/>
	<polygon class="st0" points="39.27,118.44 38.33,119.48 35.4,116.81 33.73,118.65 36.21,120.91 35.27,121.94 32.79,119.67 
		30.99,121.65 33.91,124.32 32.97,125.36 28.85,121.6 35.16,114.69 	"/>
	<path class="st0" d="M38.85,124.37l0.26-0.4c1.77-2.72,3.48-3.22,5.45-1.95c1.8,1.17,2.2,2.6,0.96,4.52l-0.22,0.34L43.95,126
		c0.81-1.25,0.91-2.11-0.08-2.76l-0.09-0.06c-1.16-0.75-2.14-0.1-3.29,1.68l-0.26,0.4c-1.15,1.78-1.35,2.93-0.11,3.73l0.09,0.06
		c0.55,0.36,1.1,0.45,1.5,0.41l0.99-1.52l-1.14-0.74l0.76-1.17l2.49,1.61L42.63,131c-0.84,0.13-1.91,0.07-3.23-0.8
		C37.33,128.87,37.09,127.09,38.85,124.37"/>
	<path class="st0" d="M45.71,128.73l0.2-0.43c1.39-2.93,2.98-3.68,5.11-2.67c2.11,1,2.54,2.71,1.15,5.64l-0.2,0.43
		c-1.39,2.93-2.98,3.68-5.09,2.68C44.75,133.36,44.32,131.66,45.71,128.73 M47.52,133.12c1.18,0.56,2.06-0.22,2.96-2.13l0.2-0.43
		c0.9-1.91,0.96-3.08-0.23-3.64l-0.1-0.05c-1.18-0.56-2.06,0.22-2.96,2.13l-0.21,0.44c-0.9,1.91-0.95,3.08,0.23,3.64L47.52,133.12z"
		/>
	<path class="st0" d="M52.81,133.63l1.96-6.12l1.53,0.49l-1.94,6.06c-0.38,1.18-0.11,1.81,1.04,2.17c1.14,0.37,1.72,0.01,2.1-1.17
		l1.94-6.06l1.53,0.49l-1.96,6.11c-0.64,2-1.79,2.68-4.04,1.96C52.71,136.85,52.17,135.63,52.81,133.63"/>
	<polygon class="st0" points="62.13,139.32 61.38,129.62 63.08,129.93 63.56,137.71 66.71,130.58 68.41,130.89 64.32,139.71 	"/>
	<polygon class="st0" points="74.54,131.22 74.46,132.63 70.51,132.39 70.36,134.88 73.72,135.07 73.64,136.47 70.28,136.27 
		70.12,138.94 74.08,139.17 74,140.57 68.43,140.25 68.98,130.9 	"/>
	<path class="st0" d="M77.48,140.49l-1.6,0.1l-0.54-9.35l2.92-0.17c1.47-0.09,3.16,0.25,3.3,2.63l0.01,0.24
		c0.09,1.5-0.54,2.27-1.38,2.65l1.74,3.65l-1.74,0.1l-1.55-3.41L77.28,137L77.48,140.49z M78.57,135.51
		c0.62-0.04,1.43-0.31,1.35-1.54l-0.01-0.13c-0.07-1.24-0.9-1.42-1.52-1.38l-1.38,0.08l0.18,3.06L78.57,135.51z"/>
	<polygon class="st0" points="90.45,138.77 88.77,139.08 84.18,133.38 84.59,135.32 85.42,139.71 83.93,140 82.19,130.8 
		83.86,130.49 88.46,136.18 88.04,134.25 87.21,129.85 88.71,129.57 	"/>
	<polygon class="st0" points="95,127.57 95.43,128.9 91.65,130.12 92.41,132.49 95.62,131.45 96.04,132.78 92.84,133.81 
		93.66,136.36 97.43,135.14 97.87,136.48 92.56,138.19 89.69,129.28 	"/>
	<polygon class="st0" points="104.47,133.54 103.03,134.24 98.35,129.22 99.24,130.93 101.28,135.1 99.83,135.8 95.71,127.39 
		97.84,126.35 102.53,131.38 101.44,124.59 103.56,123.55 107.68,131.97 106.23,132.68 104.19,128.51 103.39,126.75 	"/>
	<polygon class="st0" points="108.93,119.83 109.72,120.99 106.44,123.22 107.84,125.28 110.62,123.39 111.4,124.54 108.62,126.43 
		110.13,128.65 113.41,126.42 114.2,127.58 109.59,130.71 104.32,122.96 	"/>
	<polygon class="st0" points="120.73,122.03 119.45,123.15 112.59,120.58 113.93,122.04 116.89,125.4 115.75,126.41 109.56,119.38 
		110.84,118.25 117.71,120.82 116.36,119.36 113.41,116 114.55,114.99 	"/>
	<polygon class="st0" points="124.45,117.98 123.38,119.18 117.44,113.88 115.95,115.55 114.9,114.62 118.95,110.08 119.99,111.02 
		118.51,112.68 	"/>
	<path class="st0" d="M18.01,80.44l0.11,1.51L9.3,82.59l-0.2-2.75C9,78.46,9.3,76.86,11.53,76.7l0.23-0.02
		c1.41-0.1,2.15,0.48,2.52,1.26l3.42-1.69l0.12,1.64l-3.2,1.51l0.09,1.29L18.01,80.44z M13.3,79.48c-0.05-0.59-0.32-1.34-1.48-1.25
		l-0.12,0.01c-1.17,0.09-1.32,0.87-1.29,1.45l0.1,1.3l2.88-0.21L13.3,79.48z"/>
	<path class="st0" d="M7.11,70.87l1.22,0.76l-0.06,1.47l-1.22-0.68L7.11,70.87z M9.08,69.81l1.32,0.05l-0.14,3.73l2.34,0.09
		l0.12-3.16l1.31,0.05l-0.11,3.17l2.52,0.09l0.14-3.73l1.32,0.05l-0.19,5.25l-8.83-0.33L9.08,69.81z"/>
	<path class="st0" d="M18.19,67.85l-0.22,1.5l-8.75-1.28l0.4-2.73c0.2-1.37,0.83-2.87,3.05-2.55l0.23,0.03
		c2.23,0.33,2.41,1.94,2.21,3.31l-0.18,1.23L18.19,67.85z M13.8,65.89c0.09-0.58-0.02-1.38-1.17-1.54l-0.12-0.02
		c-1.16-0.17-1.48,0.56-1.57,1.15l-0.19,1.29l2.86,0.41L13.8,65.89z"/>
	<path class="st0" d="M16.24,62.34l-5.85-1.58l0.39-1.46l5.8,1.56c1.13,0.3,1.71,0.02,2-1.08c0.3-1.09-0.06-1.63-1.19-1.93
		l-5.79-1.56l0.39-1.46l5.85,1.58c1.92,0.52,2.6,1.57,2.02,3.72C19.28,62.29,18.15,62.86,16.24,62.34"/>
	<path class="st0" d="M13.65,50.4c0.53-1.3,1.46-2.42,3.25-1.7l0.21,0.09c0.81,0.33,1.13,0.9,1.19,1.54
		c0.53-0.53,1.23-0.81,2.17-0.43l0.21,0.09c1.87,0.75,1.76,2.27,1.22,3.62l-1.05,2.62l-8.2-3.31L13.65,50.4z M14.43,52l2.15,0.87
		l0.45-1.1c0.23-0.59,0.24-1.25-0.55-1.56l-0.13-0.06c-0.79-0.32-1.24,0.16-1.48,0.75L14.43,52z M17.82,53.37l2.36,0.95l0.51-1.26
		c0.25-0.61,0.22-1.32-0.63-1.66l-0.12-0.04c-0.85-0.34-1.36,0.15-1.61,0.75L17.82,53.37z"/>
	<polygon class="st0" points="23.41,50.08 15.61,45.93 16.32,44.59 22.95,48.12 24.55,45.11 25.72,45.73 	"/>
	
		<rect x="22" y="37.81" transform="matrix(0.5325 -0.8465 0.8465 0.5325 -25.1077 39.0057)" class="st0" width="1.52" height="8.84"/>
	<path class="st0" d="M24.02,40.56l-0.36-0.27c-2.43-1.84-2.82-3.45-1.48-5.22c1.33-1.76,2.99-1.83,5.42,0.02l0.37,0.27
		c1.77,1.34,2.45,2.55,2.19,3.79l1.33,0.36l-0.73,0.97l-1.03-0.3c-0.09,0.13-0.17,0.27-0.27,0.39
		C28.12,42.34,26.46,42.41,24.02,40.56 M28.75,38.74c-0.06-0.66-0.66-1.36-1.72-2.15l-0.36-0.27c-1.59-1.2-2.66-1.47-3.4-0.49
		l-0.06,0.08c-0.74,0.98-0.19,1.94,1.4,3.15l0.36,0.27c1.59,1.2,2.66,1.47,3.41,0.49l0.02-0.03l-1.71-0.5l0.7-0.93L28.75,38.74z"/>
	<path class="st0" d="M29.81,35.38l-4.35-4.22l1.06-1.09l4.31,4.18c0.83,0.81,1.48,0.85,2.27,0.03c0.79-0.81,0.73-1.45-0.1-2.27
		l-4.31-4.18l1.06-1.09l4.35,4.22c1.42,1.38,1.51,2.64-0.04,4.24C32.49,36.82,31.24,36.76,29.81,35.38"/>
	<polygon class="st0" points="35.28,22.13 36.12,23.15 33.23,25.52 34.71,27.33 37.17,25.33 38,26.34 35.55,28.35 37.14,30.31 
		40.04,27.94 40.88,28.96 36.81,32.29 31.22,25.46 	"/>
	<path class="st0" d="M45.47,25.95l-2.24,1.33l-4.5-7.6l2.24-1.33c2.13-1.27,3.7-0.88,5.25,1.75l0.23,0.39
		C48.01,23.13,47.61,24.69,45.47,25.95 M44.72,24.86c1.35-0.8,1.42-1.85,0.4-3.57l-0.23-0.39c-1.02-1.72-1.97-2.16-3.32-1.36
		l-0.86,0.51l3.16,5.32L44.72,24.86z"/>
	<path class="st0" d="M50.54,13.55l0.54,1.21l-3.42,1.53l0.96,2.14l2.9-1.29l0.53,1.2l-2.89,1.3l1.03,2.3l3.41-1.52l0.54,1.21
		l-4.8,2.14l-3.61-8.06L50.54,13.55z M48.72,12.26l-0.15,1.43l-1.34,0.6l0.07-1.4L48.72,12.26z"/>
	<polygon class="st0" points="59.46,19.89 58.01,20.32 54.45,14.92 55.01,16.65 56.25,20.84 54.8,21.27 52.3,12.8 54.44,12.17 
		57.99,17.59 58.05,11.11 60.19,10.47 62.69,18.94 61.23,19.37 60,15.18 59.52,13.42 	"/>
	<path class="st0" d="M62.88,14.68l-0.06-0.45c-0.44-3.03,0.43-4.45,2.62-4.76c2.18-0.31,3.41,0.8,3.85,3.83l0.06,0.45
		c0.44,3.03-0.43,4.45-2.61,4.76C64.54,18.82,63.32,17.71,62.88,14.68 M66.6,17.19c1.22-0.18,1.5-1.25,1.22-3.22l-0.06-0.45
		c-0.29-1.97-0.86-2.92-2.08-2.74l-0.1,0.02c-1.22,0.18-1.5,1.24-1.22,3.22l0.06,0.45c0.29,1.97,0.86,2.92,2.08,2.75L66.6,17.19z"/>
	<path class="st0" d="M73.76,16.6l0.1,0c1.03-0.02,1.41-0.72,1.38-1.84l1.53-0.03l0,0.11c0.05,2.09-0.95,3.04-2.98,3.09
		c-2.21,0.05-3.26-1.21-3.33-4.27l-0.01-0.46c-0.07-3.06,0.92-4.36,3.13-4.41c2.03-0.05,3.07,0.86,3.12,3.01l0.01,0.38l-1.53,0.04
		c-0.03-1.4-0.4-2.13-1.48-2.11l-0.1,0c-1.26,0.03-1.64,1.06-1.59,3.05l0.01,0.45C72.07,15.62,72.49,16.63,73.76,16.6"/>
	<path class="st0" d="M79.14,17.9l-1.51-0.14l0.82-8.79l2.75,0.26c1.38,0.13,2.91,0.68,2.69,2.92l-0.02,0.22
		c-0.13,1.41-0.82,2.04-1.66,2.28l1.1,3.65l-1.64-0.15l-0.96-3.4l-1.28-0.12L79.14,17.9z M80.86,13.43
		c0.59,0.06,1.37-0.09,1.48-1.25l0.02-0.12c0.11-1.16-0.64-1.45-1.23-1.5l-1.3-0.12l-0.27,2.88L80.86,13.43z"/>
	<path class="st0" d="M89.74,10.53l0.43,9.18l-1.6-0.34l-0.06-2.08l-2.44-0.52l-0.89,1.87l-1.61-0.34l4.12-8.22L89.74,10.53z
		 M86.66,15.54l1.81,0.38l-0.11-3.92L86.66,15.54z"/>
	<polygon class="st0" points="93.15,20.7 91.7,20.24 93.99,13.09 91.98,12.45 92.38,11.18 97.84,12.92 97.44,14.19 95.43,13.55 	"/>
	
		<rect x="93.7" y="17.08" transform="matrix(0.3755 -0.9268 0.9268 0.3755 44.7417 102.0792)" class="st0" width="8.84" height="1.52"/>
	<path class="st0" d="M99.96,18.77l0.21-0.4c1.39-2.73,2.91-3.39,4.89-2.38c1.97,1.01,2.32,2.63,0.93,5.35l-0.21,0.4
		c-1.01,1.98-2.09,2.87-3.36,2.83l-0.13,1.37l-1.08-0.55l0.12-1.07c-0.15-0.06-0.3-0.13-0.44-0.2
		C98.92,23.12,98.57,21.49,99.96,18.77 M102.58,23.11c0.64-0.18,1.22-0.89,1.82-2.07l0.21-0.4c0.91-1.78,0.99-2.88-0.11-3.44
		l-0.09-0.05c-1.1-0.56-1.95,0.15-2.86,1.93l-0.21,0.4c-0.91,1.78-0.99,2.88,0.11,3.44l0.03,0.02l0.19-1.77l1.04,0.53L102.58,23.11z
		"/>
	<path class="st0" d="M106.1,23.59l3.4-5.02l1.25,0.85l-3.37,4.97c-0.65,0.96-0.58,1.6,0.37,2.24c0.94,0.64,1.56,0.47,2.21-0.5
		l3.37-4.97l1.26,0.85l-3.4,5.02c-1.11,1.64-2.33,1.95-4.18,0.7C105.15,26.48,104.99,25.23,106.1,23.59"/>
	<polygon class="st0" points="120.12,26.68 119.25,27.68 116.42,25.25 114.89,27.02 117.29,29.09 116.44,30.09 114.03,28.02 
		112.39,29.93 115.22,32.37 114.35,33.38 110.37,29.95 116.13,23.25 	"/>
	<path class="st0" d="M118.1,37.36l-1.7-1.98l6.69-5.76l1.7,1.98c1.62,1.88,1.5,3.49-0.81,5.48l-0.35,0.3
		C121.32,39.37,119.72,39.24,118.1,37.36 M119.04,36.43c1.02,1.19,2.07,1.07,3.58-0.23l0.34-0.3c1.51-1.3,1.79-2.31,0.76-3.51
		l-0.65-0.76l-4.69,4.03L119.04,36.43z"/>
	<path class="st0" d="M123.23,39.18l5.04-3.37l0.84,1.26l-4.99,3.34c-0.97,0.65-1.14,1.27-0.51,2.22c0.63,0.94,1.27,1.02,2.24,0.37
		l4.99-3.33l0.84,1.26l-5.04,3.36c-1.65,1.1-2.9,0.93-4.13-0.93C121.27,41.51,121.58,40.29,123.23,39.18"/>
	<path class="st0" d="M128.12,50.72l0.04,0.09c0.43,0.94,1.22,1.01,2.23,0.54l0.64,1.39l-0.11,0.05c-1.89,0.87-3.16,0.33-4-1.51
		c-0.92-2.01-0.18-3.47,2.6-4.74l0.41-0.19c2.78-1.27,4.37-0.88,5.29,1.13c0.84,1.84,0.43,3.16-1.53,4.05l-0.35,0.16l-0.63-1.39
		c1.28-0.59,1.8-1.21,1.35-2.19l-0.04-0.09c-0.52-1.14-1.62-1.09-3.43-0.26l-0.41,0.19C128.35,48.78,127.59,49.57,128.12,50.72"/>
	<path class="st0" d="M132.55,53.3l0.43-0.14c2.92-0.93,4.46-0.31,5.12,1.81c0.67,2.1-0.23,3.5-3.15,4.42l-0.43,0.14
		c-2.92,0.92-4.46,0.31-5.12-1.8C128.74,55.61,129.64,54.22,132.55,53.3 M130.69,57.37c0.37,1.18,1.48,1.28,3.37,0.68l0.43-0.14
		c1.9-0.6,2.74-1.32,2.37-2.5l-0.03-0.1c-0.38-1.18-1.47-1.28-3.38-0.68l-0.43,0.14c-1.9,0.6-2.74,1.32-2.37,2.5L130.69,57.37z"/>
	<polygon class="st0" points="131.84,67.73 131.55,66.15 136.97,61.84 135.13,62.22 130.97,62.98 130.72,61.57 139.42,59.98 
		139.7,61.57 134.29,65.87 136.12,65.49 140.28,64.73 140.54,66.15 	"/>
	<path class="st0" d="M136.13,68.29l0.45-0.02c3.05-0.17,4.39,0.86,4.51,3.07c0.11,2.03-0.76,3.13-2.91,3.25l-0.38,0.02l-0.09-1.52
		c1.4-0.08,2.12-0.48,2.06-1.59l-0.01-0.1c-0.07-1.3-1.11-1.69-3.1-1.58l-0.45,0.02c-1.99,0.11-2.99,0.59-2.91,1.99l0.01,0.1
		c0.03,0.62,0.26,1.09,0.52,1.37l1.71-0.09l-0.07-1.28l1.31-0.07l0.15,2.79l-3.76,0.2c-0.57-0.57-1.11-1.41-1.19-2.91
		C131.85,69.62,133.07,68.46,136.13,68.29"/>
	<path class="st0" d="M136.48,75.97l0.45,0.03c3.05,0.21,4.25,1.35,4.1,3.56c-0.15,2.2-1.5,3.16-4.55,2.95l-0.45-0.03
		c-3.05-0.21-4.25-1.35-4.1-3.55C132.08,76.72,133.43,75.76,136.48,75.97 M133.25,79.07c-0.08,1.23,0.9,1.73,2.89,1.87l0.45,0.03
		c1.99,0.14,3.04-0.22,3.12-1.45l0-0.1c0.09-1.23-0.9-1.73-2.89-1.87l-0.45-0.03c-1.99-0.13-3.03,0.22-3.12,1.45L133.25,79.07z"/>
	<polygon class="st0" points="13.91,97.41 22.47,97.41 15.54,102.6 18.19,94.24 20.86,102.6 	"/>
	<polygon class="st0" points="127.4,97.31 135.93,97.31 129.03,102.48 131.66,94.16 134.32,102.48 	"/>
	<path class="st0" d="M74.67,81.44c-0.62-0.05-1.48-0.06-2.32-0.2c-1.43-0.25-2.37-1.12-2.81-2.51c-0.12-0.39-0.12-0.81-0.17-1.22
		c-0.03-0.29-0.04-0.58-0.07-0.87c-0.06-0.48-0.24-0.91-0.51-1.3c-0.3-0.44-0.59-0.88-0.89-1.32c-0.3-0.43-0.5-0.88-0.57-1.4
		c-0.04-0.27-0.13-0.53-0.22-0.78c-0.13-0.37-0.34-0.67-0.65-0.91c-0.6-0.45-1.19-0.91-1.75-1.4c-0.75-0.65-1.35-1.42-1.68-2.37
		c-0.42-1.2-0.19-2.35,0.38-3.45c0.07-0.15,0.17-0.29,0.24-0.45c0.28-0.56,0.21-0.95-0.24-1.38c-0.18-0.17-0.37-0.34-0.54-0.52
		c-0.05-0.05-0.12-0.17-0.1-0.22c0.08-0.18-0.02-0.26-0.13-0.36c-0.64-0.59-1.13-1.28-1.52-2.06c-0.23-0.48-0.32-0.98-0.37-1.5
		c-0.07-0.72-0.12-1.44,0.03-2.15c0.04-0.19,0.09-0.37,0.17-0.55c0.29-0.69,0.86-0.99,1.58-0.85c0.51,0.1,0.99,0.3,1.42,0.6
		c0.54,0.39,1.07,0.8,1.6,1.21c0.1,0.08,0.18,0.13,0.31,0.04c0.83-0.6,1.78-0.96,2.76-1.26c0.75-0.23,1.52-0.45,2.28-0.67
		c0.22-0.06,0.4-0.16,0.57-0.31c0.57-0.5,1.17-0.95,1.86-1.29c1.13-0.56,2.26-0.55,3.38,0.02c0.7,0.35,1.31,0.82,1.91,1.34
		c0.17,0.15,0.35,0.24,0.56,0.31c1.04,0.33,2.09,0.64,3.11,1.02c0.58,0.22,1.13,0.54,1.67,0.84c0.17,0.09,0.25,0.07,0.38-0.04
		c0.65-0.56,1.32-1.1,2.09-1.49c0.39-0.2,0.8-0.35,1.25-0.36c0.58-0.01,0.98,0.25,1.24,0.77c0.2,0.41,0.3,0.86,0.29,1.31
		c-0.01,0.71-0.04,1.42-0.14,2.13c-0.11,0.77-0.53,1.42-0.98,2.03c-0.25,0.33-0.55,0.63-0.84,0.93c-0.09,0.09-0.16,0.16-0.12,0.31
		c0.02,0.08-0.04,0.19-0.1,0.25c-0.17,0.19-0.36,0.35-0.54,0.52c-0.44,0.43-0.5,0.83-0.23,1.38c0.2,0.42,0.44,0.83,0.59,1.28
		c0.44,1.26,0.27,2.47-0.46,3.58c-0.39,0.6-0.85,1.13-1.42,1.57c-0.54,0.42-1.07,0.87-1.61,1.29c-0.2,0.16-0.37,0.34-0.46,0.58
		c-0.13,0.38-0.27,0.77-0.36,1.17c-0.08,0.35-0.16,0.68-0.36,0.98c-0.33,0.5-0.66,1.01-1.01,1.49c-0.4,0.58-0.59,1.22-0.62,1.91
		c-0.02,0.47-0.02,0.95-0.13,1.4c-0.22,0.88-0.69,1.61-1.46,2.13c-0.55,0.38-1.17,0.59-1.84,0.65
		C76.4,81.37,75.65,81.38,74.67,81.44 M82.34,55.32c-0.09-0.06-0.17-0.14-0.27-0.18c-0.32-0.12-0.63-0.24-0.96-0.35
		c-0.87-0.29-1.74-0.56-2.6-0.85c-0.11-0.04-0.18-0.01-0.27,0.04c-0.18,0.09-0.37,0.19-0.57,0.21c-0.38,0.03-0.57-0.26-0.4-0.61
		c0.06-0.14,0.18-0.26,0.27-0.39c-1.73-1.51-3.45-1.43-5.14,0.04c0.09,0.13,0.2,0.26,0.25,0.4c0.13,0.34-0.05,0.59-0.41,0.57
		c-0.12,0-0.28-0.01-0.37-0.09c-0.26-0.22-0.49-0.17-0.79-0.06c-0.51,0.2-1.04,0.31-1.57,0.46c-0.95,0.27-1.88,0.58-2.76,1.05
		c-0.34,0.18-0.34,0.17-0.08,0.46c0.3,0.32,0.58,0.67,0.64,1.13c0.02,0.11-0.01,0.23-0.01,0.34c-0.11-0.02-0.23-0.02-0.34-0.07
		c-0.52-0.22-1.03-0.47-1.56-0.68c-0.4-0.17-0.81-0.35-1.23-0.44c-0.81-0.17-1.25-0.01-1.45,0.89c-0.08,0.35-0.07,0.74-0.01,1.1
		c0.07,0.47,0.23,0.91,0.35,1.36c0.1,0.38,0.27,0.75,0.3,1.13c0.03,0.35,0.17,0.57,0.44,0.76c0.28,0.2,0.44,0.48,0.48,0.83
		c0.05,0.37,0.01,0.72-0.15,1.05c-0.16,0.32-0.33,0.64-0.48,0.97c-0.36,0.77-0.42,1.58-0.17,2.4c0.35,1.1,1.04,1.94,1.93,2.64
		c0.57,0.45,1.19,0.83,1.69,1.38c0.38,0.41,0.61,0.9,0.71,1.46c0.05,0.33,0.13,0.68,0.29,0.97c0.24,0.46,0.53,0.89,0.84,1.31
		c0.65,0.87,0.97,1.84,0.96,2.93c0,0.27,0.01,0.54,0.06,0.81c0.27,1.17,1.21,2.22,2.46,2.41c0.46,0.07,0.93,0.16,1.39,0.16
		c0.93,0.01,1.86-0.03,2.8-0.06c0.31-0.01,0.62-0.03,0.91-0.11c1.31-0.34,2.16-1.16,2.44-2.51c0.08-0.38,0.06-0.77,0.09-1.17
		c0.06-0.77,0.25-1.5,0.69-2.15c0.19-0.27,0.4-0.52,0.59-0.79c0.39-0.56,0.71-1.16,0.8-1.85c0.06-0.43,0.21-0.81,0.46-1.16
		c0.36-0.51,0.85-0.89,1.36-1.24c0.87-0.59,1.61-1.3,2.13-2.23c0.6-1.07,0.7-2.15,0.15-3.27c-0.15-0.31-0.31-0.6-0.45-0.91
		c-0.33-0.74-0.22-1.32,0.33-1.9c0.07-0.08,0.17-0.15,0.23-0.24c0.11-0.16,0.22-0.31,0.28-0.48c0.32-0.9,0.44-1.85,0.64-2.78
		c0.05-0.28,0.05-0.59-0.01-0.87c-0.13-0.66-0.91-1.12-1.62-0.98c-0.59,0.12-1.09,0.42-1.61,0.69c-0.36,0.19-0.73,0.38-1.1,0.55
		c-0.31,0.13-0.41,0.02-0.33-0.31c0.08-0.34,0.25-0.63,0.48-0.89c0.09-0.1,0.17-0.19,0.25-0.29c0.07-0.09,0.06-0.18-0.04-0.22
		c-0.31-0.14-0.61-0.26-0.92-0.4H82.34z"/>
	<path class="st0" d="M82.35,55.32c0.25,0.15,0.33,0.3,0.27,0.53c-0.05,0.2-0.25,0.39-0.46,0.41c-0.25,0.02-0.46-0.1-0.55-0.32
		c-0.06-0.16-0.02-0.29,0.08-0.41c0.15-0.18,0.33-0.28,0.57-0.24c0.03,0.01,0.05,0.03,0.08,0.04H82.35z"/>
	<path class="st0" d="M74.84,68.34c-0.37,0.02-0.69-0.11-0.96-0.41c-0.27-0.3-0.58-0.58-0.85-0.88c-0.13-0.15-0.25-0.32-0.31-0.5
		c-0.13-0.43,0.23-0.82,0.66-0.74c0.19,0.04,0.37,0.14,0.54,0.24c0.1,0.06,0.18,0.15,0.27,0.24c0.47,0.46,0.84,0.45,1.31-0.01
		c0.17-0.17,0.35-0.32,0.57-0.43c0.34-0.18,0.71-0.08,0.91,0.19c0.2,0.27,0.19,0.64-0.07,0.94c-0.35,0.37-0.7,0.73-1.07,1.08
		C75.56,68.3,75.21,68.35,74.84,68.34"/>
	<path class="st0" d="M64.7,65.01c0.07,0.11,0.13,0.17,0.14,0.23c0.03,0.18,0.05,0.36,0.06,0.53c0.04,0.4,0.08,0.8,0.14,1.19
		c0.08,0.46,0.28,0.87,0.59,1.22c0.09,0.1,0.2,0.2,0.27,0.32c0.06,0.09,0.14,0.25,0.1,0.31c-0.08,0.13-0.24,0.05-0.34-0.01
		c-0.13-0.08-0.27-0.17-0.39-0.27c-0.49-0.45-0.69-1.04-0.82-1.67c-0.1-0.54-0.06-1.07,0.11-1.6C64.6,65.2,64.64,65.14,64.7,65.01"
		/>
	<path class="st0" d="M85.5,66.11c-0.03,0.94-0.21,1.67-0.74,2.27c-0.17,0.19-0.42,0.32-0.64,0.47c-0.05,0.03-0.2,0.01-0.21-0.01
		c-0.03-0.07-0.02-0.18,0.01-0.24c0.06-0.11,0.16-0.2,0.25-0.3c0.45-0.46,0.68-1.03,0.74-1.66c0.04-0.41,0.08-0.81,0.12-1.22
		c0-0.05,0-0.1,0.02-0.15c0.03-0.07,0.09-0.13,0.13-0.19c0.05,0.05,0.13,0.1,0.14,0.16C85.41,65.57,85.47,65.92,85.5,66.11"/>
	<path class="st0" d="M80.8,58.11c-0.35,0-0.51-0.15-0.45-0.43c0.06-0.27,0.15-0.54,0.29-0.78c0.13-0.24,0.34-0.28,0.55-0.11
		c0.18,0.15,0.34,0.33,0.46,0.53c0.13,0.2,0.06,0.37-0.13,0.52C81.29,58.01,81.02,58.09,80.8,58.11"/>
	<path class="st0" d="M73.59,59.23c-0.13-0.07-0.23-0.11-0.3-0.16c-0.51-0.39-0.91-0.86-1.22-1.42c-0.04-0.06-0.06-0.13-0.08-0.19
		c-0.03-0.16,0.06-0.26,0.22-0.22c0.1,0.02,0.2,0.08,0.29,0.14c0.47,0.36,0.85,0.81,1.14,1.33c0.06,0.09,0.1,0.2,0.1,0.31
		C73.74,59.08,73.65,59.15,73.59,59.23"/>
	<path class="st0" d="M69.12,58.11c-0.24,0-0.49-0.09-0.71-0.25c-0.2-0.15-0.27-0.33-0.13-0.54c0.13-0.2,0.29-0.38,0.47-0.52
		c0.2-0.16,0.38-0.11,0.53,0.11c0.17,0.24,0.27,0.51,0.28,0.8C69.57,58.03,69.48,58.12,69.12,58.11"/>
	<path class="st0" d="M77.92,57.42c-0.02,0.06-0.04,0.15-0.08,0.22c-0.31,0.54-0.71,1.01-1.2,1.39c-0.12,0.09-0.26,0.24-0.42,0.09
		c-0.15-0.13-0.03-0.29,0.04-0.41c0.3-0.54,0.69-1,1.17-1.37c0.08-0.06,0.17-0.11,0.26-0.13C77.83,57.17,77.92,57.25,77.92,57.42"/>
	<path class="st0" d="M69.59,74.47c0.03-0.04,0.07-0.12,0.11-0.2c0.08,0.04,0.17,0.07,0.22,0.13c0.31,0.5,0.55,1.03,0.67,1.61
		c0.05,0.23-0.06,0.42-0.25,0.52c-0.27,0.13-0.45,0.05-0.49-0.24c-0.06-0.31-0.1-0.63-0.14-0.95
		C69.67,75.08,69.64,74.81,69.59,74.47"/>
	<path class="st0" d="M80.31,74.59c-0.08,0.59-0.17,1.19-0.25,1.78c-0.03,0.17-0.15,0.23-0.31,0.21c-0.26-0.03-0.48-0.28-0.43-0.55
		c0.12-0.61,0.37-1.16,0.7-1.68c0.03-0.05,0.13-0.06,0.19-0.1c0.03,0.06,0.06,0.12,0.08,0.18c0.01,0.05,0,0.1,0,0.15
		C80.3,74.59,80.31,74.59,80.31,74.59"/>
	<path class="st0" d="M77.12,56.1c-0.37-0.03-0.48-0.09-0.56-0.32c-0.08-0.26,0.01-0.66,0.2-0.79c0.08-0.06,0.2-0.1,0.3-0.08
		c0.32,0.05,0.6,0.2,0.82,0.44c0.21,0.23,0.17,0.45-0.11,0.57C77.56,56.01,77.33,56.05,77.12,56.1"/>
	<path class="st0" d="M73.4,55.56c-0.02,0.37-0.15,0.54-0.51,0.53c-0.25-0.01-0.51-0.07-0.75-0.16c-0.28-0.11-0.31-0.35-0.09-0.57
		c0.2-0.21,0.45-0.36,0.74-0.42c0.26-0.05,0.4,0.02,0.5,0.25C73.35,55.31,73.37,55.44,73.4,55.56"/>
	<path class="st0" d="M67.95,59.46c-0.01,0.24-0.13,0.38-0.37,0.37c-0.29-0.02-0.57-0.1-0.8-0.28c-0.21-0.16-0.25-0.37-0.08-0.57
		c0.12-0.14,0.29-0.25,0.45-0.33c0.19-0.09,0.38-0.04,0.53,0.14C67.82,58.96,67.95,59.27,67.95,59.46"/>
	<path class="st0" d="M82.53,59.79c-0.47,0.02-0.59-0.11-0.54-0.45c0.02-0.1,0.04-0.2,0.08-0.29c0.1-0.22,0.22-0.46,0.49-0.47
		c0.3-0.01,0.53,0.15,0.69,0.4c0.13,0.2,0.1,0.37-0.09,0.52C82.94,59.7,82.68,59.79,82.53,59.79"/>
	<path class="st0" d="M83.09,61.67c-0.05,0.54-0.2,0.98-0.6,1.28c-0.16,0.12-0.36,0.22-0.55,0.27c-0.25,0.07-0.34-0.06-0.24-0.3
		c0.05-0.12,0.11-0.24,0.19-0.33c0.3-0.34,0.61-0.68,0.92-1.01c0.04-0.05,0.15-0.08,0.21-0.05C83.07,61.54,83.08,61.64,83.09,61.67"
		/>
	<path class="st0" d="M79.24,57.85c-0.03,0.06-0.05,0.17-0.1,0.25c-0.31,0.52-0.69,0.98-1.18,1.34c-0.13,0.1-0.29,0.26-0.44,0.09
		c-0.14-0.15,0.01-0.31,0.11-0.42c0.41-0.46,0.84-0.91,1.26-1.36c0.03-0.03,0.08-0.06,0.12-0.09C79.15,57.6,79.25,57.67,79.24,57.85
		"/>
	<path class="st0" d="M68,63.23c-0.05-0.02-0.17-0.03-0.28-0.08c-0.53-0.23-0.93-0.9-0.88-1.48c0.01-0.16,0.07-0.2,0.2-0.13
		c0.06,0.03,0.12,0.08,0.17,0.12c0.3,0.35,0.6,0.69,0.89,1.05c0.07,0.09,0.11,0.21,0.14,0.32C68.28,63.17,68.21,63.24,68,63.23"/>
	<path class="st0" d="M70.77,57.62c0.09,0.05,0.16,0.08,0.22,0.12c0.51,0.43,0.96,0.9,1.33,1.44c0.02,0.02,0.04,0.05,0.04,0.08
		c0.01,0.1,0.01,0.2,0.02,0.31c-0.1-0.01-0.22,0.01-0.3-0.03c-0.13-0.06-0.26-0.15-0.36-0.26c-0.32-0.37-0.63-0.74-0.93-1.12
		c-0.07-0.09-0.1-0.22-0.12-0.33C70.66,57.77,70.73,57.7,70.77,57.62"/>
	<path class="st0" d="M70.19,68.11c-0.12-0.03-0.21-0.04-0.29-0.06c-0.51-0.15-0.91-0.44-1.19-0.9c-0.09-0.14-0.1-0.33-0.12-0.51
		c-0.01-0.05,0.06-0.12,0.1-0.16c0.02-0.01,0.1,0.04,0.14,0.08c0.16,0.14,0.3,0.3,0.44,0.44c0.35,0.34,0.72,0.63,1.19,0.77
		c0.04,0.01,0.08,0.05,0.12,0.08c-0.03,0.05-0.05,0.11-0.09,0.13C70.39,68.03,70.28,68.07,70.19,68.11"/>
	<path class="st0" d="M80.89,62.81c-0.02,0.1-0.03,0.2-0.06,0.3c-0.17,0.48-0.4,0.93-0.74,1.33c-0.08,0.1-0.17,0.19-0.28,0.26
		c-0.21,0.13-0.37,0.04-0.36-0.22c0-0.08,0.02-0.16,0.05-0.23c0.28-0.64,0.77-1.09,1.33-1.47C80.85,62.79,80.87,62.8,80.89,62.81"/>
	<path class="st0" d="M81.38,66.72c-0.05,0.13-0.07,0.25-0.13,0.35c-0.32,0.53-0.78,0.88-1.39,0.98c-0.15,0.03-0.32-0.05-0.47-0.12
		c-0.08-0.03-0.11-0.13,0.02-0.17c0.67-0.2,1.13-0.67,1.6-1.15c0.01-0.01,0.01-0.02,0.02-0.02c0.07-0.04,0.14-0.09,0.21-0.13
		C81.29,66.55,81.33,66.63,81.38,66.72"/>
	<path class="st0" d="M69.06,62.82c0.57,0.36,1.06,0.8,1.35,1.42c0.01,0.02,0.02,0.04,0.03,0.05c0.03,0.16,0.09,0.34-0.06,0.45
		c-0.16,0.11-0.3-0.03-0.41-0.14C69.49,64.11,69.18,63.52,69.06,62.82"/>
	<path class="st0" d="M77.66,64.28c0.03,0.02,0.16,0.05,0.18,0.11c0.03,0.09,0.01,0.24-0.05,0.3c-0.19,0.19-0.39,0.37-0.62,0.51
		c-0.21,0.13-0.45,0.22-0.68,0.28c-0.2,0.05-0.29-0.08-0.23-0.25C76.38,64.84,77.18,64.27,77.66,64.28"/>
	<path class="st0" d="M80.97,55.45c-0.01,0.34-0.21,0.55-0.53,0.55c-0.35-0.01-0.6-0.24-0.59-0.57c0.01-0.35,0.27-0.62,0.6-0.62
		C80.75,54.81,80.98,55.08,80.97,55.45"/>
	<path class="st0" d="M69.47,56c-0.33,0-0.53-0.2-0.53-0.54c0-0.36,0.23-0.64,0.53-0.64c0.33,0,0.61,0.3,0.6,0.65
		C70.06,55.79,69.81,56,69.47,56"/>
	<path class="st0" d="M72.31,64.27c0.54,0.12,0.93,0.39,1.25,0.78c0.04,0.05,0.07,0.1,0.1,0.15c0.08,0.2-0.01,0.34-0.21,0.29
		c-0.52-0.12-0.98-0.38-1.32-0.8c-0.05-0.06-0.08-0.21-0.05-0.27C72.11,64.34,72.24,64.31,72.31,64.27"/>
	<path class="st0" d="M65.72,63.52c-0.01-0.29,0.1-0.37,0.28-0.29c0.09,0.05,0.19,0.11,0.26,0.19c0.25,0.29,0.41,0.61,0.46,0.99
		c0.02,0.11-0.04,0.25-0.11,0.34c-0.02,0.03-0.22-0.02-0.28-0.08c-0.15-0.15-0.32-0.31-0.4-0.5C65.81,63.94,65.77,63.69,65.72,63.52
		"/>
	<path class="st0" d="M83.17,64.5c0.1-0.5,0.27-0.9,0.62-1.21c0.06-0.05,0.16-0.1,0.24-0.09c0.06,0.01,0.16,0.1,0.16,0.15
		c-0.04,0.43-0.13,0.85-0.44,1.18c-0.05,0.06-0.12,0.12-0.19,0.15c-0.08,0.04-0.21,0.09-0.26,0.06
		C83.23,64.69,83.2,64.56,83.17,64.5"/>
	<path class="st0" d="M75.71,64.87c0.02-0.14,0.02-0.22,0.05-0.29c0.16-0.41,0.39-0.77,0.71-1.05c0.22-0.2,0.45-0.24,0.56-0.11
		c0.09,0.1,0.06,0.31-0.11,0.52C76.62,64.33,76.25,64.65,75.71,64.87"/>
	<path class="st0" d="M74.18,64.84c-0.56-0.2-1-0.56-1.29-1.07c-0.05-0.08-0.05-0.28,0.01-0.32c0.08-0.06,0.23-0.04,0.35-0.04
		c0.05,0.01,0.1,0.05,0.15,0.09C73.79,63.86,74.08,64.28,74.18,64.84"/>
	<path class="st0" d="M76.18,61.61c-0.02,0.2-0.03,0.44-0.06,0.67c-0.02,0.22-0.13,0.27-0.32,0.16c-0.07-0.04-0.13-0.09-0.18-0.16
		c-0.25-0.33-0.11-1.08,0.25-1.29c0.17-0.1,0.26-0.06,0.28,0.12C76.17,61.27,76.16,61.42,76.18,61.61"/>
	<path class="st0" d="M73.77,61.67c0-0.17-0.01-0.34,0-0.5c0.01-0.2,0.1-0.25,0.27-0.16c0.39,0.21,0.53,1.03,0.22,1.35
		c-0.06,0.06-0.12,0.1-0.19,0.13c-0.13,0.06-0.24,0.03-0.25-0.13c-0.02-0.23-0.04-0.45-0.06-0.68
		C73.75,61.67,73.76,61.67,73.77,61.67"/>
	<path class="st0" d="M80.85,73.7c0.04-0.15,0.06-0.25,0.1-0.35c0.16-0.41,0.34-0.81,0.51-1.21c0.02-0.05,0.05-0.12,0.09-0.15
		c0.08-0.06,0.19-0.16,0.26-0.15c0.14,0.04,0.1,0.18,0.05,0.28c-0.21,0.51-0.41,1.02-0.62,1.52c-0.02,0.05-0.06,0.11-0.1,0.14
		c-0.05,0.04-0.13,0.1-0.17,0.08C80.91,73.83,80.87,73.74,80.85,73.7"/>
	<path class="st0" d="M68.32,55.81c0.01,0.24-0.22,0.47-0.48,0.48c-0.27,0.02-0.57-0.27-0.58-0.55c-0.01-0.23,0.21-0.44,0.47-0.44
		C68.04,55.29,68.31,55.53,68.32,55.81"/>
	<path class="st0" d="M69.07,73.71c-0.03,0.05-0.05,0.14-0.1,0.15c-0.05,0.02-0.13-0.02-0.18-0.06c-0.05-0.05-0.1-0.12-0.13-0.2
		c-0.19-0.48-0.39-0.96-0.58-1.43c-0.01-0.03-0.03-0.05-0.03-0.08c0.01-0.08,0.04-0.16,0.05-0.24c0.08,0.03,0.19,0.04,0.22,0.09
		C68.68,72.48,68.88,73.08,69.07,73.71"/>
	<path class="st0" d="M69.22,68.65c-0.09,0.04-0.16,0.11-0.22,0.1c-0.1-0.01-0.2-0.05-0.27-0.11c-0.4-0.34-0.8-0.69-1.18-1.04
		c-0.04-0.04-0.05-0.13-0.07-0.2c0.07,0.01,0.16-0.01,0.22,0.03c0.45,0.31,0.88,0.62,1.31,0.94C69.08,68.41,69.13,68.52,69.22,68.65
		"/>
	<path class="st0" d="M82.47,67.43c-0.05,0.07-0.07,0.13-0.11,0.17c-0.38,0.34-0.76,0.69-1.16,1.02c-0.11,0.09-0.29,0.23-0.41,0.06
		c-0.13-0.17,0.06-0.3,0.18-0.39c0.4-0.3,0.82-0.59,1.23-0.88c0.05-0.03,0.11-0.05,0.17-0.06C82.39,67.35,82.42,67.4,82.47,67.43"/>
	<path class="st0" d="M71.33,66.79c-0.08,0.11-0.15,0.22-0.23,0.31c-0.1,0.1-0.23,0.15-0.35,0.06c-0.12-0.09-0.16-0.23-0.11-0.38
		c0.05-0.17,0.2-0.31,0.37-0.27c0.18,0.04,0.3,0.04,0.44-0.11c0.09-0.11,0.25-0.08,0.35,0.01c0.09,0.07,0.18,0.19,0.17,0.29
		c-0.01,0.1-0.12,0.2-0.21,0.26c-0.07,0.03-0.19,0-0.27-0.03C71.41,66.9,71.36,66.83,71.33,66.79"/>
	<path class="st0" d="M78.59,66.78c-0.04,0.04-0.08,0.08-0.11,0.11C78.3,67,78.11,66.98,78,66.83c-0.09-0.13-0.07-0.28,0.07-0.4
		c0.15-0.14,0.36-0.15,0.47,0.01c0.09,0.11,0.15,0.14,0.28,0.08c0.06-0.03,0.16-0.02,0.23,0.01c0.16,0.05,0.24,0.17,0.24,0.34
		c0,0.14-0.03,0.26-0.17,0.32c-0.15,0.05-0.27-0.04-0.36-0.15C78.69,66.96,78.65,66.88,78.59,66.78"/>
	<path class="st0" d="M74.53,63.57c-0.04,0.15-0.07,0.32-0.14,0.47c-0.08,0.17-0.2,0.17-0.32,0.03c-0.19-0.21-0.23-0.72-0.09-0.96
		c0.13-0.21,0.32-0.21,0.43,0.02C74.47,63.26,74.49,63.41,74.53,63.57"/>
	<path class="st0" d="M76.03,63.54c-0.05,0.14-0.08,0.33-0.17,0.49c-0.11,0.19-0.27,0.17-0.36-0.03c-0.13-0.29-0.13-0.58-0.01-0.87
		c0.04-0.08,0.15-0.18,0.21-0.17c0.09,0.01,0.19,0.1,0.24,0.18C76,63.24,76,63.37,76.03,63.54"/>
	<path class="st0" d="M72.6,67.96c-0.01,0.21-0.19,0.42-0.36,0.41c-0.17-0.02-0.34-0.29-0.32-0.54c0.01-0.18,0.11-0.29,0.26-0.29
		C72.4,67.54,72.6,67.75,72.6,67.96"/>
	<path class="st0" d="M78.01,67.83c0,0.26-0.18,0.52-0.37,0.51c-0.17-0.01-0.33-0.21-0.33-0.41c0-0.2,0.19-0.4,0.41-0.4
		C77.89,67.52,78.01,67.63,78.01,67.83"/>
	<path class="st0" d="M77.81,68.54c0.17,0,0.31,0.14,0.3,0.3c-0.01,0.18-0.19,0.36-0.38,0.34c-0.16-0.01-0.31-0.16-0.31-0.3
		C77.43,68.7,77.62,68.53,77.81,68.54"/>
	<path class="st0" d="M72.16,69.19c-0.19,0.01-0.37-0.17-0.36-0.35c0-0.16,0.14-0.29,0.31-0.29c0.19,0,0.37,0.18,0.37,0.35
		C72.48,69.05,72.34,69.18,72.16,69.19"/>
	<path class="st0" d="M76.62,68.64c0-0.19,0.15-0.34,0.33-0.34c0.17,0,0.23,0.1,0.23,0.25c0.01,0.2-0.15,0.43-0.29,0.43
		C76.76,68.98,76.62,68.81,76.62,68.64"/>
	<path class="st0" d="M72.74,68.59c0-0.19,0.07-0.28,0.23-0.28c0.16,0.01,0.33,0.17,0.33,0.32c0.01,0.17-0.15,0.37-0.29,0.37
		C72.88,68.99,72.74,68.79,72.74,68.59"/>
	<path class="st0" d="M72.65,67.19c0.22,0.01,0.54,0.45,0.49,0.63c-0.01,0.04-0.08,0.08-0.12,0.08c-0.18-0.02-0.48-0.42-0.45-0.6
		C72.58,67.25,72.63,67.21,72.65,67.19"/>
	<path class="st0" d="M77.37,67.26c-0.1,0.28-0.18,0.51-0.43,0.6c-0.04,0.02-0.12,0.01-0.16-0.01c-0.03-0.02-0.04-0.09-0.03-0.13
		c0.08-0.22,0.2-0.41,0.42-0.52C77.23,67.17,77.31,67.23,77.37,67.26"/>
	<path class="st0" d="M71.73,65.9c-0.21-0.01-0.34-0.11-0.43-0.31c-0.05-0.13,0-0.19,0.12-0.19c0.15-0.01,0.44,0.2,0.48,0.35
		C71.93,65.85,71.88,65.9,71.73,65.9"/>
	<path class="st0" d="M78.63,67.55c-0.02,0.24-0.17,0.39-0.38,0.44c-0.14,0.03-0.21-0.04-0.15-0.16c0.07-0.14,0.18-0.27,0.29-0.39
		c0.04-0.04,0.14-0.04,0.19-0.01C78.61,67.44,78.62,67.53,78.63,67.55"/>
	<path class="st0" d="M71.82,67.94c-0.04,0.02-0.09,0.07-0.15,0.07c-0.21-0.02-0.39-0.24-0.39-0.46c0.01-0.12,0.07-0.16,0.18-0.13
		C71.61,67.45,71.83,67.74,71.82,67.94"/>
	<path class="st0" d="M78.14,65.87c-0.02-0.01-0.09-0.02-0.11-0.06c-0.02-0.04,0-0.13,0.03-0.16c0.12-0.1,0.24-0.19,0.38-0.27
		c0.04-0.02,0.13,0,0.16,0.04c0.03,0.03,0.03,0.11,0.02,0.16C78.55,65.77,78.39,65.88,78.14,65.87"/>
	<path class="st0" d="M79.43,65.81c0.01,0.23-0.11,0.4-0.23,0.41c-0.11,0.01-0.23-0.11-0.24-0.25c-0.01-0.14,0.13-0.32,0.27-0.3
		C79.32,65.69,79.39,65.78,79.43,65.81"/>
	<path class="st0" d="M70.49,65.91c-0.01-0.11,0.03-0.2,0.16-0.23c0.15-0.02,0.29,0.13,0.29,0.29c0,0.15-0.1,0.27-0.22,0.27
		C70.6,66.24,70.5,66.09,70.49,65.91"/>
	<path class="st0" d="M71.18,61.21c-0.3,0-0.54,0.24-0.54,0.54c0,0.3,0.24,0.54,0.54,0.54c0.3,0,0.54-0.24,0.54-0.54
		C71.71,61.45,71.47,61.21,71.18,61.21"/>
	<path class="st0" d="M78.71,61.17c0.3,0,0.53,0.24,0.53,0.54c0,0.3-0.24,0.54-0.53,0.54c-0.3,0-0.54-0.24-0.54-0.54
		C78.17,61.41,78.41,61.17,78.71,61.17"/>
	<path class="st0" d="M80.95,70.21c-0.08-0.16-0.25-0.15-0.4-0.13c-0.31,0.04-0.61,0.09-0.91,0.13c-0.59,0.08-1.18,0.2-1.77,0.24
		c-0.89,0.07-1.73-0.16-2.47-0.69c-0.17-0.11-0.29-0.11-0.45,0c-0.38,0.26-0.79,0.47-1.23,0.59c-0.82,0.21-1.64,0.11-2.46-0.03
		c-0.46-0.08-0.94-0.16-1.4-0.24c0,0.01,0,0.02-0.01,0.02c-0.05,0-0.1-0.01-0.15,0c-0.11,0.03-0.25,0.04-0.31,0.12
		c-0.1,0.13,0,0.27,0.1,0.37c0.15,0.15,0.3,0.29,0.45,0.44c0.77,0.7,1.15,1.59,1.27,2.61c0.08,0.67,0.13,1.33,0.23,2
		c0.1,0.61,0.24,1.22,0.59,1.75c0.29,0.42,0.66,0.66,1.18,0.64c0.39-0.02,0.76-0.15,1.09-0.36c0.59-0.38,1.16-0.4,1.76,0
		c0.24,0.16,0.54,0.26,0.82,0.33c0.46,0.11,0.88-0.03,1.22-0.38c0.25-0.27,0.41-0.59,0.53-0.93c0.31-0.92,0.39-1.88,0.46-2.84
		c0.09-1.11,0.48-2.08,1.32-2.84c0.14-0.13,0.28-0.25,0.41-0.39C80.92,70.49,81.03,70.37,80.95,70.21 M78.72,70.74
		c0.03,0.01,0.06,0.04,0.09,0.06c0.02,0.03,0.03,0.08,0.03,0.11c-0.01,0.7-0.28,1.29-0.74,1.79c-0.03-0.01-0.05-0.02-0.08-0.03
		c-0.02-0.44-0.05-0.88-0.06-1.32C77.95,70.95,78.33,70.65,78.72,70.74 M75.63,70.82c0.02-0.05,0.09-0.13,0.14-0.13
		c0.08,0.01,0.17,0.05,0.23,0.11c0.03,0.02,0,0.13-0.03,0.18c-0.1,0.13-0.23,0.25-0.34,0.37c-0.02-0.01-0.04-0.02-0.07-0.03
		C75.58,71.15,75.6,70.99,75.63,70.82 M74.05,70.88c0.06-0.05,0.15-0.09,0.23-0.1c0.04-0.01,0.12,0.07,0.13,0.12
		c0.04,0.16,0.05,0.33,0.08,0.49c-0.03,0.01-0.05,0.02-0.07,0.02c-0.12-0.12-0.23-0.24-0.33-0.37
		C74.05,71.02,74.03,70.91,74.05,70.88 M70.94,70.99c-0.01-0.09,0.01-0.18,0.03-0.26c0.01-0.04,0.06-0.08,0.1-0.09
		c0.45-0.07,0.75,0.19,0.74,0.66c-0.01,0.33-0.02,0.66-0.03,0.98c-0.01,0.1-0.03,0.19-0.04,0.34c-0.1-0.09-0.17-0.14-0.22-0.21
		C71.2,72,71.01,71.52,70.94,70.99 M73.28,77.23c-0.43,0.01-0.59-0.17-0.58-0.6c0.03-0.79,0.41-1.4,0.95-1.95
		c0.13,0.56,0.26,1.1,0.39,1.63C74.22,77.01,73.84,77.21,73.28,77.23 M77.13,77.09c-0.16,0.02-0.32,0.02-0.47-0.02
		c-0.39-0.09-0.53-0.27-0.49-0.68c0.02-0.2,0.06-0.39,0.11-0.59c0.1-0.41,0.2-0.82,0.31-1.25c0.57,0.57,0.94,1.23,0.95,2.07
		C77.54,76.9,77.39,77.07,77.13,77.09 M78.63,74.08c-0.27,1.96-0.77,2.05-0.77,2.05c-0.47-1.47-1.46-2.21-1.46-2.21l-0.68,2.8
		c-0.68-0.44-1.11,0.02-1.11,0.02l-0.12-0.54c-0.23-0.63-0.82-2.17-0.82-2.17c-1.36,1.31-1.35,2.79-1.35,2.79
		c-0.11-0.09-0.37-0.68-0.37-0.68c-0.25-0.69-0.46-3.28-0.46-3.28l0.55,0.63c0.09-0.44,0.09-2.46,0.09-2.46l0.88,0.09
		c0,0-0.01,0.85,0,1.41c0.01,0.55,0.37,1.36,0.37,1.36l0.29-0.21c0,0-0.21-1.07-0.29-1.4c-0.08-0.33-0.16-0.86,0-1.07
		c0.07-0.09,0.43-0.17,0.43-0.17l0.86,0.83l0.01-1.06c0,0,0.27-0.39,0.41-0.39c0.12,0,0.38,0.32,0.38,0.32l0.01,1.05l0.76-0.84
		c0,0,0.34,0.15,0.39,0.26c0.11,0.27-0.14,0.74-0.09,1.16c0.04,0.42-0.13,1.34-0.13,1.34l0.36,0.23c0,0,0.22-0.6,0.15-1.15
		c-0.08-0.54,0.16-1.59,0.16-1.59s0.56,0.03,0.59,0.33c0.03,0.31,0.2,2.2,0.2,2.2c0.38-0.39,1.06-1.49,1.1-1.56
		c0.01-0.01,0.01-0.01,0.01-0.01s-0.01,0.01-0.01,0.01C78.93,72.19,78.85,72.46,78.63,74.08"/>
	<path class="st0" d="M78.96,72.15c0,0,0.01-0.01,0.01-0.01S78.96,72.14,78.96,72.15"/>
	<path class="st0" d="M82.12,60.69c-0.03-0.2-0.27-0.22-0.44-0.24c-0.44-0.06-0.88-0.11-1.11-0.13c-0.88,0.02-1.54,0.08-2.18,0.31
		c-0.45,0.17-0.78,0.46-0.94,0.93c-0.08,0.22-0.07,0.42,0.05,0.61c0.36,0.56,0.82,0.95,1.52,0.93c0.25-0.01,0.48-0.06,0.67-0.22
		c0.28-0.22,0.55-0.46,0.84-0.66c0.47-0.31,0.94-0.6,1.41-0.89c0.06-0.04,0.12-0.07,0.18-0.11c0.03-0.02,0.05-0.06,0.08-0.09
		C82.05,61.01,82.14,60.84,82.12,60.69 M78.71,62.51c-0.43,0-0.79-0.36-0.79-0.8c0-0.44,0.36-0.8,0.79-0.8
		c0.44,0,0.79,0.36,0.79,0.8C79.5,62.15,79.15,62.51,78.71,62.51 M79.96,62.06c0,0,0.36-0.84-0.27-1.14c0,0,0.64-0.22,1.58,0
		L79.96,62.06z"/>
	<path class="st0" d="M72.43,61.6c-0.16-0.47-0.49-0.77-0.94-0.93c-0.64-0.23-1.3-0.3-2.18-0.31c-0.23,0.03-0.68,0.07-1.11,0.13
		c-0.17,0.02-0.4,0.04-0.44,0.24c-0.02,0.15,0.08,0.32-0.09,0.44c0.03,0.03,0.05,0.07,0.08,0.09c0.05,0.04,0.12,0.08,0.18,0.11
		c0.47,0.3,0.95,0.58,1.41,0.89c0.3,0.2,0.57,0.44,0.85,0.66c0.2,0.15,0.42,0.21,0.67,0.22c0.71,0.02,1.16-0.38,1.52-0.93
		C72.5,62.03,72.51,61.82,72.43,61.6 M70.07,62.06l-1.49-1.1c0,0,0.81-0.23,1.7-0.05C70.28,60.92,69.86,61.45,70.07,62.06
		 M71.18,62.55c-0.43,0-0.79-0.36-0.79-0.8c0-0.44,0.36-0.79,0.79-0.79c0.43,0,0.79,0.36,0.79,0.79
		C71.96,62.19,71.61,62.55,71.18,62.55"/>
	<polygon class="st0" points="99.95,80.15 100.62,79.35 99.37,78.98 	"/>
	<path class="st0" d="M96.33,81.52c-0.17-0.02-0.35,0.08-0.55,0.25l-0.2,0.15l0.95,1.1l0.1-0.1c0.18-0.15,0.27-0.27,0.35-0.37
		c0.05-0.1,0.08-0.23,0.05-0.35c-0.02-0.13-0.1-0.25-0.2-0.38C96.66,81.62,96.5,81.52,96.33,81.52"/>
	<polygon class="st0" points="104.61,72.22 105.01,71.24 103.72,71.27 	"/>
	<polygon class="st0" points="70.86,93.91 71.41,92.71 71.94,93.91 	"/>
	<path class="st0" d="M66.16,93.45v-1.2c0,0,1.11-0.15,1.11,0.55C67.26,93.59,66.16,93.45,66.16,93.45"/>
	<path class="st0" d="M109.02,56.4c-0.59-0.47-1.3-0.73-1.96-0.73c-0.3,0-0.59,0.05-0.86,0.16c-0.74,0.29-1.23,0.96-1.36,1.9
		c-0.35,4.18-1.42,7.42-2.44,10.54c-0.21,0.64-0.42,1.28-0.63,1.93c-2.23,6.27-8.64,12.02-12.87,15.82c-1.33,1.35-1.3,2.84-1.19,4
		c-0.06,0.01-0.11,0.02-0.17,0.03c-0.31,0.06-0.65,0.16-1.03,0.26c-0.43,0.12-0.83,0.23-1.21,0.3c-0.51,0.06-0.95,0.02-1.44,0
		c0.01-0.03,0.02-0.06,0.03-0.09h-0.01c3.09-8.62,7.8-21.77,10.56-29.49c0.12-0.32,0.26-0.53,0.59-0.63
		c0.16-0.05,0.31-0.13,0.46-0.21c1.35-0.68,2.56-1.53,3.54-2.7c1.29-1.57,1.87-3.42,2.07-5.41c0.14-1.45,0.1-2.9-0.01-4.35
		c-0.14-1.79-0.3-7.29-0.3-7.29s-2.49,2.16-3.28,2.87c-1.38,1.23-2.71,2.51-3.87,3.95c-0.97,1.19-1.8,2.47-2.34,3.92
		c-0.53,1.41-0.73,2.86-0.52,4.36c0.19,1.36,0.69,2.61,1.4,3.77c0.12,0.2,0.12,0.35,0.04,0.55c-1.62,4.23-3.23,8.46-4.84,12.69
		c-1.38,3.63-4.71,12.76-6.65,17.97H80.7c-0.01,0.02-0.02,0.05-0.03,0.08l-8.87-0.05c-2.71-2.83-8.19-10.62-9.88-13.63
		c-1.45-2.58-2.66-5.25-3.52-8.09c-0.72-2.35-1.15-4.76-1.26-7.22c-0.05-1.09-0.01-2.18,0.09-3.27c0.11-1.22,0.31-2.42,0.59-3.61
		c0.52-2.21,1.3-4.33,2.33-6.34c0.87-1.69,1.81-3.34,2.72-5c0.05-0.09,0.13-0.17,0.03-0.26c-0.11-0.1-0.19-0.03-0.28,0.05
		c-1.83,1.61-3.55,3.33-5.08,5.24c-1.48,1.84-2.76,3.8-3.78,5.93c-1.1,2.28-1.88,4.67-2.25,7.18c-0.16,1.03-0.25,2.09-0.3,3.13
		c-0.06,1.36,0,2.72,0.15,4.08c0.14,1.26,0.36,2.52,0.64,3.75c0.43,1.84,1,3.62,1.67,5.38c0.01,0.03,0.47,1.27,0.67,1.81
		c-2.7-2.9-5.21-6.19-6.44-9.65c-0.21-0.66-0.42-1.3-0.63-1.94c-1.03-3.13-2.1-6.36-2.45-10.55c-0.13-0.93-0.62-1.6-1.36-1.89
		c-0.27-0.1-0.56-0.16-0.86-0.16c-0.67,0-1.37,0.25-1.96,0.73c-1.02,0.83-1.47,2.15-1.22,3.62l1.69,7.17
		c2.68,12.78,8.93,17.53,14.44,21.73c1.16,0.88,3.41,3.26,4.63,4.39l0.02,0.17c-0.03,0.19-0.02,0.36-0.03,0.55
		c-0.64,0.37-1.66,0.98-2.18,1.28c-1.19,0.67-2.39,1.31-3.57,2c-0.73,0.43-1.41,0.95-1.94,1.63c-0.18,0.23-0.23,0.45-0.19,0.73
		c0.05,0.34,0.08,0.69,0.09,1.04c0.01,0.54-0.03,1.08,0.01,1.62c0.04,0.54,0.1,1.1,0.22,1.63c0.2,0.95,0.62,1.82,1.22,2.59
		c0.4,0.51,0.71,1.08,0.96,1.69c0.17,0.41,0.38,0.81,0.63,1.18c0.4,0.59,0.98,0.87,1.68,0.87c0.95,0,1.89-0.02,2.84,0.01
		c1.02,0.02,2.04,0.06,3.07,0.13c1.5,0.1,2.99,0.24,4.49,0.1c0.94-0.08,1.85-0.27,2.7-0.7c0.21-0.1,0.42-0.16,0.65-0.15
		c0.88,0.07,1.77,0.15,2.65,0.21c0.63,0.04,1.27,0.09,1.9,0.1c0.19,0.01,0.42-0.02,0.57-0.13c0.31-0.2,0.61-0.22,0.94-0.13
		c0.13,0.04,0.26,0.08,0.41,0.09c0.36,0.05,0.71,0.07,1.05-0.08c0.19-0.08,0.4-0.13,0.6-0.14c0.28-0.01,0.55,0.02,0.83,0.06
		c0.33,0.04,0.67,0.14,1,0.15c0.8,0.01,1.59-0.02,2.38-0.03c1.68-0.03,3.36-0.07,5.04-0.09c0.26,0,0.54,0.04,0.79,0.11
		c0.5,0.14,1.01,0.22,1.53,0.19c0.54-0.03,1.03-0.19,1.41-0.56c0.78-0.76,1.54-1.53,2.3-2.32c0.31-0.32,0.6-0.68,0.81-1.07
		c0.41-0.75,0.77-1.53,1.15-2.31c0.46-0.95,0.79-1.94,0.93-2.99c0.09-0.65-0.12-1.12-0.64-1.47c-1.73-1.17-4.9-3.31-6.81-4.39
		c-0.02-0.22-0.03-0.43-0.05-0.64c-0.03-0.28-0.05-0.57-0.07-0.85c-0.01-0.14-0.01-0.26-0.01-0.4c1.3-1.13,3.51-3.05,4.57-3.85
		c5.51-4.19,11.76-8.94,14.44-21.72l1.7-7.19C110.49,58.54,110.04,57.23,109.02,56.4 M84.55,82.07c1.27-3.45,2.59-7.03,3.46-9.28
		l0.66-1.72c1.39-3.65,2.78-7.31,4.18-10.97c0.16-0.41,0.12-0.77-0.1-1.13c-0.71-1.16-1.14-2.31-1.31-3.51
		c-0.19-1.35-0.03-2.67,0.48-4.04c0.47-1.23,1.18-2.42,2.24-3.74c1.18-1.47,2.58-2.78,3.8-3.87c0.23-0.2,1.49-1.24,1.72-1.44
		c-1.84,4.16-3.71,11.16-3.71,11.16s3.09-6.08,4.25-10.88c0.04,0.41,0.15,4.27,0.22,5.13c0.13,1.7,0.13,3.01,0.02,4.24
		c-0.21,2.08-0.84,3.73-1.92,5.05c-0.83,1-1.91,1.82-3.32,2.53l-0.13,0.07c-0.08,0.04-0.15,0.08-0.23,0.1
		c-0.65,0.2-0.9,0.69-1.02,1.04c-1.36,3.78-2.97,8.28-4.61,12.89c-1.74,4.88-4.41,12.31-6.03,16.82h-1.73
		C82.22,88.4,83.79,84.12,84.55,82.07 M79.27,95.04c0.15-0.02,0.25-0.05,0.34-0.12c0.1-0.08,0.25-0.23,0.45-0.47l0.65-0.8
		l-0.85-1.22c-0.15-0.2-0.23-0.32-0.23-0.35c-0.05-0.05-0.07-0.1-0.12-0.12c-0.05-0.02-0.1-0.05-0.17-0.05v-0.1h1.62v0.1h-0.08
		c-0.1,0-0.15,0.03-0.2,0.05c-0.02,0.02-0.05,0.08-0.05,0.12c0,0.03,0,0.07,0.03,0.1l0.17,0.25l0.4,0.62l0.35-0.43
		c0.17-0.23,0.27-0.38,0.27-0.45c0-0.05-0.02-0.08-0.05-0.12c-0.03-0.03-0.05-0.08-0.1-0.1c-0.05-0.02-0.13-0.02-0.23-0.02v-0.1
		h1.22v0.1c-0.1,0-0.18,0-0.3,0.07l-1,1.3l0.85,1.24c0.15,0.23,0.25,0.35,0.33,0.4c0.07,0.05,0.15,0.08,0.22,0.08v0.1h-1.59v-0.1
		c0.12,0,0.2-0.03,0.25-0.05c0.03-0.03,0.05-0.08,0.05-0.1c0-0.03,0-0.05-0.02-0.08c-0.03-0.05-0.08-0.15-0.17-0.27l-0.43-0.62
		l-0.78,0.9c-0.02,0.05-0.02,0.1,0.05,0.15c0.05,0.03,0.1,0.05,0.17,0.08c0.03,0,0.1,0.02,0.2,0.02v0.1h-1.27V95.04z M75.03,95.09
		h0.15c0.12,0,0.23-0.03,0.3-0.05c0.05-0.02,0.1-0.05,0.12-0.12c0.02-0.05,0.05-0.12,0.05-0.3l0.1-2.1c0-0.15,0-0.27-0.03-0.3
		c-0.02-0.05-0.07-0.08-0.15-0.1c-0.08-0.02-0.18-0.05-0.3-0.05h-0.15V92l2.3-0.03v0.08h-0.15c-0.13,0-0.23,0.02-0.3,0.05
		c-0.05,0.02-0.1,0.05-0.13,0.12c-0.02,0.05-0.05,0.12-0.05,0.3l-0.1,2.1c0,0.15,0,0.27,0.03,0.3c0.02,0.05,0.07,0.08,0.15,0.1
		c0.07,0.02,0.17,0.05,0.3,0.05h0.15v0.08l-2.3,0.02V95.09z M71.91,91.92l1.07,2.52c0.13,0.27,0.23,0.45,0.3,0.5
		c0.05,0.05,0.16,0.08,0.25,0.1v0.1h-1.67v-0.1h0.08c0.12,0,0.22-0.02,0.27-0.05c0.05-0.02,0.05-0.08,0.05-0.12
		c0-0.03,0-0.05-0.02-0.1c0-0.02-0.02-0.08-0.08-0.2l-0.17-0.43h-1.22l-0.15,0.35c-0.05,0.12-0.08,0.2-0.08,0.27
		c0,0.1,0.05,0.17,0.13,0.23c0.05,0.03,0.15,0.05,0.35,0.05v0.1h-1.37v-0.1c0.12-0.05,0.2-0.02,0.3-0.15
		c0.13-0.12,0.18-0.25,0.3-0.52l1.12-2.44H71.91z M61.71,44.62c0.02,0.02,0.05,0.04,0.07,0.06c-0.05,0.1-0.11,0.21-0.16,0.31
		c-1.02,1.78-1.97,3.59-2.75,5.5c-0.83,2.04-1.43,4.14-1.76,6.31c-0.26,1.72-0.33,3.45-0.24,5.19c0.19,3.36,0.99,6.58,2.22,9.7
		c1.22,3.09,2.81,5.99,4.63,8.76c1.19,1.8,4.91,7.09,7.61,10.1l-5.55-0.03c-2.98-3.48-6.32-9.39-7.79-13.19
		c-0.91-2.34-1.63-4.74-2.08-7.22c-0.22-1.18-0.39-2.36-0.5-3.56c-0.11-1.19-0.16-2.38-0.17-3.57c-0.01-1.6,0.14-3.2,0.39-4.78
		c0.4-2.48,1.09-4.88,2.11-7.17c1-2.25,2.28-4.33,3.85-6.22C61.63,44.75,61.66,44.68,61.71,44.62 M66.53,94.99v0.2h-1.67v-0.22
		c0.4,0.02,0.4-0.03,0.43-0.38v-2.05c0-0.18,0-0.27-0.03-0.32c-0.07-0.08-0.2-0.05-0.3-0.05V92h1.44c0.53,0,0.93,0.08,1.15,0.25
		c0.22,0.15,0.35,0.38,0.35,0.6c0,0.2-0.07,0.38-0.23,0.52c-0.15,0.15-0.34,0.25-0.62,0.3c-0.18,0.03-0.48,0.05-0.9,0.05l-0.02,0.87
		C66.18,94.94,66.15,94.94,66.53,94.99 M41.58,64.38c-0.1-0.2-0.15-0.45-0.17-0.75c-0.03-0.35,0.05-0.65,0.17-0.9
		c0.12-0.22,0.48-0.35,0.65-0.37c0.1,0,0.2,0.03,0.27,0.12c0.08,0.08,0.1,0.2,0.13,0.32c0,0.12-0.03,0.25-0.08,0.32
		c-0.05,0.1-0.12,0.15-0.23,0.15c-0.05,0-0.07,0-0.13-0.03c-0.02,0-0.07-0.03-0.12-0.1c-0.1-0.18-0.28-0.12-0.32-0.08
		c-0.15,0.1-0.15,0.23-0.15,0.4c0,0.1,0.03,0.18,0.05,0.23c0.02,0.05,0.1,0.1,0.17,0.12c0.07,0.02,0.27,0.02,0.62,0l1.72-0.1
		c0.3,0,0.32-0.1,0.35-0.32h0.18l0.1,1.57h-0.2c-0.05-0.17-0.15-0.2-0.4-0.2l-1.57,0.1c-0.3,0.02-0.53,0-0.67-0.08
		C41.8,64.73,41.68,64.59,41.58,64.38 M42.95,69.22c-0.2-0.15-0.32-0.4-0.42-0.75c-0.08-0.27-0.1-0.5-0.08-0.7
		c0.05-0.25,0.13-0.42,0.25-0.55c0.13-0.12,0.32-0.25,0.6-0.33l1.54-0.45c0.3-0.08,0.4-0.18,0.4-0.4l0.08,0.05l0.37,1.35l-0.08,0.03
		c-0.03-0.12-0.05-0.18-0.1-0.23c-0.05-0.05-0.08-0.08-0.12-0.08c-0.05,0-0.17,0.02-0.35,0.08L43.5,67.7
		c-0.27,0.08-0.27,0.1-0.35,0.18c-0.08,0.07-0.13,0.17-0.18,0.27c-0.02,0.12-0.02,0.25,0.02,0.4c0.05,0.17,0.12,0.33,0.25,0.43
		c0.05,0.05,0.12,0.1,0.2,0.12c0.17,0.12,1.54-0.35,2.31-0.52c0.05-0.05,0.08-0.1,0.1-0.15c0.03-0.08,0-0.2-0.02-0.32l0.07-0.03
		l0.27,1.02h-0.1c-0.1-0.22-0.3-0.25-0.58-0.17l-1.2,0.35c-0.37,0.1-0.65,0.17-0.82,0.17S43.13,69.37,42.95,69.22 M44.85,73.69
		c-0.27-0.15-0.52-0.4-0.7-0.74c-0.05-0.1-0.1-0.23-0.13-0.33c-0.02-0.1-0.05-0.25-0.07-0.42c-0.03-0.1-0.03-0.18-0.05-0.23
		c-0.03-0.05-0.05-0.08-0.12-0.12c-0.05-0.03-0.12-0.05-0.2-0.05l-0.05-0.1l1.07-0.58l0.05,0.1c-0.27,0.25-0.42,0.52-0.47,0.82
		c-0.05,0.3-0.03,0.58,0.1,0.85c0.1,0.2,0.22,0.32,0.35,0.4c0.15,0.08,0.27,0.08,0.37,0.02c0.08-0.02,0.12-0.1,0.18-0.17
		c0.05-0.07,0.07-0.17,0.07-0.3c0-0.12,0-0.33-0.02-0.6c-0.03-0.4-0.03-0.67-0.03-0.87c0.03-0.2,0.07-0.35,0.15-0.5
		c0.08-0.12,0.18-0.25,0.3-0.32c0.22-0.13,0.47-0.13,0.72,0c0.27,0.12,0.48,0.35,0.62,0.65c0.05,0.12,0.1,0.23,0.13,0.35
		c0.03,0.1,0.05,0.2,0.05,0.35c0,0.15,0.02,0.25,0.05,0.27c0.02,0.05,0.05,0.08,0.07,0.1c0.03,0.03,0.1,0,0.2-0.02l0.18,0.1
		l-0.95,0.55l-0.05-0.1c0.22-0.17,0.35-0.4,0.4-0.7c0.05-0.27,0.03-0.52-0.1-0.77c-0.1-0.18-0.2-0.3-0.33-0.38
		c-0.12-0.08-0.25-0.08-0.35-0.02c-0.07,0.02-0.1,0.07-0.15,0.15c-0.05,0.07-0.08,0.2-0.08,0.35c0,0.1,0,0.35,0.03,0.69
		c0.05,0.5,0.02,0.87-0.05,1.1c-0.08,0.22-0.2,0.38-0.4,0.5C45.4,73.84,45.15,73.84,44.85,73.69 M46.85,77.23l0.04,0.1l-0.07,0.05
		l-0.95-1.42l0.08-0.05l0.05,0.1c0.05,0.07,0.1,0.12,0.17,0.15c0.05,0.02,0.1,0.02,0.16,0.02c0.05,0,0.12-0.05,0.25-0.15l2-1.45
		l-0.12-0.2c-0.13-0.17-0.25-0.27-0.37-0.32c-0.18-0.05-0.38,0-0.58,0.1l-0.05-0.08l0.7-0.5l1.62,2.44l-0.7,0.5l-0.05-0.08
		c0.12-0.15,0.22-0.3,0.25-0.4c0.02-0.1,0.05-0.23,0.02-0.32c0-0.08-0.05-0.18-0.15-0.3l-0.12-0.2l-1.99,1.45
		c-0.13,0.1-0.2,0.17-0.23,0.2c-0.02,0.02-0.02,0.1-0.02,0.15C46.77,77.11,46.79,77.16,46.85,77.23 M49.49,80.65l-1.55-1.67
		l0.08-0.05l0.1,0.1c0.08,0.1,0.18,0.15,0.25,0.2c0.05,0.03,0.12,0.03,0.17,0.03c0.05,0,0.12-0.05,0.25-0.17l1.6-1.35
		c0.12-0.1,0.2-0.17,0.2-0.23c0.02-0.05,0-0.1-0.03-0.17c-0.02-0.08-0.07-0.15-0.17-0.25l-0.1-0.1l0.07-0.05l1.55,1.67l-0.07,0.05
		l-0.1-0.1c-0.08-0.1-0.17-0.15-0.25-0.2c-0.05-0.02-0.12-0.02-0.17-0.02c-0.05,0-0.13,0.05-0.25,0.17l-1.6,1.35
		c-0.13,0.1-0.2,0.17-0.2,0.23c-0.03,0.05,0,0.1,0.02,0.17c0.03,0.08,0.08,0.15,0.17,0.25l0.1,0.1L49.49,80.65z M53.03,83.39
		c-0.27,0.05-0.53,0.07-0.72,0.02c-0.23-0.05-0.45-0.15-0.67-0.3c-0.3-0.2-0.52-0.45-0.68-0.73c-0.15-0.27-0.22-0.57-0.2-0.87
		c0.03-0.3,0.13-0.6,0.3-0.85c0.18-0.27,0.42-0.47,0.72-0.62c0.3-0.15,0.62-0.2,0.95-0.17c0.32,0.03,0.62,0.12,0.9,0.3
		c0.2,0.13,0.38,0.33,0.55,0.55c0.1,0.12,0.15,0.22,0.2,0.25c0.04,0.03,0.1,0.05,0.15,0.03c0.05,0,0.1-0.05,0.18-0.13l0.05,0.08
		l-0.65,0.97l-0.08-0.05c0.1-0.3,0.13-0.57,0.05-0.82c-0.08-0.25-0.22-0.45-0.43-0.57c-0.17-0.13-0.37-0.18-0.57-0.18
		c-0.22,0-0.4,0.08-0.6,0.18c-0.22,0.15-0.42,0.35-0.6,0.62c-0.17,0.25-0.3,0.5-0.37,0.75c-0.07,0.25-0.07,0.47-0.03,0.67
		c0.08,0.2,0.2,0.37,0.43,0.52c0.17,0.12,0.37,0.2,0.57,0.2c0.2,0.02,0.45,0,0.73-0.1L53.03,83.39z M57.37,84.96l-0.08-0.08
		c0.13-0.22,0.18-0.4,0.15-0.55c0-0.15-0.08-0.3-0.18-0.45c-0.05-0.1-0.2-0.23-0.42-0.43l-0.32-0.2l-0.88,1l0.05,0.05
		c0.17,0.15,0.37,0.23,0.52,0.2c0.18-0.03,0.35-0.12,0.55-0.3l0.08,0.08l-1.12,1.3l-0.08-0.08c0.1-0.15,0.18-0.3,0.2-0.45
		c0.03-0.15,0-0.25-0.02-0.35c-0.05-0.1-0.15-0.2-0.27-0.32l-0.6,0.7c-0.12,0.12-0.17,0.22-0.2,0.27c-0.02,0.05,0,0.1,0,0.15
		c0.03,0.05,0.07,0.12,0.15,0.18l0.17,0.15c0.27,0.25,0.55,0.38,0.8,0.4c0.25,0.03,0.53-0.02,0.78-0.17l0.08,0.07l-0.82,0.68
		l-2.55-2.2l0.05-0.07l0.1,0.07c0.08,0.08,0.18,0.13,0.25,0.15c0.05,0.03,0.1,0,0.17-0.02c0.05-0.03,0.13-0.08,0.23-0.2l1.42-1.62
		c0.1-0.1,0.15-0.17,0.17-0.22c0.03-0.05,0.03-0.1,0-0.17c-0.02-0.08-0.07-0.18-0.17-0.25l-0.1-0.08l0.05-0.07l2.47,2.12
		L57.37,84.96z M54.95,80.31c-0.97-2.45-2.55-7-2.99-9.5c-0.24-1.36-0.4-2.73-0.45-4.11c-0.17-3.89,0.52-7.61,2.04-11.19
		c0.98-2.3,2.28-4.42,3.81-6.4c0.9-1.16,1.87-2.26,2.9-3.31c0.05-0.06,0.12-0.11,0.17-0.16c0.02,0.02,0.04,0.03,0.05,0.05
		c-0.09,0.14-0.19,0.27-0.29,0.41c-2.28,3.21-3.8,6.76-4.6,10.63c-0.26,1.23-0.43,2.48-0.55,3.73c-0.13,1.4-0.14,2.8-0.09,4.2
		c0.08,2.08,0.36,4.14,0.79,6.18c1.22,5.7,3.56,10.91,6.68,15.78c0.39,0.61,2.04,2.82,2.8,3.87l-1.56-0.01l-1.56-0.1
		c0.22-2.71-0.53-3.77-1.35-4.59C59.04,84.27,56.96,82.4,54.95,80.31 M96.75,100.54c-0.14,1.2-0.61,2.28-1.14,3.34
		c-0.28,0.55-0.53,1.12-0.83,1.66c-0.17,0.3-0.38,0.58-0.61,0.85c-0.76,0.94-1.63,1.79-2.53,2.58c-0.3,0.26-0.65,0.38-1.04,0.41
		c-0.51,0.04-1.01-0.02-1.5-0.16c-0.31-0.08-0.63-0.13-0.95-0.13c-1.56,0.01-3.12,0.04-4.68,0.07c-0.87,0.02-1.75,0.06-2.62,0.05
		c-0.38-0.01-0.76-0.12-1.15-0.15c-0.54-0.05-1.08-0.1-1.61,0.15c-0.23,0.11-0.54,0.04-0.82,0.03c-0.16-0.01-0.31-0.06-0.47-0.1
		c-0.36-0.1-0.68-0.04-1,0.17c-0.1,0.07-0.24,0.1-0.36,0.09c-0.66-0.02-1.33-0.05-1.99-0.1c-0.56-0.04-1.12-0.1-1.69-0.15
		c-0.35-0.03-0.69-0.06-1.04-0.05c-0.21,0.01-0.44,0.05-0.62,0.15c-0.87,0.42-1.78,0.64-2.73,0.69c-0.62,0.03-1.25,0.07-1.87,0.05
		c-0.84-0.03-1.68-0.11-2.53-0.16c-0.85-0.05-1.71-0.11-2.56-0.13c-1.09-0.02-2.17-0.01-3.26,0c-0.7,0.01-1.23-0.27-1.59-0.87
		c-0.17-0.27-0.33-0.55-0.44-0.85c-0.27-0.73-0.66-1.39-1.13-2c-0.72-0.95-1.11-2.03-1.22-3.21c-0.05-0.54-0.05-1.08-0.09-1.62
		c0.01,0,0.02,0,0.03,0v-0.39c-0.01-0.47,0.03-0.94-0.1-1.41c-0.06-0.22-0.01-0.27,0.22-0.25c0.66,0.05,1.33,0.11,1.99,0.16
		c0.87,0.08,1.74,0.15,2.62,0.22c1.11,0.08,2.22,0.16,3.33,0.23c0.86,0.05,1.73,0.1,2.59,0.13c1.98,0.08,3.95,0.17,5.92,0.22
		c2.03,0.05,4.06,0.07,6.09,0.09c1.94,0.02,3.89,0.04,5.84,0.03c2.32-0.01,4.63-0.03,6.95-0.06c1.49-0.02,2.96-0.03,4.45-0.05
		c1.22-0.02,2.45-0.04,3.67-0.05C96.83,100.01,96.81,100.01,96.75,100.54 M89.74,95.42c-0.01-0.08-0.01-0.17-0.02-0.25
		c0.84,0.5,2.44,1.46,2.95,1.79c1.19,0.76,2.36,1.55,3.54,2.33c0.11,0.07,0.2,0.16,0.28,0.3c-0.24,0.02-0.49,0.05-0.72,0.05
		c-1,0.01-2.01,0.01-3.01,0.02c-1.74,0.02-3.48,0.05-5.21,0.06c-4.78,0.02-9.56,0.03-14.34,0.04c-1.06,0.01-2.11-0.03-3.16-0.06
		c-1.28-0.03-2.57-0.07-3.84-0.12c-1.33-0.05-2.66-0.11-3.99-0.18c-0.99-0.05-1.99-0.11-2.97-0.18c-1.34-0.09-2.68-0.19-4.01-0.3
		c-0.66-0.05-1.33-0.12-1.99-0.18c-0.08-0.01-0.15-0.03-0.23-0.05c-0.01-0.03-0.02-0.06-0.03-0.09c0.39-0.3,0.74-0.64,1.15-0.89
		c1.03-0.63,2.08-1.22,3.13-1.82c0.81-0.46,2.01-1.2,2.88-1.7c0.02,0.98,0.29,1.77,0.81,2.29c0.71,0.7,1.91,0.95,3.45,0.72h0.02
		l24.78-0.18C89.57,96.94,89.76,96.15,89.74,95.42 M93.69,87.66l-0.05-0.08l0.08-0.08c0.07-0.05,0.12-0.12,0.15-0.17
		c0.02-0.05,0.02-0.1,0-0.15c0-0.05-0.08-0.12-0.18-0.25l-1.62-1.87l-0.17,0.15c-0.18,0.12-0.27,0.27-0.27,0.4
		c-0.03,0.17,0.02,0.37,0.15,0.57l-0.08,0.05l-0.57-0.65l2.3-1.8l0.57,0.65l-0.07,0.05c-0.18-0.12-0.3-0.2-0.43-0.22
		c-0.1-0.03-0.22-0.03-0.32,0c-0.08,0.03-0.15,0.08-0.27,0.17l-0.2,0.15l1.62,1.87c0.1,0.12,0.17,0.2,0.23,0.23
		c0.05,0.02,0.1,0.02,0.15,0.02c0.05,0,0.12-0.05,0.2-0.1l0.08-0.08l0.05,0.08L93.69,87.66z M98.65,83.39l-1.8-0.43l-0.2,0.18
		l0.62,0.7c0.12,0.12,0.2,0.23,0.25,0.23c0.05,0.02,0.1,0.02,0.15,0c0.05-0.02,0.15-0.08,0.25-0.17l0.05,0.07l-1.27,1.12l-0.05-0.08
		c0.13-0.1,0.17-0.17,0.2-0.25c0.02-0.05,0.02-0.1,0.02-0.15c0-0.05-0.08-0.15-0.2-0.27l-1.42-1.62c-0.12-0.12-0.2-0.22-0.25-0.22
		c-0.05-0.03-0.1-0.03-0.15,0c-0.05,0.03-0.15,0.07-0.25,0.17l-0.05-0.08l1.14-1.02c0.3-0.27,0.55-0.45,0.72-0.52
		c0.18-0.07,0.35-0.1,0.55-0.07c0.17,0.03,0.34,0.12,0.47,0.27c0.16,0.17,0.23,0.4,0.2,0.62c-0.02,0.15-0.08,0.3-0.2,0.47l1.35,0.32
		c0.17,0.05,0.3,0.05,0.35,0.05c0.07,0,0.15-0.02,0.22-0.1l0.05,0.08L98.65,83.39z M101.49,80.15l-0.08-0.05l0.05-0.05
		c0.08-0.1,0.12-0.2,0.15-0.25c0-0.05-0.02-0.08-0.04-0.12c-0.03-0.03-0.05-0.03-0.08-0.05c-0.02,0-0.08-0.02-0.2-0.07l-0.48-0.12
		l-0.8,0.95l0.17,0.32c0.05,0.1,0.1,0.18,0.18,0.23c0.08,0.08,0.15,0.08,0.25,0.05c0.05-0.03,0.16-0.1,0.28-0.23l0.08,0.05
		l-0.9,1.05l-0.08-0.05c0.03-0.12,0.1-0.17,0.08-0.32c-0.03-0.18-0.08-0.3-0.2-0.58l-1.15-2.42l0.35-0.42l2.62,0.8
		c0.27,0.08,0.47,0.12,0.57,0.1c0.07,0,0.15-0.05,0.22-0.12l0.08,0.05L101.49,80.15z M104.04,76.68l-2.74-0.35
		c-0.38-0.05-0.6-0.08-0.68-0.05c-0.07,0.02-0.15,0.07-0.25,0.17l-0.08-0.05l0.88-1.47l0.07,0.05l-0.03,0.05
		c-0.08,0.13-0.12,0.23-0.1,0.3c0,0.05,0.03,0.08,0.08,0.1c0.02,0.03,0.07,0.03,0.1,0.05c0.05,0,0.17,0.03,0.37,0.05l1.89,0.25
		l-1-1.4c-0.13-0.17-0.2-0.27-0.25-0.32c-0.05-0.05-0.1-0.07-0.12-0.1c-0.05-0.03-0.1-0.05-0.15-0.03c-0.05,0-0.1,0.03-0.15,0.05
		c-0.08,0.05-0.12,0.12-0.2,0.22l-0.08-0.05l0.6-1l0.08,0.05c-0.05,0.12-0.05,0.25,0,0.4c0.05,0.1,0.15,0.3,0.37,0.6l1.55,2.14
		L104.04,76.68z M106.03,71.69l-0.08-0.02l0.03-0.08c0.05-0.13,0.07-0.23,0.05-0.27c0-0.05-0.05-0.08-0.08-0.1
		c-0.03,0-0.05-0.02-0.1-0.02h-0.2l-0.45,0.02l-0.47,1.12l0.25,0.27c0.08,0.08,0.15,0.15,0.23,0.17c0.1,0.03,0.17,0.03,0.25-0.02
		c0.05-0.03,0.1-0.13,0.18-0.3l0.07,0.03l-0.52,1.27l-0.07-0.03c0-0.12,0.05-0.2-0.03-0.35c-0.07-0.15-0.17-0.27-0.37-0.47
		l-1.82-1.97l0.23-0.52l2.74-0.02c0.3,0,0.5-0.03,0.57-0.08c0.07-0.03,0.12-0.1,0.17-0.2l0.08,0.03L106.03,71.69z M107.01,69.37
		l-0.08-0.03l0.05-0.15c0.03-0.13,0.05-0.23,0.05-0.3c0-0.05-0.02-0.12-0.07-0.18c-0.03-0.02-0.13-0.07-0.27-0.12l-1.97-0.7
		c-0.15-0.05-0.25-0.08-0.3-0.08c-0.05,0-0.1,0.05-0.15,0.1c-0.05,0.05-0.1,0.15-0.12,0.27l-0.05,0.18l-0.08-0.03l0.67-2.2
		l0.08,0.03l-0.05,0.15c-0.03,0.13-0.05,0.22-0.05,0.3c0,0.05,0.02,0.12,0.08,0.15c0.02,0.03,0.12,0.08,0.27,0.12l1.97,0.7
		c0.15,0.05,0.25,0.07,0.3,0.07c0.05,0,0.1-0.05,0.15-0.1c0.05-0.05,0.1-0.15,0.13-0.27l0.05-0.15l0.08,0.02L107.01,69.37z
		 M108.08,66.13L108,66.11l0.02-0.1c0.03-0.1,0.03-0.17,0-0.23c0-0.05-0.05-0.07-0.08-0.12c-0.03-0.03-0.12-0.05-0.27-0.1l-2-0.53
		c-0.15-0.05-0.25-0.05-0.3-0.05c-0.05,0-0.08,0.03-0.12,0.08c-0.05,0.05-0.08,0.1-0.1,0.2l-0.02,0.1l-0.13-0.03l0.4-1.7l0.08,0.03
		l-0.03,0.15c-0.02,0.1-0.02,0.17,0,0.23c0,0.05,0.05,0.1,0.08,0.12c0.03,0.03,0.13,0.05,0.27,0.1l1.95,0.5
		c0.15,0.05,0.25,0.05,0.3,0.05c0.05,0,0.1-0.03,0.13-0.08c0.02-0.02,0.05-0.12,0.1-0.27l0.07-0.27c0.05-0.18,0.05-0.33,0.03-0.45
		c-0.03-0.12-0.1-0.25-0.2-0.37c-0.1-0.13-0.27-0.25-0.5-0.38l0.03-0.07l1.04,0.4L108.08,66.13z"/>
</g>
</svg>
